<svg width="42" height="46" viewBox="0 0 42 46" fill="none" xmlns="http://www.w3.org/2000/svg">
<path d="M20.5294 8.13014C22.1998 8.07888 23.8753 8.07375 25.5406 7.9661C26.6696 7.89433 27.7729 7.92509 28.871 8.18653C29.2834 8.28393 29.5309 8.49411 29.5876 8.92471C29.6959 9.75517 29.8145 10.5805 29.933 11.4058C30.0774 12.385 30.0774 13.3948 30.6393 14.2714C31.0672 14.9378 31.4951 15.5991 31.9385 16.2553C32.351 16.8653 32.6087 17.5112 32.6087 18.2597C32.5984 20.2743 32.5984 22.2838 32.619 24.2984C32.619 24.6778 32.485 24.9546 32.2324 25.2212C31.1807 26.3387 30.0722 27.4152 29.2628 28.7327C28.773 29.5273 28.3658 30.368 27.9224 31.1933C27.8812 31.2702 27.8348 31.3471 27.742 31.506C27.6956 31.1728 27.6801 30.9267 27.6182 30.696C27.51 30.2706 27.3965 29.84 27.2419 29.4247C27.0357 28.8762 26.5407 28.584 26.0922 28.2662C25.7004 27.9894 25.2725 27.7689 24.8549 27.528C24.6229 27.3947 24.5249 27.2307 24.5559 26.9436C24.7415 25.4006 24.9013 23.8576 25.0714 22.3146C25.1848 21.2842 25.6695 20.4178 26.3397 19.6643C26.9377 18.9927 27.5873 18.3673 28.242 17.7522C28.474 17.5369 28.7988 17.419 29.0618 17.2395C29.3092 17.0704 29.5412 16.8705 29.7474 16.6346C29.237 16.7115 28.7524 16.8448 28.3658 17.1575C27.4636 17.8906 26.5717 18.639 25.7004 19.408C25.2106 19.8437 25.092 19.8745 24.5559 19.5207C24.0197 19.1722 23.8857 18.6493 23.8599 18.0649C23.8496 17.8444 23.896 17.6035 23.6382 17.419C23.6021 17.5164 23.5454 17.5984 23.5454 17.6804C23.5402 18.2187 23.5299 18.7569 23.5506 19.2901C23.5506 19.4182 23.6485 19.5566 23.7207 19.6745C23.8238 19.8386 23.9372 19.9924 24.0558 20.141C24.4631 20.6229 24.6384 21.0996 24.4682 21.7814C24.2001 22.8785 24.1125 24.0216 23.9217 25.1392C23.8135 25.7594 23.6485 26.3746 23.499 26.9897C23.4217 27.3076 23.2051 27.4614 22.87 27.4716C22.0864 27.4921 21.3079 27.5229 20.5243 27.5485C19.7561 27.5229 18.9828 27.5075 18.2146 27.4767C17.797 27.4614 17.6114 27.3435 17.5135 26.9385C17.3434 26.231 17.199 25.5134 17.0753 24.8008C16.8794 23.6833 16.7041 22.5606 16.5133 21.4431C16.4618 21.1458 16.4669 20.8741 16.6525 20.6229C16.8794 20.3153 17.1114 20.0077 17.3279 19.6899C17.4052 19.5771 17.498 19.4387 17.498 19.3054C17.5135 18.6493 17.5083 17.9982 17.5083 17.3421C17.4722 17.3318 17.4362 17.3164 17.4052 17.3062C17.333 17.4651 17.2351 17.6189 17.2042 17.7881C17.1423 18.1008 17.1371 18.4288 17.0701 18.7415C16.9567 19.2542 16.5339 19.5259 16.1163 19.7566C15.8947 19.8796 15.7142 19.7104 15.5441 19.5618C14.7141 18.8338 13.884 18.1059 13.0385 17.3933C12.5488 16.9781 11.961 16.7372 11.3424 16.5834C11.3218 16.6039 11.3011 16.6295 11.2805 16.65C11.4506 16.8192 11.5898 17.0499 11.7961 17.1421C12.9045 17.6445 13.6727 18.5467 14.4821 19.3977C15.5802 20.5511 16.039 21.9455 16.1421 23.4987C16.2143 24.5599 16.3587 25.6159 16.4669 26.677C16.4875 26.877 16.4927 27.082 16.503 27.3024C16.3741 27.3845 16.2555 27.4562 16.137 27.5383C15.5183 27.9484 14.8739 28.3277 14.2862 28.7788C14.0542 28.9582 13.8634 29.2556 13.7706 29.5375C13.5953 30.0399 13.5077 30.573 13.3839 31.0959C13.3633 31.1882 13.3427 31.2804 13.3015 31.465C13.1623 31.2189 13.0488 31.06 12.9715 30.8806C12.1827 29.0044 10.9454 27.4409 9.54311 25.9901C9.24409 25.6774 8.93477 25.375 8.67184 25.0315C8.53264 24.8572 8.41406 24.606 8.41406 24.3907C8.41406 22.2377 8.42953 20.0795 8.46562 17.9265C8.47593 17.3011 8.76979 16.7577 9.12036 16.2399C9.52249 15.6453 9.904 15.0352 10.301 14.4355C10.7443 13.7691 10.9196 13.0257 11.0124 12.2414C11.1413 11.1034 11.3269 9.97047 11.4867 8.83244C11.5383 8.4736 11.76 8.28905 12.0899 8.20703C13.1623 7.93534 14.2398 7.88408 15.3482 7.95072C17.0753 8.05324 18.8127 8.07375 20.5449 8.13014H20.5294ZM26.582 20.2743C27.1542 20.7716 28.1905 20.6588 28.7988 20.059C29.4897 19.3772 29.7268 18.4032 29.2989 17.9111C28.2884 18.5775 27.3759 19.3567 26.582 20.2743ZM11.7239 17.8957C11.2754 18.3725 11.6053 19.5002 12.3477 20.1513C12.9406 20.669 13.8943 20.7357 14.4718 20.2743C13.6675 19.3618 12.755 18.5775 11.7239 17.8957Z" fill="#54B3C3"/>
<path d="M20.5293 39.6209C20.6479 39.6414 20.7613 39.6721 20.8799 39.6773C21.9213 39.7285 22.9678 39.7798 24.0093 39.8157C24.3186 39.8259 24.5815 39.7439 24.798 39.4722C25.3755 38.7545 25.9993 38.0727 26.5767 37.3551C26.8293 37.0424 27.0613 36.6938 27.2211 36.3247C27.3139 36.1094 27.252 35.8223 27.2469 35.566C27.2469 35.4122 27.1644 35.2533 27.1953 35.1097C27.3603 34.3408 27.4737 33.5462 27.7521 32.8132C28.2419 31.5316 28.9018 30.3167 29.6133 29.1376C30.1907 28.1739 30.897 27.3229 31.6806 26.5283C32.1498 26.0516 32.5983 25.5492 33.0365 25.0417C33.1499 24.9084 33.2427 24.7034 33.2479 24.5342C33.2633 24.0318 33.2169 23.5295 33.2118 23.0271C33.2118 22.7656 33.2427 22.5042 33.2737 22.2428C33.284 22.1813 33.3613 22.13 33.4541 22.0172C33.5417 22.212 33.6139 22.3453 33.6603 22.4837C34.3718 24.5393 35.0781 26.6001 35.7895 28.6558C35.805 28.7019 35.8205 28.748 35.8462 28.789C36.3515 29.6195 36.4082 30.5063 36.1195 31.4137C35.8256 32.3467 35.4957 33.2745 35.1709 34.1973C35.1296 34.3203 35.0574 34.4279 34.9956 34.5459C34.9698 34.5459 34.944 34.5407 34.9183 34.5356C34.9286 34.3716 34.944 34.2075 34.9543 34.0384C35.0368 32.6901 34.9286 31.3676 34.413 30.1014C34.3924 30.0142 34.3666 29.9271 34.346 29.8399C34.3202 29.845 34.2944 29.8553 34.2687 29.8604C34.2893 29.9424 34.3151 30.0245 34.3357 30.1065C34.4852 31.9468 34.1913 33.7256 33.5675 35.4532C32.6395 38.0061 31.0774 40.0925 28.8554 41.6919C27.0097 43.0196 24.9424 43.7629 22.7049 44.0602C21.978 44.1576 21.2459 44.173 20.5138 44.2243C18.5548 44.214 16.6575 43.8962 14.8428 43.1529C12.0331 42.0046 9.88323 40.1079 8.40361 37.4781C7.22816 35.3917 6.61981 33.1464 6.66106 30.7421C6.66106 30.4705 6.7023 30.1936 6.69199 29.9168C6.06302 31.3881 5.99085 32.9362 6.09396 34.5048C6.06818 34.51 6.04756 34.5202 6.02178 34.5253C5.93414 34.3254 5.84134 34.1306 5.764 33.9256C5.34641 32.8388 4.95459 31.752 4.75869 30.5986C4.68651 30.1885 4.75869 29.8245 4.9082 29.4452C5.56294 27.6971 6.21253 25.9491 6.85181 24.1908C7.0735 23.5859 7.24363 22.9604 7.43954 22.3402C7.47562 22.2325 7.52202 22.13 7.56842 22.0275H7.687C7.7334 22.1864 7.81589 22.3555 7.81589 22.5247C7.81589 23.063 7.79526 23.6012 7.75918 24.1395C7.7334 24.5445 7.81589 24.8777 8.1149 25.1853C8.81605 25.9081 9.52751 26.6309 10.1719 27.3998C10.672 27.9945 11.136 28.6301 11.5175 29.3068C12.1465 30.4192 12.7084 31.5777 13.2755 32.7209C13.3993 32.9721 13.456 33.2643 13.523 33.5411C13.6313 33.982 13.7344 34.4228 13.8014 34.8739C13.8323 35.0944 13.7705 35.3353 13.7653 35.5609C13.7653 35.8018 13.7292 36.0632 13.8014 36.2837C13.8839 36.54 14.0334 36.7912 14.2035 37.0013C14.8841 37.8369 15.5904 38.6571 16.2812 39.4876C16.4874 39.7337 16.7503 39.8105 17.0545 39.79C18.065 39.7337 19.0703 39.6773 20.0808 39.6209C20.2354 39.6106 20.3901 39.6055 20.5499 39.5952L20.5293 39.6209Z" fill="#54B3C3"/>
<path d="M20.5233 27.9641C21.7245 27.9436 22.9257 27.9231 24.127 27.8923C25.1581 27.8667 26.8542 28.9689 27.112 29.9992C27.3543 30.9732 27.5657 31.9523 27.2357 32.9622C27.0965 33.3928 27.014 33.8439 26.8903 34.2797C26.8439 34.4488 26.7614 34.6078 26.6738 34.8179C26.4263 34.7769 26.2046 34.7462 25.9881 34.6949C24.9931 34.4745 24.0084 34.1874 23.0031 34.0439C22.1885 33.926 21.3482 33.967 20.5233 33.9413C18.6622 33.8286 16.8629 34.1566 15.0842 34.6744C14.8677 34.7359 14.646 34.7769 14.3934 34.8333C14.3109 34.6642 14.2284 34.5309 14.1872 34.3925C14.0377 33.8644 13.8933 33.3313 13.7593 32.7982C13.5015 31.7986 13.6149 30.7887 13.9913 29.8762C14.4243 28.8253 15.3369 28.1845 16.4608 27.9795C17.1155 27.8616 17.8012 27.918 18.4714 27.918C19.1571 27.918 19.8428 27.9436 20.5284 27.959L20.5233 27.9641ZM18.1724 30.0197C17.8476 29.6455 17.5743 29.3379 17.3114 29.0201C17.1568 28.8407 16.9918 28.8715 16.832 28.9894C16.5433 29.2047 16.2597 29.4302 15.9916 29.666C15.6307 29.9787 15.4503 30.3632 15.574 30.8502C15.7029 31.3474 16.0689 31.5935 16.5381 31.7114C17.1207 31.8601 17.6878 31.7627 18.2291 31.532C18.4302 31.45 18.6106 31.3167 18.8014 31.2039C18.8014 31.168 18.791 31.1373 18.791 31.1014C18.6261 31.0296 18.4559 30.9578 18.2703 30.8758C18.2239 31.0245 18.1878 31.1219 18.1569 31.2142C17.6001 31.4705 17.0433 31.4756 16.4865 31.3116C16.0844 31.1937 15.8885 30.7989 15.9813 30.3632C16.0689 29.9685 16.3319 29.7839 16.7959 29.8608C17.1464 29.9172 17.4867 30.0505 17.8321 30.1479C17.9095 30.1684 17.9919 30.1735 18.0899 30.1889C18.126 30.1018 18.1569 30.0249 18.1621 30.0095L18.1724 30.0197ZM22.3535 31.1116C22.3689 31.1834 22.3689 31.209 22.3844 31.2244C22.4153 31.2603 22.4514 31.2962 22.4875 31.3218C23.0701 31.6807 23.7094 31.8396 24.3847 31.7524C24.6477 31.7165 24.9209 31.5935 25.1374 31.4397C25.6375 31.0809 25.7355 30.3427 25.3333 29.9223C25.0292 29.6045 24.6838 29.3226 24.3332 29.0457C24.2198 28.9535 24.0445 28.9432 23.9775 28.9176C23.5908 29.3174 23.2712 29.6455 22.9257 30.0044C22.9773 30.0659 23.0392 30.1376 23.0752 30.1787C23.5238 30.0607 23.9156 29.9326 24.3126 29.8557C24.7147 29.7788 25.0292 29.9992 25.1271 30.3837C25.2251 30.763 25.0653 31.1373 24.7147 31.2706C24.1424 31.4859 23.565 31.4807 23.0134 31.2552C22.936 31.1373 22.8742 31.0399 22.7917 30.9117C22.637 30.9835 22.4927 31.0501 22.3535 31.1116Z" fill="#54B3C3"/>
<path d="M6.17093 0.753478C4.98517 3.66008 4.16544 6.61282 4.50055 9.77574C4.53148 9.78599 4.56242 9.79624 4.58819 9.8065C4.79957 9.24261 5.0161 8.67359 5.24294 8.06869C5.87706 8.16609 6.48025 8.24298 7.07829 8.35576C7.90317 8.50955 8.72804 8.67359 9.54777 8.85814C10.3005 9.0273 10.5376 9.28874 10.4861 10.0577C10.419 11.0214 10.2592 11.98 10.1355 12.9745C9.94474 13.0361 9.78492 13.1027 9.61479 13.1437C8.52698 13.4051 7.46495 13.2514 6.41323 12.9489C4.88721 12.5132 3.43337 11.9237 2.17027 10.9445C1.96405 10.7856 1.75783 10.6165 1.57224 10.4268C0.530831 9.34513 0.350389 8.27886 0.948425 6.90502C1.62379 5.35176 2.62911 4.03943 3.8458 2.87576C4.52117 2.22985 5.21201 1.59419 5.89768 0.95853C5.98017 0.881635 6.07297 0.814994 6.16577 0.748352L6.17093 0.753478Z" fill="#54B3C3"/>
<path d="M20.5246 34.5767C21.5196 34.6279 22.5301 34.5869 23.5045 34.751C24.417 34.9047 25.3089 35.238 26.1853 35.5609C26.6751 35.7455 26.7421 36.1197 26.4379 36.54C26.0977 37.0168 25.7316 37.4781 25.3604 37.9292C25.1181 38.2266 24.8397 38.488 24.5923 38.7802C24.3706 39.0468 24.1025 39.1339 23.7674 39.1083C22.9786 39.0468 22.1847 39.0006 21.3959 38.9596C21.1072 38.9443 20.8185 38.9596 20.5298 38.9596C19.6172 38.9955 18.6996 38.9904 17.7922 39.0827C17.1117 39.1544 16.5755 39.0417 16.1528 38.4675C15.6733 37.8216 15.1371 37.2218 14.6577 36.581C14.2659 36.053 14.3741 35.7096 14.9876 35.4738C16.4312 34.915 17.9108 34.5254 19.478 34.5715C19.8286 34.5818 20.174 34.5715 20.5246 34.5664V34.5767Z" fill="#54B3C3"/>
<path d="M9.36719 14.0615C8.87742 14.892 8.32579 15.6455 7.97006 16.476C7.61433 17.2962 7.44936 18.1984 7.18643 19.1006C5.50574 19.0289 3.88176 18.7469 2.35059 17.8652C3.52604 16.5272 4.75304 15.3174 6.39248 14.61C7.32562 14.205 8.28454 13.9539 9.36719 14.0666V14.0615Z" fill="#54B3C3"/>
<path d="M35.7744 8.06362C35.9858 8.62751 36.192 9.18115 36.393 9.73479L36.5013 9.72454C36.5271 9.42721 36.5477 9.12989 36.5735 8.83256C36.7333 6.82819 36.2384 4.91608 35.661 3.02961C35.4547 2.34781 35.1403 1.69165 34.8773 1.02523C34.8464 0.948338 34.8206 0.876569 34.7948 0.799675C34.8155 0.77917 34.8361 0.763791 34.8567 0.743286C35.0836 0.932959 35.3259 1.11238 35.5372 1.31743C36.4085 2.17352 37.3004 3.01423 38.1356 3.9062C39.1151 4.94684 39.8472 6.16177 40.2906 7.52023C40.6205 8.52499 40.3112 9.43747 39.6307 10.2167C39.0584 10.878 38.3367 11.3598 37.5685 11.7699C36.2848 12.4517 34.9392 12.9541 33.5008 13.1899C32.7842 13.3078 32.0676 13.2873 31.351 13.1438C31.052 13.0823 30.8767 12.9438 30.8406 12.6004C30.7529 11.8161 30.5931 11.042 30.521 10.2577C30.49 9.95009 30.5777 9.61689 30.6808 9.31956C30.7375 9.16577 30.9282 9.00686 31.0932 8.95559C32.6089 8.52499 34.1607 8.2738 35.7641 8.0585L35.7744 8.06362Z" fill="#54B3C3"/>
<path d="M31.665 14.0666C32.2476 13.9795 32.7683 14.0256 33.2839 14.1435C34.2582 14.3639 35.145 14.7792 35.9699 15.3379C36.9133 15.9736 37.7021 16.7784 38.4703 17.5986C38.527 17.655 38.5579 17.7319 38.6404 17.8601C37.1505 18.7777 35.5162 18.993 33.8407 19.1006C33.5829 18.2035 33.4179 17.3013 33.0622 16.476C32.7064 15.6506 32.16 14.9022 31.665 14.0666Z" fill="#54B3C3"/>
<path d="M34.3356 30.1221C34.3149 30.0401 34.2892 29.9581 34.2686 29.8761C34.2943 29.871 34.3201 29.8607 34.3459 29.8556C34.3665 29.9427 34.3923 30.0299 34.4129 30.117C34.3871 30.117 34.3613 30.117 34.3356 30.117V30.1221Z" fill="#54B3C3"/>
</svg>
