<svg width="28" height="22" viewBox="0 0 28 22" fill="none" xmlns="http://www.w3.org/2000/svg">
<path d="M6.23883 17.9888C6.66541 18.2124 7.02956 18.4153 7.40932 18.5974C7.78387 18.7795 8.17404 18.9408 8.61102 19.1332C8.22086 19.7731 7.86191 20.3922 7.47695 20.9904C7.11279 21.5522 7.10239 21.5366 6.47293 21.3233C4.26201 20.5794 2.21756 19.5182 0.32917 18.1552C0.188711 18.0564 0.115881 17.9523 0.100275 17.7651C-0.404336 12.1675 1.00545 7.06941 4.10594 2.41347C4.16837 2.31463 4.27761 2.22619 4.38166 2.17937C6.08797 1.39904 7.86711 0.863222 9.70868 0.519879C9.85954 0.493868 9.94277 0.525081 10.0052 0.665539C10.1821 1.03489 10.3798 1.39904 10.5514 1.7736C10.6191 1.91406 10.6815 1.98169 10.848 1.95568C12.3202 1.73719 13.7976 1.68516 15.2802 1.79961C15.7536 1.83603 16.227 1.88805 16.6952 1.95568C16.8825 1.98169 16.9813 1.93487 17.0593 1.75279C17.2102 1.38864 17.4027 1.0453 17.5744 0.686348C17.642 0.54589 17.72 0.493868 17.8865 0.525081C19.7176 0.863222 21.4916 1.40425 23.1875 2.17417C23.3019 2.22619 23.4164 2.31983 23.484 2.42387C25.4973 5.40991 26.8394 8.66647 27.3544 12.2404C27.6249 14.1027 27.6562 15.9755 27.4741 17.8483C27.4637 17.9367 27.396 18.0512 27.3232 18.1032C25.2944 19.5858 23.0834 20.7147 20.68 21.4534C20.5968 21.4794 20.4407 21.4638 20.4095 21.4118C19.9257 20.6731 19.4523 19.924 18.9633 19.1592C19.7801 18.7639 20.5396 18.3997 21.3667 17.9992C21.1378 17.8171 20.9922 17.6766 20.8257 17.5882C20.7581 17.5518 20.6228 17.5986 20.5292 17.635C19.0882 18.2697 17.59 18.7171 16.0241 18.9355C13.4542 19.2945 10.9416 19.0292 8.49137 18.1916C8.04398 18.0408 7.59139 17.8743 7.16482 17.6714C6.8943 17.5414 6.69662 17.5518 6.50414 17.7651C6.44692 17.8275 6.37409 17.8795 6.24924 17.9836L6.23883 17.9888ZM20.8985 12.0167C20.8257 11.6785 20.7893 11.3248 20.68 10.997C20.0818 9.27512 18.079 8.71849 16.7992 9.91499C15.6183 11.0126 15.6131 13.0519 16.7784 14.1652C17.7252 15.0651 19.1194 15.0495 20.035 14.1235C20.6072 13.5461 20.8517 12.8334 20.8985 12.0167ZM11.6959 11.9855C11.6855 11.8814 11.6803 11.7201 11.6543 11.5589C11.6231 11.3768 11.5815 11.1895 11.5242 11.0126C10.9208 9.27513 8.90234 8.71329 7.62781 9.92019C6.46252 11.0231 6.44172 13.0051 7.58099 14.1287C8.52258 15.0599 9.92196 15.0599 10.8584 14.1287C11.4358 13.5513 11.6803 12.8438 11.6959 11.9803V11.9855Z" fill="white"/>
</svg>
