<svg width="29" height="22" viewBox="0 0 29 22" fill="none" xmlns="http://www.w3.org/2000/svg">
<path d="M6.73883 17.92C7.16541 18.1437 7.52956 18.3465 7.90932 18.5286C8.28387 18.7107 8.67404 18.872 9.11102 19.0644C8.72086 19.7043 8.36191 20.3234 7.97695 20.9216C7.61279 21.4834 7.60239 21.4678 6.97293 21.2545C4.76201 20.5106 2.71756 19.4494 0.82917 18.0864C0.688711 17.9876 0.615881 17.8835 0.600275 17.6963C0.0956644 12.0987 1.50545 7.00061 4.60594 2.34467C4.66837 2.24583 4.77761 2.1574 4.88166 2.11058C6.58797 1.33025 8.36711 0.794427 10.2087 0.451084C10.3595 0.425074 10.4428 0.456287 10.5052 0.596745C10.6821 0.966099 10.8798 1.33025 11.0514 1.70481C11.1191 1.84527 11.1815 1.91289 11.348 1.88688C12.8202 1.66839 14.2976 1.61637 15.7802 1.73082C16.2536 1.76723 16.727 1.81925 17.1952 1.88688C17.3825 1.91289 17.4813 1.86607 17.5593 1.684C17.7102 1.31985 17.9027 0.976503 18.0744 0.617554C18.142 0.477095 18.22 0.425074 18.3865 0.456287C20.2176 0.794428 21.9916 1.33545 23.6875 2.10537C23.8019 2.15739 23.9164 2.25103 23.984 2.35508C25.9973 5.34112 27.3394 8.59768 27.8544 12.1716C28.1249 14.0339 28.1562 15.9067 27.9741 17.7795C27.9637 17.8679 27.896 17.9824 27.8232 18.0344C25.7944 19.517 23.5834 20.6459 21.18 21.3846C21.0968 21.4106 20.9407 21.395 20.9095 21.343C20.4257 20.6043 19.9523 19.8552 19.4633 19.0904C20.2801 18.6951 21.0396 18.3309 21.8667 17.9304C21.6378 17.7483 21.4922 17.6078 21.3257 17.5194C21.2581 17.483 21.1228 17.5298 21.0292 17.5662C19.5882 18.2009 18.09 18.6483 16.5241 18.8668C13.9542 19.2257 11.4416 18.9604 8.99137 18.1228C8.54398 17.972 8.09139 17.8055 7.66482 17.6026C7.3943 17.4726 7.19662 17.483 7.00414 17.6963C6.94692 17.7587 6.87409 17.8107 6.74924 17.9148L6.73883 17.92ZM21.3985 11.9479C21.3257 11.6097 21.2893 11.256 21.18 10.9282C20.5818 9.20633 18.579 8.6497 17.2992 9.8462C16.1183 10.9439 16.1131 12.9831 17.2784 14.0964C18.2252 14.9963 19.6194 14.9807 20.535 14.0547C21.1072 13.4773 21.3517 12.7646 21.3985 11.9479ZM12.1959 11.9167C12.1855 11.8126 12.1803 11.6513 12.1543 11.4901C12.1231 11.308 12.0815 11.1207 12.0242 10.9439C11.4208 9.20633 9.40234 8.6445 8.12781 9.8514C6.96252 10.9543 6.94172 12.9363 8.08099 14.06C9.02258 14.9911 10.422 14.9911 11.3584 14.06C11.9358 13.4825 12.1803 12.775 12.1959 11.9115V11.9167Z" fill="white"/>
</svg>
