<svg width="185" height="35" viewBox="0 0 185 35" fill="none" xmlns="http://www.w3.org/2000/svg">
<g clip-path="url(#clip0_1291_9992)">
<path d="M15.3706 6.4076C16.6216 6.3692 17.8765 6.36537 19.1236 6.28474C19.9692 6.23099 20.7955 6.25403 21.6179 6.44983C21.9268 6.52278 22.1121 6.68019 22.1546 7.00269C22.2357 7.62465 22.3245 8.24277 22.4133 8.8609C22.5214 9.5942 22.5214 10.3505 22.9423 11.0071C23.2628 11.5062 23.5832 12.0014 23.9153 12.4929C24.2242 12.9497 24.4172 13.4335 24.4172 13.994C24.4095 15.5029 24.4095 17.0079 24.425 18.5167C24.425 18.8008 24.3246 19.0081 24.1354 19.2078C23.3477 20.0447 22.5175 20.851 21.9114 21.8377C21.5445 22.4328 21.2395 23.0624 20.9075 23.6805C20.8766 23.7381 20.8418 23.7957 20.7723 23.9147C20.7376 23.6652 20.726 23.4809 20.6796 23.3081C20.5986 22.9895 20.5136 22.667 20.3978 22.356C20.2433 21.9452 19.8727 21.7263 19.5367 21.4883C19.2433 21.281 18.9228 21.1159 18.6101 20.9354C18.4363 20.8356 18.363 20.7128 18.3861 20.4978C18.5251 19.3421 18.6448 18.1865 18.7722 17.0309C18.8572 16.2592 19.2201 15.6104 19.7221 15.046C20.17 14.543 20.6565 14.0746 21.1468 13.6139C21.3206 13.4527 21.5638 13.3644 21.7608 13.23C21.9461 13.1033 22.1199 12.9536 22.2743 12.777C21.892 12.8346 21.5291 12.9344 21.2395 13.1686C20.5638 13.7176 19.8958 14.2781 19.2433 14.854C18.8765 15.1804 18.7877 15.2034 18.3861 14.9385C17.9846 14.6774 17.8842 14.2858 17.8649 13.8481C17.8571 13.683 17.8919 13.5026 17.6988 13.3644C17.6718 13.4373 17.6293 13.4988 17.6293 13.5602C17.6255 13.9633 17.6178 14.3664 17.6332 14.7657C17.6332 14.8617 17.7066 14.9654 17.7606 15.0537C17.8378 15.1765 17.9228 15.2917 18.0116 15.403C18.3166 15.7639 18.4479 16.121 18.3205 16.6316C18.1197 17.4532 18.0541 18.3094 17.9112 19.1463C17.8301 19.6109 17.7066 20.0716 17.5946 20.5323C17.5367 20.7703 17.3745 20.8855 17.1235 20.8932C16.5366 20.9086 15.9536 20.9316 15.3667 20.9508C14.7914 20.9316 14.2122 20.9201 13.6369 20.897C13.3242 20.8855 13.1852 20.7972 13.1118 20.4939C12.9844 19.9641 12.8763 19.4266 12.7836 18.8929C12.6369 18.056 12.5056 17.2152 12.3627 16.3782C12.3241 16.1555 12.328 15.9521 12.467 15.7639C12.6369 15.5336 12.8106 15.3032 12.9728 15.0652C13.0307 14.9807 13.1002 14.8771 13.1002 14.7772C13.1118 14.2858 13.1079 13.7982 13.1079 13.3068C13.0809 13.2991 13.0539 13.2876 13.0307 13.2799C12.9767 13.3989 12.9033 13.5141 12.8801 13.6408C12.8338 13.875 12.8299 14.1207 12.7797 14.3549C12.6948 14.7388 12.3782 14.9423 12.0654 15.1151C11.8994 15.2072 11.7643 15.0805 11.6368 14.9692C11.0152 14.424 10.3936 13.8788 9.76032 13.3452C9.39351 13.0342 8.95334 12.8537 8.49001 12.7386C8.47456 12.7539 8.45912 12.7731 8.44367 12.7885C8.57109 12.9152 8.67534 13.0879 8.82979 13.1571C9.65993 13.5333 10.2352 14.209 10.8414 14.8463C11.6639 15.7102 12.0075 16.7545 12.0847 17.9178C12.1388 18.7125 12.2469 19.5034 12.328 20.2981C12.3434 20.4478 12.3473 20.6014 12.355 20.7665C12.2585 20.8279 12.1697 20.8817 12.0809 20.9431C11.6175 21.2503 11.1349 21.5344 10.6947 21.8722C10.521 22.0066 10.3781 22.2293 10.3086 22.4404C10.1773 22.8167 10.1117 23.216 10.019 23.6076C10.0036 23.6767 9.98813 23.7458 9.95724 23.884C9.85299 23.6997 9.76805 23.5807 9.71013 23.4463C9.11937 22.0412 8.1927 20.8702 7.14247 19.7837C6.91852 19.5495 6.68685 19.3229 6.48993 19.0657C6.38568 18.9352 6.29688 18.747 6.29688 18.5858C6.29688 16.9733 6.30846 15.357 6.33549 13.7445C6.34321 13.2761 6.56329 12.8691 6.82585 12.4813C7.12702 12.036 7.41275 11.5791 7.71005 11.1299C8.04211 10.6308 8.17339 10.0741 8.24289 9.4867C8.33942 8.63438 8.47842 7.7859 8.59812 6.93358C8.63673 6.66483 8.80276 6.52662 9.04987 6.46519C9.85299 6.2617 10.66 6.22331 11.4901 6.27322C12.7836 6.35001 14.0848 6.36537 15.3822 6.4076H15.3706ZM19.9036 15.5029C20.3321 15.8753 21.1082 15.7908 21.5638 15.3416C22.0812 14.831 22.2589 14.1015 21.9384 13.7329C21.1816 14.2321 20.4982 14.8156 19.9036 15.5029ZM8.77573 13.7214C8.43981 14.0785 8.68692 14.9231 9.24293 15.4107C9.68696 15.7985 10.4013 15.8484 10.8337 15.5029C10.2314 14.8195 9.54796 14.2321 8.77573 13.7214Z" fill="#54B3C3"/>
<path d="M15.3714 29.9923C15.4603 30.0077 15.5452 30.0307 15.634 30.0346C16.414 30.0729 17.1978 30.1113 17.9777 30.1382C18.2094 30.1459 18.4063 30.0845 18.5685 29.881C19.0009 29.3435 19.4681 28.8329 19.9006 28.2954C20.0898 28.0612 20.2635 27.8001 20.3832 27.5237C20.4527 27.3624 20.4064 27.1474 20.4025 26.9554C20.4025 26.8403 20.3407 26.7212 20.3639 26.6137C20.4875 26.0379 20.5724 25.4428 20.7809 24.8938C21.1477 23.9339 21.6419 23.024 22.1748 22.141C22.6072 21.4192 23.1362 20.7819 23.7231 20.1868C24.0745 19.8297 24.4104 19.4535 24.7386 19.0734C24.8235 18.9736 24.893 18.82 24.8969 18.6933C24.9085 18.3171 24.8737 17.9408 24.8699 17.5646C24.8699 17.3688 24.893 17.173 24.9162 16.9772C24.9239 16.9311 24.9818 16.8927 25.0513 16.8082C25.117 16.9541 25.171 17.0539 25.2058 17.1576C25.7386 18.6972 26.2676 20.2405 26.8004 21.7801C26.812 21.8147 26.8236 21.8492 26.8429 21.8799C27.2213 22.5019 27.2638 23.1661 27.0476 23.8456C26.8275 24.5444 26.5804 25.2393 26.3371 25.9304C26.3062 26.0225 26.2522 26.1031 26.2058 26.1914C26.1865 26.1914 26.1672 26.1876 26.1479 26.1838C26.1556 26.0609 26.1672 25.938 26.1749 25.8113C26.2367 24.8016 26.1556 23.8111 25.7695 22.8628C25.7541 22.7975 25.7348 22.7322 25.7193 22.667C25.7 22.6708 25.6807 22.6785 25.6614 22.6823C25.6768 22.7438 25.6962 22.8052 25.7116 22.8666C25.8236 24.2449 25.6035 25.5771 25.1363 26.871C24.4413 28.7829 23.2714 30.3455 21.6072 31.5434C20.2249 32.5378 18.6766 33.0945 17.0009 33.3171C16.4564 33.3901 15.9081 33.4016 15.3599 33.44C13.8926 33.4323 12.4717 33.1943 11.1126 32.6376C9.00827 31.7776 7.39818 30.357 6.29003 28.3875C5.40968 26.8249 4.95407 25.1433 4.98496 23.3427C4.98496 23.1392 5.01585 22.9319 5.00813 22.7246C4.53707 23.8264 4.48301 24.9859 4.56023 26.1607C4.54093 26.1646 4.52548 26.1722 4.50618 26.1761C4.44054 26.0263 4.37104 25.8804 4.31312 25.7269C4.00037 24.9129 3.70692 24.099 3.5602 23.2352C3.50614 22.928 3.5602 22.6555 3.67217 22.3713C4.16253 21.0622 4.64904 19.753 5.12782 18.4361C5.29385 17.983 5.42127 17.5147 5.56799 17.0501C5.59502 16.9695 5.62977 16.8927 5.66452 16.8159H5.75333C5.78808 16.9349 5.84986 17.0616 5.84986 17.1883C5.84986 17.5914 5.83441 17.9946 5.80738 18.3977C5.78808 18.701 5.84986 18.9505 6.0738 19.1809C6.59892 19.7222 7.13176 20.2636 7.6144 20.8395C7.98893 21.2848 8.33643 21.7609 8.62216 22.2677C9.09322 23.1008 9.51408 23.9685 9.93881 24.8246C10.0315 25.0128 10.074 25.2316 10.1241 25.4389C10.2052 25.7691 10.2825 26.0993 10.3326 26.4371C10.3558 26.6022 10.3095 26.7827 10.3056 26.9516C10.3056 27.1321 10.2786 27.3279 10.3326 27.4929C10.3944 27.6849 10.5064 27.873 10.6338 28.0304C11.1435 28.6562 11.6725 29.2705 12.1899 29.8925C12.3443 30.0768 12.5412 30.1344 12.769 30.119C13.5258 30.0768 14.2787 30.0346 15.0355 29.9923C15.1514 29.9846 15.2672 29.9808 15.3869 29.9731L15.3714 29.9923Z" fill="#54B3C3"/>
<path d="M15.3732 21.262C16.2728 21.2466 17.1725 21.2312 18.0721 21.2082C18.8444 21.189 20.1147 22.0145 20.3077 22.7862C20.4892 23.5156 20.6475 24.2489 20.4004 25.0053C20.2961 25.3278 20.2344 25.6656 20.1417 25.992C20.1069 26.1187 20.0452 26.2377 19.9795 26.3951C19.7942 26.3644 19.6282 26.3413 19.466 26.3029C18.7208 26.1379 17.9833 25.9229 17.2304 25.8154C16.6203 25.727 15.991 25.7578 15.3732 25.7386C13.9793 25.6541 12.6318 25.8998 11.2997 26.2876C11.1375 26.3337 10.9715 26.3644 10.7823 26.4066C10.7205 26.2799 10.6587 26.1801 10.6278 26.0764C10.5159 25.681 10.4077 25.2817 10.3074 24.8824C10.1143 24.1337 10.1992 23.3774 10.4811 22.694C10.8054 21.907 11.4889 21.4271 12.3306 21.2735C12.821 21.1852 13.3345 21.2274 13.8364 21.2274C14.35 21.2274 14.8635 21.2466 15.377 21.2581L15.3732 21.262ZM13.6125 22.8015C13.3692 22.5212 13.1646 22.2909 12.9677 22.0529C12.8519 21.9185 12.7283 21.9415 12.6086 22.0298C12.3924 22.1911 12.18 22.36 11.9792 22.5366C11.709 22.7708 11.5738 23.0587 11.6665 23.4235C11.763 23.7959 12.0372 23.9802 12.3885 24.0685C12.8248 24.1798 13.2496 24.1069 13.655 23.9341C13.8056 23.8727 13.9407 23.7729 14.0836 23.6884C14.0836 23.6615 14.0758 23.6385 14.0758 23.6116C13.9523 23.5579 13.8249 23.5041 13.6859 23.4427C13.6511 23.554 13.6241 23.627 13.6009 23.6961C13.1839 23.888 12.7669 23.8919 12.3499 23.769C12.0487 23.6807 11.902 23.3851 11.9715 23.0587C12.0372 22.7631 12.2341 22.6249 12.5816 22.6825C12.8441 22.7247 13.099 22.8246 13.3577 22.8975C13.4156 22.9129 13.4774 22.9167 13.5507 22.9282C13.5777 22.8629 13.6009 22.8054 13.6048 22.7938L13.6125 22.8015ZM16.7439 23.6193C16.7555 23.673 16.7555 23.6922 16.7671 23.7037C16.7902 23.7306 16.8173 23.7575 16.8443 23.7767C17.2806 24.0454 17.7594 24.1645 18.2652 24.0992C18.4621 24.0723 18.6667 23.9802 18.8289 23.865C19.2034 23.5962 19.2768 23.0434 18.9756 22.7286C18.7478 22.4905 18.4891 22.2794 18.2266 22.0721C18.1416 22.0029 18.0103 21.9953 17.9602 21.9761C17.6706 22.2755 17.4312 22.5212 17.1725 22.79C17.2111 22.8361 17.2574 22.8898 17.2844 22.9205C17.6204 22.8322 17.9138 22.7362 18.2111 22.6787C18.5123 22.6211 18.7478 22.7862 18.8212 23.0741C18.8945 23.3582 18.7749 23.6385 18.5123 23.7383C18.0837 23.8996 17.6513 23.8957 17.2381 23.7268C17.1802 23.6385 17.1339 23.5655 17.0721 23.4696C16.9563 23.5233 16.8481 23.5732 16.7439 23.6193Z" fill="#54B3C3"/>
<path d="M4.61913 0.882868C3.73106 3.05974 3.11714 5.27117 3.36811 7.64C3.39128 7.64768 3.41445 7.65536 3.43375 7.66304C3.59206 7.24072 3.75423 6.81456 3.92412 6.36152C4.39904 6.43447 4.85079 6.49206 5.29869 6.57652C5.91647 6.6917 6.53426 6.81456 7.14818 6.95277C7.7119 7.07947 7.88952 7.27527 7.85091 7.85116C7.80071 8.57295 7.68102 9.29089 7.58835 10.0357C7.44549 10.0818 7.32579 10.1317 7.19837 10.1624C6.38367 10.3582 5.58827 10.243 4.8006 10.0165C3.6577 9.69018 2.56886 9.24866 1.62288 8.51536C1.46843 8.39634 1.31398 8.26965 1.17498 8.12759C0.395031 7.3175 0.259891 6.51893 0.707784 5.49001C1.21359 4.3267 1.96652 3.34385 2.87775 2.47233C3.38356 1.98858 3.90095 1.51251 4.41448 1.03644C4.47626 0.97885 4.54576 0.928939 4.61526 0.879028L4.61913 0.882868Z" fill="#54B3C3"/>
<path d="M15.3709 26.2145C16.1161 26.2529 16.8729 26.2221 17.6026 26.345C18.286 26.4602 18.954 26.7097 19.6104 26.9516C19.9772 27.0898 20.0274 27.3701 19.7996 27.6849C19.5448 28.042 19.2706 28.3875 18.9926 28.7254C18.8112 28.948 18.6027 29.1438 18.4173 29.3627C18.2513 29.5623 18.0505 29.6276 17.7995 29.6084C17.2088 29.5623 16.6142 29.5278 16.0234 29.4971C15.8072 29.4855 15.591 29.4971 15.3747 29.4971C14.6913 29.5239 14.004 29.5201 13.3245 29.5892C12.8148 29.6429 12.4132 29.5585 12.0966 29.1285C11.7375 28.6447 11.336 28.1955 10.9769 27.7156C10.6834 27.3202 10.7645 27.0629 11.224 26.8863C12.3051 26.4679 13.4133 26.1761 14.5871 26.2106C14.8496 26.2183 15.1083 26.2106 15.3709 26.2068V26.2145Z" fill="#54B3C3"/>
<path d="M7.01283 10.8498C6.64602 11.4718 6.23288 12.0361 5.96646 12.6581C5.70004 13.2724 5.57649 13.9481 5.37957 14.6238C4.12083 14.5701 2.90457 14.3589 1.75781 13.6985C2.63815 12.6965 3.55711 11.7904 4.78495 11.2606C5.48382 10.9573 6.20199 10.7692 7.01283 10.8536V10.8498Z" fill="#54B3C3"/>
<path d="M26.7908 6.35774C26.9491 6.78006 27.1035 7.1947 27.2541 7.60934L27.3352 7.60166C27.3545 7.37899 27.37 7.15631 27.3893 6.93363C27.509 5.43247 27.1383 4.00042 26.7058 2.58756C26.5514 2.07694 26.3159 1.58551 26.119 1.0864C26.0958 1.02882 26.0765 0.975065 26.0572 0.917476C26.0726 0.902119 26.0881 0.890601 26.1035 0.875244C26.2734 1.0173 26.4549 1.15167 26.6132 1.30524C27.2657 1.9464 27.9337 2.57605 28.5592 3.24408C29.2928 4.02345 29.8411 4.93336 30.1732 5.95077C30.4203 6.70327 30.1886 7.38667 29.6789 7.97024C29.2503 8.4655 28.7098 8.8264 28.1345 9.13354C27.173 9.64416 26.1653 10.0204 25.088 10.197C24.5513 10.2853 24.0146 10.27 23.4779 10.1625C23.254 10.1164 23.1227 10.0127 23.0957 9.7555C23.03 9.16809 22.9103 8.58836 22.8563 8.00095C22.8331 7.77059 22.8988 7.52104 22.976 7.29836C23.0185 7.18318 23.1613 7.06417 23.2849 7.02577C24.42 6.70327 25.5823 6.51515 26.7831 6.3539L26.7908 6.35774Z" fill="#54B3C3"/>
<path d="M23.7109 10.8537C24.1472 10.7884 24.5372 10.8229 24.9233 10.9112C25.6531 11.0763 26.3172 11.3873 26.935 11.8058C27.6416 12.2819 28.2323 12.8846 28.8077 13.4989C28.8501 13.5412 28.8733 13.5987 28.9351 13.6947C27.8192 14.382 26.5952 14.5432 25.3403 14.6238C25.1473 13.952 25.0237 13.2762 24.7573 12.6581C24.4909 12.04 24.0816 11.4795 23.7109 10.8537Z" fill="#54B3C3"/>
<path d="M25.7182 22.8783C25.7027 22.8169 25.6834 22.7555 25.668 22.6941C25.6873 22.6902 25.7066 22.6825 25.7259 22.6787C25.7413 22.744 25.7606 22.8092 25.7761 22.8745C25.7568 22.8745 25.7375 22.8745 25.7182 22.8745V22.8783Z" fill="#54B3C3"/>
</g>
<path d="M45.5642 11.1059V13.4893H40.5887V16.064H44.3116V18.3779H40.5887V23.3186H37.6138V11.1059H45.5642ZM50.1027 11.1059V23.3186H47.1278V11.1059H50.1027ZM63.1838 23.3186H60.209L55.2334 15.7857V23.3186H52.2585V11.1059H55.2334L60.209 18.6736V11.1059H63.1838V23.3186ZM72.9428 21.1614H68.3847L67.6541 23.3186H64.54L68.9588 11.1059H72.4035L76.8223 23.3186H73.6734L72.9428 21.1614ZM72.1773 18.865L70.6638 14.3939L69.1676 18.865H72.1773ZM89.0925 23.3186H86.1176L81.1421 15.7857V23.3186H78.1672V11.1059H81.1421L86.1176 18.6736V11.1059H89.0925V23.3186ZM90.7444 17.1949C90.7444 15.9887 91.0053 14.9158 91.5273 13.9764C92.0492 13.0254 92.774 12.2889 93.7019 11.767C94.6413 11.2335 95.7025 10.9667 96.8855 10.9667C98.3353 10.9667 99.5763 11.3495 100.608 12.1149C101.641 12.8804 102.331 13.9242 102.679 15.2464H99.4081C99.1645 14.7361 98.8166 14.3475 98.3643 14.0808C97.9236 13.814 97.419 13.6807 96.8507 13.6807C95.9345 13.6807 95.1922 13.9996 94.6239 14.6375C94.0556 15.2754 93.7715 16.1278 93.7715 17.1949C93.7715 18.2619 94.0556 19.1143 94.6239 19.7522C95.1922 20.3901 95.9345 20.7091 96.8507 20.7091C97.419 20.7091 97.9236 20.5757 98.3643 20.3089C98.8166 20.0422 99.1645 19.6536 99.4081 19.1433H102.679C102.331 20.4655 101.641 21.5093 100.608 22.2748C99.5763 23.0287 98.3353 23.4056 96.8855 23.4056C95.7025 23.4056 94.6413 23.1446 93.7019 22.6227C92.774 22.0892 92.0492 21.3527 91.5273 20.4133C91.0053 19.4739 90.7444 18.401 90.7444 17.1949ZM107.475 11.1059V23.3186H104.501V11.1059H107.475ZM117.234 21.1614H112.676L111.945 23.3186H108.831L113.25 11.1059H116.694L121.113 23.3186H117.964L117.234 21.1614ZM116.468 18.865L114.955 14.3939L113.459 18.865H116.468ZM125.433 21.0222H129.33V23.3186H122.458V11.1059H125.433V21.0222Z" fill="#73B3C2"/>
<path d="M142.214 11.1059L137.882 23.3186H134.159L129.827 11.1059H132.993L136.02 20.3263L139.065 11.1059H142.214ZM146.432 13.4893V15.9597H150.416V18.2561H146.432V20.9352H150.938V23.3186H143.457V11.1059H150.938V13.4893H146.432ZM159.097 23.3186L156.557 18.7084H155.844V23.3186H152.869V11.1059H157.862C158.825 11.1059 159.642 11.2741 160.315 11.6104C160.999 11.9468 161.51 12.4107 161.846 13.0022C162.182 13.5821 162.35 14.2316 162.35 14.9506C162.35 15.7625 162.118 16.4874 161.654 17.1253C161.202 17.7632 160.529 18.2155 159.636 18.4822L162.455 23.3186H159.097ZM155.844 16.6034H157.688C158.233 16.6034 158.639 16.47 158.906 16.2032C159.184 15.9365 159.323 15.5595 159.323 15.0724C159.323 14.6085 159.184 14.2432 158.906 13.9764C158.639 13.7097 158.233 13.5763 157.688 13.5763H155.844V16.6034ZM168.637 23.4404C167.744 23.4404 166.943 23.2954 166.236 23.0055C165.528 22.7155 164.96 22.2864 164.531 21.7181C164.113 21.1498 163.893 20.4655 163.87 19.6652H167.036C167.083 20.1176 167.239 20.4655 167.506 20.7091C167.773 20.941 168.121 21.057 168.55 21.057C168.99 21.057 169.338 20.9584 169.594 20.7612C169.849 20.5525 169.976 20.2683 169.976 19.9088C169.976 19.6072 169.872 19.3579 169.663 19.1607C169.466 18.9636 169.217 18.8012 168.915 18.6736C168.625 18.546 168.208 18.401 167.662 18.2387C166.874 17.9951 166.23 17.7516 165.731 17.508C165.233 17.2644 164.804 16.9049 164.444 16.4294C164.084 15.9539 163.905 15.3334 163.905 14.5679C163.905 13.4313 164.316 12.5441 165.14 11.9062C165.963 11.2567 167.036 10.9319 168.358 10.9319C169.704 10.9319 170.788 11.2567 171.612 11.9062C172.435 12.5441 172.876 13.4371 172.934 14.5853H169.715C169.692 14.191 169.547 13.8836 169.28 13.6633C169.014 13.4313 168.671 13.3153 168.254 13.3153C167.894 13.3153 167.604 13.4139 167.384 13.6111C167.164 13.7966 167.054 14.0692 167.054 14.4287C167.054 14.8231 167.239 15.1304 167.61 15.3508C167.981 15.5711 168.561 15.8089 169.35 16.064C170.139 16.3308 170.777 16.586 171.264 16.8295C171.762 17.0731 172.191 17.4268 172.551 17.8907C172.911 18.3547 173.09 18.952 173.09 19.6826C173.09 20.3785 172.911 21.0106 172.551 21.5789C172.203 22.1472 171.693 22.5995 171.02 22.9359C170.347 23.2722 169.553 23.4404 168.637 23.4404ZM177.896 13.4893V15.9597H181.88V18.2561H177.896V20.9352H182.402V23.3186H174.921V11.1059H182.402V13.4893H177.896Z" fill="#B4DCE3"/>
<defs>
<clipPath id="clip0_1291_9992">
<rect width="30.7347" height="33.97" fill="white" transform="translate(0 0.318604)"/>
</clipPath>
</defs>
</svg>
