<svg width="29" height="26" viewBox="0 0 29 26" fill="none" xmlns="http://www.w3.org/2000/svg">
<path d="M1.72505 22.1359C1.62621 21.985 1.56378 21.8133 1.43893 21.6781C1.42332 21.6521 1.41292 21.626 1.39731 21.6L1.3869 21.5896C1.25685 21.3243 1.1216 21.0538 0.991542 20.7885C0.960329 20.6324 0.897904 20.492 0.830276 20.3463C0.814669 20.2943 0.804264 20.2423 0.788657 20.1903C0.762647 20.1486 0.77825 20.0966 0.736633 20.0654C0.736633 20.0446 0.731436 20.0238 0.726234 20.003C0.684617 19.8573 0.648196 19.7065 0.606578 19.5608C0.590972 19.4932 0.575367 19.4307 0.559761 19.3631C0.554559 19.3319 0.544158 19.3059 0.538956 19.2747C0.54936 19.2279 0.528547 19.1862 0.502537 19.1498C0.502537 19.0978 0.502537 19.0458 0.502537 18.9938C0.502537 18.9729 0.497332 18.9521 0.49213 18.9261C0.486928 18.9157 0.481726 18.9053 0.476524 18.9001C0.486929 18.8481 0.492132 18.7961 0.502537 18.7388C0.512941 18.692 0.481728 18.666 0.445312 18.64C0.445312 18.5776 0.445312 18.5152 0.445312 18.4527C0.445312 18.2498 0.445312 18.0418 0.445312 17.8389C0.445312 17.6048 0.481727 17.5684 0.721027 17.5684C2.73427 17.5684 4.7475 17.5684 6.76074 17.5684C6.92201 17.5684 7.08848 17.5684 7.24975 17.5788C7.3798 17.584 7.44743 17.6516 7.44222 17.7921C7.43182 18.0157 7.45783 18.2342 7.50986 18.4475C7.53066 18.5568 7.53066 18.6712 7.60349 18.7649C7.60349 18.8741 7.66072 18.9625 7.71274 19.0562C7.82719 19.3111 7.98845 19.5296 8.19134 19.7221C8.23296 19.7637 8.26937 19.8209 8.34221 19.8261C8.51388 20.003 8.72196 20.1174 8.95606 20.1903C8.97687 20.2007 9.00288 20.2059 9.02369 20.2163C9.24738 20.3047 9.47627 20.3723 9.72078 20.3775C10.782 20.3775 11.8485 20.3775 12.9097 20.3827C13.0502 20.3827 13.0866 20.3411 13.0814 20.2007C13.071 19.8469 13.097 19.4984 13.071 19.1446C13.071 18.8273 13.071 18.5048 13.0762 18.1874C13.0762 18.1354 13.071 18.0938 13.0033 18.0886C13.0398 18.0261 13.097 17.9637 13.0658 17.8805C13.0658 17.8337 13.0398 17.8233 12.9981 17.8233C12.9565 17.8233 12.9149 17.8233 12.8733 17.8233C11.9057 17.8233 10.9329 17.8233 9.96528 17.8233C9.87164 17.8129 9.7728 17.8077 9.68956 17.7504C9.60113 17.6516 9.62714 17.5528 9.68956 17.4539C9.94967 17.0585 10.2306 16.684 10.4595 16.2678C10.5115 16.195 10.5739 16.1274 10.5947 16.0337C10.6832 15.9245 10.7404 15.7996 10.7976 15.6748C10.8132 15.6436 10.8288 15.6071 10.8444 15.5759L11.0057 15.3262C11.1098 15.1442 11.2398 14.9725 11.2554 14.754C11.3022 14.7644 11.3178 14.7384 11.323 14.6968C11.4427 14.5147 11.5155 14.3118 11.6092 14.1141C11.6508 14.0725 11.682 14.0257 11.6976 13.9633C11.7184 13.932 11.7444 13.9008 11.7652 13.8696C11.8224 13.8176 11.7756 13.7344 11.8172 13.6771C11.8745 13.5575 11.9421 13.4378 11.9525 13.2974C11.9577 13.287 11.9681 13.2766 11.9733 13.2662C11.9993 13.1465 12.0826 13.0425 12.0774 12.9176C12.119 12.8396 12.1398 12.7564 12.1398 12.6679C12.1918 12.5899 12.2022 12.5067 12.2022 12.413C12.2542 12.3662 12.2282 12.309 12.2334 12.2569C12.2334 12.2569 12.2594 12.2205 12.2542 12.1945C12.2542 12.1425 12.2594 12.0905 12.2646 12.0333C12.3375 11.794 12.3323 11.5495 12.3271 11.305C12.3271 11.2217 12.3271 11.1385 12.3271 11.05C12.3531 10.7847 12.3219 10.5194 12.2854 10.2593L12.2594 10.1345C12.2594 10.0772 12.2594 10.0252 12.2542 9.968C12.2334 9.83274 12.2178 9.69748 12.197 9.56223C12.197 9.55182 12.197 9.54142 12.197 9.53101C12.1866 9.45818 12.171 9.38535 12.1606 9.30732C12.145 9.23449 12.1346 9.16166 12.119 9.08363C12.1398 9.0108 12.0878 8.95358 12.067 8.89635C12.067 8.84953 12.0774 8.80791 12.0409 8.7715C12.0357 8.71948 12.0617 8.65705 12.0097 8.61543C11.9889 8.51139 12.0201 8.39174 11.9473 8.2981C11.9473 8.16284 11.9005 8.03799 11.8485 7.91834C11.8433 7.90274 11.8381 7.88713 11.8329 7.87673H11.8381C11.8121 7.79869 11.786 7.71546 11.76 7.63743C11.76 7.62702 11.76 7.61662 11.76 7.60621C11.7652 7.60101 11.7756 7.59581 11.7808 7.59061C11.7704 7.59061 11.7652 7.5854 11.7548 7.5802C11.63 7.25767 11.5727 6.91432 11.4375 6.59179C11.4375 6.53977 11.4167 6.49815 11.3907 6.46174C11.3751 6.40971 11.3543 6.35769 11.3387 6.31087C11.3178 6.25885 11.297 6.20683 11.2762 6.15481C11.2086 5.97273 11.1462 5.79066 11.0785 5.60858C11.0577 5.55656 11.0369 5.50454 11.0161 5.45252C10.9953 5.40049 10.9745 5.34847 10.9537 5.29125C10.9173 5.20801 10.9017 5.11438 10.8392 5.04154C10.8444 4.99473 10.8236 4.95311 10.7976 4.91669C10.7664 4.86467 10.7872 4.78664 10.7144 4.75543C10.6988 4.65138 10.6416 4.56295 10.6051 4.46931C10.5219 4.27683 10.4699 4.06874 10.3346 3.89707C10.3346 3.88666 10.3346 3.87626 10.3294 3.86586C10.267 3.79303 10.3554 3.64736 10.2098 3.61095C10.2098 3.60055 10.2046 3.59014 10.1994 3.57974C10.1994 3.55373 10.1942 3.53292 10.1734 3.51731L10.163 3.4861C10.1474 3.45488 10.1265 3.42367 10.1109 3.39246C10.0329 3.17917 9.92366 2.98149 9.80921 2.78901C9.72078 2.61213 9.63234 2.43526 9.5387 2.25839C9.5387 2.23758 9.5387 2.21677 9.5387 2.19596C9.56471 2.17515 9.58552 2.15434 9.61153 2.13353C9.66355 2.15434 9.70517 2.19596 9.76759 2.19596C9.7832 2.22197 9.80922 2.22197 9.83003 2.21677C9.91326 2.16475 9.98088 2.21677 10.0537 2.24798C10.2514 2.36243 10.4803 2.37804 10.6936 2.44566C10.9121 2.51329 11.1514 2.51849 11.3543 2.59653C11.6092 2.69017 11.8641 2.7786 12.1346 2.81502C12.2542 2.87744 12.3895 2.89305 12.5195 2.92426C12.5195 2.93987 12.5299 2.95548 12.5508 2.95027C12.6704 2.97629 12.7953 2.99709 12.9149 3.0231C13.0866 3.07513 13.0866 3.06992 13.0606 2.90866C13.0554 2.87224 13.1022 2.83062 13.0606 2.79421C13.0762 2.72138 13.0762 2.64855 13.0606 2.57052C13.0762 2.32601 13.0814 2.08672 13.0606 1.84221C13.0658 1.68615 13.071 1.53008 13.0814 1.37402C13.1022 1.27518 13.123 1.18154 13.149 1.0827C13.1646 1.05148 13.175 1.02027 13.1906 0.989058C13.3155 0.770567 13.4871 0.593694 13.6952 0.453235C13.716 0.442831 13.7368 0.427224 13.7577 0.41682C13.8201 0.385607 13.8877 0.354394 13.9501 0.323181C14.1738 0.29717 14.3923 0.265957 14.616 0.312777C14.975 0.385607 15.2299 0.598896 15.4276 0.895419C15.4276 0.942239 15.4588 0.973452 15.49 0.999462C15.6564 1.38442 15.6044 1.79019 15.6252 2.19076C15.6252 2.41445 15.6252 2.63814 15.6252 2.86184V3.29882C15.6252 3.33003 15.6252 3.36125 15.6252 3.39246C15.6252 3.4965 15.6252 3.60575 15.6252 3.70979C15.6252 3.741 15.6252 3.76701 15.6512 3.78262L15.8125 3.83464C15.8125 3.83464 15.8229 3.86586 15.8437 3.86065C15.8958 3.87626 15.9426 3.88666 15.9946 3.90227C16.0518 3.94389 16.1038 3.98551 16.1611 4.02712L16.2495 4.09475C16.3015 4.13637 16.3587 4.17799 16.4108 4.22481C16.4524 4.26642 16.4992 4.30804 16.5408 4.34446C16.5408 4.36006 16.5512 4.37047 16.5668 4.36526C16.7177 4.48491 16.8738 4.59416 17.009 4.72941C17.0922 4.80745 17.1755 4.88548 17.2535 4.96351C17.3576 5.10397 17.5188 5.1768 17.6437 5.29125C17.6697 5.34847 17.7165 5.38489 17.7685 5.4213C17.8206 5.49413 17.883 5.55656 17.9558 5.60858C18.0338 5.68661 18.1119 5.75944 18.1899 5.84268C18.3772 6.04036 18.5645 6.23804 18.7517 6.43573C18.7986 6.49295 18.8298 6.56058 18.9026 6.59179C18.9442 6.64381 18.9442 6.73745 19.0327 6.75306C19.1627 6.89872 19.2928 7.04438 19.4228 7.19004C19.506 7.29408 19.5841 7.40333 19.6673 7.50737C19.7037 7.5802 19.7558 7.64263 19.813 7.69985C19.8754 7.78309 19.8962 7.88713 19.9899 7.94956C19.9795 8.03279 20.0731 8.0484 20.0939 8.11082C20.0991 8.12123 20.1095 8.13163 20.1147 8.14204C20.1303 8.16284 20.1459 8.18365 20.1615 8.20446C20.25 8.32411 20.3436 8.44376 20.432 8.55821C20.4685 8.62064 20.5049 8.67786 20.5361 8.74028C20.5517 8.76109 20.5621 8.78711 20.5777 8.80791C20.713 9.05762 20.8534 9.30212 20.9679 9.56223C21.0095 9.66627 21.0459 9.77552 21.0875 9.87956C21.1291 10.0148 21.1759 10.1553 21.2176 10.2905V10.3009L21.228 10.3113C21.28 10.4518 21.3268 10.5923 21.3788 10.7327C21.3788 10.7743 21.384 10.8212 21.4152 10.8576C21.4309 10.9512 21.4413 11.0448 21.4569 11.1437C21.4569 11.2009 21.4517 11.2529 21.4777 11.305L21.4881 11.9344C21.4881 11.976 21.4881 12.0177 21.4881 12.0593C21.4517 12.1841 21.4517 12.309 21.4465 12.439C21.4152 12.5743 21.3788 12.7095 21.3476 12.85C21.332 12.8916 21.3216 12.9332 21.306 12.9748C21.254 13.1153 21.202 13.2558 21.1499 13.391C21.1239 13.4274 21.1239 13.4639 21.1291 13.5055C21.0667 13.6667 20.9887 13.8176 20.9106 13.9633C20.7546 14.2598 20.5725 14.5407 20.38 14.8164C19.8858 15.5343 19.3448 16.2106 18.7413 16.8401C18.4396 17.1574 18.1015 17.4331 17.8049 17.7556C17.7269 17.8077 17.6437 17.8181 17.5552 17.8233C16.9778 17.8233 16.3952 17.8285 15.8177 17.8337C15.7865 17.8337 15.7553 17.8337 15.7189 17.8337C15.6929 17.8285 15.6669 17.8233 15.6565 17.8545C15.6408 17.8545 15.6252 17.8649 15.6304 17.8857C15.6304 18.0314 15.6304 18.1822 15.6304 18.3279C15.6304 18.4839 15.6304 18.6452 15.6304 18.8013C15.6304 19.2903 15.6304 19.7793 15.62 20.2683C15.62 20.3567 15.6565 20.3827 15.7397 20.3827C16.5252 20.3827 17.3055 20.3827 18.0911 20.3775C18.1639 20.3775 18.2367 20.3775 18.3148 20.3775C18.4032 20.3879 18.4864 20.3619 18.5697 20.3463C18.5905 20.3463 18.6113 20.3463 18.6217 20.3255C18.7101 20.3099 18.809 20.3255 18.8818 20.2579C19.1991 20.1955 19.4436 20.0082 19.6829 19.8053C19.8078 19.7117 19.9118 19.592 20.0159 19.4776C20.3904 19.103 20.7702 18.7284 21.1447 18.3539C21.1916 18.3123 21.2228 18.2394 21.2852 18.2342C21.4569 18.2186 21.6181 18.1458 21.7794 18.099C22.3985 17.9273 23.0175 17.7556 23.6262 17.5476C23.7354 17.5788 23.8186 17.5059 23.9123 17.4799C24.1152 17.4175 24.3129 17.3551 24.5157 17.2978C24.6094 17.3291 24.6822 17.2614 24.7654 17.2406C25.0047 17.1626 25.2544 17.1054 25.4989 17.0325C26.0608 16.8609 26.6382 16.7256 27.2001 16.5435C27.5382 16.4343 27.8815 16.3667 28.2145 16.2418C28.3185 16.2002 28.433 16.2418 28.4902 16.3615L28.5006 16.4239C28.4902 16.9077 28.485 17.3915 28.5006 17.8805C28.5006 17.8961 28.5006 17.9117 28.4954 17.9273C28.4486 18.0262 28.3601 18.073 28.2717 18.1146C27.9492 18.2602 27.6422 18.4423 27.3301 18.6088C26.8463 18.8689 26.3833 19.1706 25.9932 19.5608C25.6342 19.9197 25.3793 20.3619 25.1088 20.7833C24.7706 21.3087 24.4533 21.8445 24.1048 22.3648C23.7822 22.8382 23.4649 23.3168 23.1112 23.7693C22.7834 24.1855 22.3568 24.5028 21.9563 24.841C21.9459 24.841 21.9355 24.8462 21.9251 24.8514C21.8522 24.8514 21.8314 24.9242 21.7794 24.9554C21.4256 25.1687 21.0667 25.3352 20.6557 25.4288C20.3488 25.4965 20.0523 25.5433 19.7454 25.5485C15.8749 25.5485 12.0045 25.5485 8.12891 25.5485C7.87921 25.5485 7.62431 25.5641 7.3746 25.5225C7.23414 25.5069 7.08848 25.4913 6.94802 25.4757C6.82317 25.434 6.69311 25.4028 6.55786 25.4132C6.4278 25.356 6.28735 25.3352 6.14689 25.3196C6.01684 25.2468 5.86597 25.2207 5.72552 25.1791C5.22611 25.0439 4.76832 24.8046 4.31053 24.5705C4.2585 24.5393 4.21168 24.5133 4.15966 24.482C3.97758 24.3572 3.80071 24.2323 3.61864 24.1023C3.47298 23.9878 3.33252 23.8786 3.18686 23.7641C3.15044 23.7329 3.11402 23.7017 3.07761 23.6705C2.98917 23.5404 2.84871 23.4728 2.74467 23.3636C2.5834 23.1919 2.42214 23.0202 2.26087 22.8486C2.24006 22.8017 2.21405 22.7653 2.16203 22.7445C2.13602 22.7081 2.11001 22.6665 2.084 22.6301C2.06839 22.6145 2.05799 22.5989 2.04238 22.578C1.95915 22.4688 1.88111 22.3544 1.79788 22.2451C1.77187 22.2087 1.74585 22.1723 1.71984 22.1359H1.72505Z" fill="white"/>
<path d="M8.9338 6.36287C8.9338 6.36287 8.95461 6.40448 8.96501 6.43049C8.99623 6.51373 9.02744 6.60217 9.05865 6.6854C9.05865 6.69581 9.06905 6.70621 9.07425 6.71661C9.07946 6.72702 9.08466 6.73742 9.09507 6.74262C9.10547 6.77384 9.07946 6.81546 9.12628 6.83626C9.13668 6.87788 9.15229 6.9195 9.16269 6.96632C9.16269 6.98713 9.16789 6.99233 9.1887 6.99753C9.1887 7.01834 9.18871 7.03915 9.19391 7.05996C9.18871 7.08077 9.19911 7.08597 9.21991 7.09117C9.21991 7.09117 9.22512 7.13279 9.23032 7.1536C9.24593 7.17961 9.26153 7.20042 9.27714 7.22643C9.27194 7.24723 9.26674 7.26284 9.28754 7.27845C9.29275 7.29405 9.29795 7.30446 9.30315 7.32007C9.30315 7.34087 9.29795 7.36168 9.31876 7.37209C9.32396 7.4085 9.31876 7.44492 9.34997 7.47093C9.35517 7.49174 9.36558 7.51255 9.37078 7.53856C9.4072 7.6322 9.40199 7.73624 9.46442 7.81947C9.49563 7.91311 9.48523 8.01716 9.54765 8.10039C9.55286 8.16802 9.56846 8.23565 9.60488 8.29287C9.58927 8.3605 9.59967 8.42292 9.63609 8.48535C9.62568 8.50616 9.63609 8.51136 9.6569 8.51656C9.6569 8.52697 9.66731 8.53737 9.67251 8.54257C9.67251 8.56338 9.67251 8.58939 9.67251 8.6102C9.6621 8.63101 9.6725 8.63621 9.69331 8.64142C9.71932 8.67783 9.67771 8.73505 9.72452 8.76627C9.74533 8.8495 9.74014 8.94314 9.78696 9.02117C9.78696 9.22926 9.8962 9.41654 9.891 9.61942C9.891 9.64023 9.8962 9.64543 9.91701 9.65064C9.94822 9.72347 9.891 9.8067 9.95863 9.87433C9.95863 9.88473 9.95863 9.89514 9.95863 9.90034C9.95863 9.92635 9.96383 9.95236 9.96903 9.97837C9.95862 9.97837 9.95863 9.98878 9.95863 9.99918V10.0304C9.94822 10.0668 9.93261 10.1032 9.97943 10.124C9.97943 10.1865 9.97943 10.2489 9.98463 10.3113C10.021 10.4362 10.0263 10.5662 10.0211 10.6963C10.0054 11.076 9.98984 11.4506 9.97423 11.8303C9.94822 11.8824 9.94822 11.9344 9.94822 11.9864C9.91181 12.1061 9.84418 12.2101 9.83897 12.335L9.82337 12.3662C9.77135 12.4546 9.74013 12.5482 9.72452 12.6471C9.67771 12.6731 9.70892 12.7355 9.67771 12.7667C9.6517 12.8344 9.58927 12.8812 9.59968 12.9644C9.54245 13.0424 9.51124 13.1309 9.47482 13.2193C9.34997 13.4638 9.22512 13.7083 9.10027 13.9528C8.92339 14.2962 8.73612 14.6343 8.52803 14.9568C8.48642 14.962 8.4396 14.9672 8.39798 14.9777C8.38757 14.9725 8.38237 14.9777 8.37717 14.9777C8.24711 14.9777 8.11186 14.9672 7.9818 14.9672C6.12983 14.9672 4.27266 14.9672 2.42069 14.9672C2.35826 14.9672 2.29583 14.9673 2.23341 14.962C2.223 14.9568 2.2126 14.9516 2.2022 14.9568C2.15017 14.9256 2.12417 14.8736 2.09815 14.8268C2.09295 14.7436 2.12936 14.6759 2.16578 14.6031C2.2126 14.5615 2.25421 14.5147 2.26982 14.4522C2.47791 14.1141 2.71721 13.7968 2.90448 13.443C2.91489 13.4274 2.92009 13.417 2.9305 13.4014C2.9409 13.391 2.9461 13.3806 2.95651 13.3702C2.96171 13.3598 2.96691 13.3494 2.97211 13.3442C3.03454 13.2505 3.09177 13.1569 3.15419 13.0633C3.1646 13.0476 3.175 13.0372 3.1802 13.0216C3.1906 13.0112 3.20101 13.0008 3.21142 12.9904C3.22182 12.98 3.23223 12.9696 3.24263 12.9592C3.4091 12.6315 3.63279 12.3402 3.82007 12.0228C3.87729 11.9292 3.95532 11.8512 3.97093 11.7367C4.02815 11.7263 4.04376 11.6795 4.05937 11.6327C4.06977 11.6223 4.07497 11.6119 4.08538 11.6014C4.09058 11.591 4.09578 11.5806 4.10098 11.5702C4.3767 11.1385 4.66802 10.7171 4.92293 10.2749C4.95414 10.2541 4.97495 10.2229 4.98015 10.1865C5.25066 9.77029 5.52638 9.34891 5.79169 8.93274C5.88012 8.79228 5.96336 8.64662 6.0518 8.50096C6.0622 8.49055 6.0726 8.48015 6.08301 8.46974C6.08821 8.45934 6.09862 8.44894 6.10382 8.43853C6.10382 8.42813 6.11423 8.41772 6.11423 8.40732C6.22868 8.35009 6.23907 8.22524 6.3015 8.1316C6.51479 7.80387 6.71768 7.47093 6.92576 7.14319C6.94657 7.10157 6.99339 7.07036 6.99859 7.01834C7.15986 6.84667 7.2587 6.63858 7.37835 6.4409C7.52401 6.1964 7.71129 5.98311 7.82054 5.7178C7.83094 5.70739 7.84135 5.69699 7.85175 5.68138C7.85695 5.67098 7.86735 5.66057 7.87255 5.65017C7.87255 5.63977 7.87776 5.62936 7.88296 5.61896C7.96099 5.53572 8.02862 5.44208 8.07024 5.33284C8.08064 5.32243 8.09105 5.30683 8.10145 5.29642C8.10665 5.28602 8.11705 5.28082 8.12226 5.27041C8.17428 5.20278 8.23671 5.16117 8.32515 5.17157C8.39278 5.22359 8.4604 5.28602 8.49161 5.36925C8.51242 5.40047 8.53323 5.42648 8.54884 5.45769C8.55924 5.50451 8.57485 5.55133 8.61126 5.58254C8.63207 5.63456 8.65288 5.69179 8.67889 5.74381C8.68409 5.75421 8.6945 5.76462 8.6997 5.77502C8.75172 5.93629 8.79854 6.09756 8.89218 6.24322C8.89218 6.25882 8.90258 6.26923 8.90258 6.28483C8.89738 6.31085 8.88698 6.33165 8.92339 6.34206L8.9338 6.36287Z" fill="white"/>
<path d="M7.42312 17.4279C7.45433 17.4383 7.48034 17.4539 7.48034 17.4903C7.48034 17.5215 7.45433 17.5319 7.42832 17.5267C7.3971 17.5215 7.37109 17.5059 7.37109 17.4695C7.37109 17.4383 7.39191 17.4279 7.42312 17.4279Z" fill="white"/>
</svg>
