<svg width="27" height="22" viewBox="0 0 27 22" fill="none" xmlns="http://www.w3.org/2000/svg">
<path d="M0.595047 19.2899C3.49265 19.5292 6.11455 18.8165 8.49714 17.0321C6.01571 16.8084 4.36662 15.5599 3.43543 13.2449C4.26257 13.3334 5.02729 13.3594 5.84923 13.1305C4.54869 12.8132 3.52387 12.1733 2.73314 11.1797C1.94761 10.1861 1.55224 9.05199 1.55745 7.77226C1.95281 7.92312 2.32217 8.08959 2.70713 8.19883C3.09209 8.30808 3.49786 8.3497 3.89322 8.40172C1.53144 6.38328 0.98521 3.99548 2.30656 1.12909C5.27179 4.61974 8.98094 6.52894 13.4912 6.83587C13.4704 6.30525 13.4028 5.79543 13.4392 5.29603C13.6057 3.05389 14.7293 1.42561 16.7998 0.582863C18.9483 -0.291101 20.9251 0.145882 22.6418 1.71694C22.7719 1.83138 22.8707 1.8678 23.0476 1.82618C24.0776 1.58688 25.0608 1.22793 25.9868 0.712917C26.0544 0.676502 26.1221 0.640087 26.2521 0.577661C25.836 1.85219 25.0712 2.77818 24.0204 3.51168C25.0296 3.41804 25.9816 3.13192 26.944 2.78338C26.8504 2.91343 26.7567 3.04869 26.6579 3.17874C26.5591 3.3088 26.4758 3.45446 26.3614 3.56891C25.7319 4.18276 25.0921 4.78101 24.4626 5.39487C24.3742 5.4781 24.2909 5.61856 24.2909 5.72781C24.3689 9.0832 23.4482 12.1525 21.617 14.946C19.9419 17.4951 17.6998 19.3783 14.875 20.5488C13.382 21.1678 11.8213 21.5164 10.2139 21.6464C8.26824 21.8025 6.35384 21.6256 4.47586 21.0846C3.09729 20.684 1.79675 20.1014 0.589844 19.3003L0.595047 19.2899Z" fill="white"/>
</svg>
