<svg width="29" height="26" viewBox="0 0 29 26" fill="none" xmlns="http://www.w3.org/2000/svg">
<path d="M2.22407 22.2046C2.12523 22.0538 2.0628 21.8821 1.93795 21.7468C1.92235 21.7208 1.91194 21.6948 1.89633 21.6688L1.88593 21.6584C1.75587 21.3931 1.62062 21.1226 1.49057 20.8573C1.45935 20.7012 1.39693 20.5607 1.3293 20.4151C1.31369 20.3631 1.30329 20.311 1.28768 20.259C1.26167 20.2174 1.27727 20.1654 1.23566 20.1342C1.23566 20.1133 1.23046 20.0925 1.22526 20.0717C1.18364 19.9261 1.14722 19.7752 1.1056 19.6295C1.09 19.5619 1.07439 19.4995 1.05878 19.4319C1.05358 19.4007 1.04318 19.3746 1.03798 19.3434C1.04838 19.2966 1.02757 19.255 1.00156 19.2186C1.00156 19.1666 1.00156 19.1145 1.00156 19.0625C1.00156 19.0417 0.996356 19.0209 0.991154 18.9949C0.985951 18.9845 0.98075 18.9741 0.975548 18.9689C0.985952 18.9168 0.991156 18.8648 1.00156 18.8076C1.01196 18.7608 0.980751 18.7348 0.944336 18.7088C0.944336 18.6463 0.944336 18.5839 0.944336 18.5215C0.944336 18.3186 0.944336 18.1105 0.944336 17.9076C0.944336 17.6735 0.98075 17.6371 1.22005 17.6371C3.23329 17.6371 5.24653 17.6371 7.25977 17.6371C7.42103 17.6371 7.5875 17.6371 7.74877 17.6475C7.87882 17.6527 7.94645 17.7204 7.94125 17.8608C7.93084 18.0845 7.95686 18.303 8.00888 18.5163C8.02969 18.6255 8.02968 18.74 8.10251 18.8336C8.10251 18.9429 8.15974 19.0313 8.21176 19.1249C8.32621 19.3798 8.48748 19.5983 8.69036 19.7908C8.73198 19.8324 8.7684 19.8897 8.84123 19.8949C9.0129 20.0717 9.22098 20.1862 9.45508 20.259C9.47589 20.2694 9.5019 20.2746 9.52271 20.285C9.7464 20.3735 9.9753 20.4411 10.2198 20.4463C11.281 20.4463 12.3475 20.4463 13.4087 20.4515C13.5492 20.4515 13.5856 20.4099 13.5804 20.2694C13.57 19.9157 13.596 19.5671 13.57 19.2134C13.57 18.896 13.57 18.5735 13.5752 18.2562C13.5752 18.2042 13.57 18.1625 13.5024 18.1573C13.5388 18.0949 13.596 18.0325 13.5648 17.9492C13.5648 17.9024 13.5388 17.892 13.4972 17.892C13.4555 17.892 13.4139 17.892 13.3723 17.892C12.4047 17.892 11.4319 17.892 10.4643 17.892C10.3707 17.8816 10.2718 17.8764 10.1886 17.8192C10.1002 17.7204 10.1262 17.6215 10.1886 17.5227C10.4487 17.1273 10.7296 16.7527 10.9585 16.3366C11.0105 16.2637 11.073 16.1961 11.0938 16.1025C11.1822 15.9932 11.2394 15.8684 11.2967 15.7435C11.3123 15.7123 11.3279 15.6759 11.3435 15.6447L11.5047 15.395C11.6088 15.2129 11.7388 15.0412 11.7544 14.8227C11.8013 14.8331 11.8169 14.8071 11.8221 14.7655C11.9417 14.5834 12.0145 14.3806 12.1082 14.1829C12.1498 14.1413 12.181 14.0944 12.1966 14.032C12.2174 14.0008 12.2434 13.9696 12.2642 13.9384C12.3215 13.8864 12.2747 13.8031 12.3163 13.7459C12.3735 13.6262 12.4411 13.5066 12.4515 13.3661C12.4567 13.3557 12.4671 13.3453 12.4723 13.3349C12.4983 13.2153 12.5816 13.1112 12.5764 12.9864C12.618 12.9083 12.6388 12.8251 12.6388 12.7367C12.6908 12.6586 12.7012 12.5754 12.7012 12.4818C12.7533 12.435 12.7272 12.3777 12.7324 12.3257C12.7324 12.3257 12.7585 12.2893 12.7533 12.2633C12.7533 12.2113 12.7585 12.1592 12.7637 12.102C12.8365 11.8627 12.8313 11.6182 12.8261 11.3737C12.8261 11.2905 12.8261 11.2072 12.8261 11.1188C12.8521 10.8535 12.8209 10.5882 12.7845 10.3281L12.7585 10.2032C12.7585 10.146 12.7585 10.094 12.7533 10.0368C12.7324 9.9015 12.7168 9.76624 12.696 9.63098C12.696 9.62058 12.696 9.61018 12.696 9.59977C12.6856 9.52694 12.67 9.45411 12.6596 9.37608C12.644 9.30325 12.6336 9.23042 12.618 9.15238C12.6388 9.07955 12.5868 9.02233 12.566 8.96511C12.566 8.91829 12.5764 8.87667 12.54 8.84025C12.5348 8.78823 12.5608 8.72581 12.5087 8.68419C12.4879 8.58015 12.5192 8.4605 12.4463 8.36686C12.4463 8.2316 12.3995 8.10675 12.3475 7.9871C12.3423 7.97149 12.3371 7.95589 12.3319 7.94548H12.3371C12.3111 7.86745 12.2851 7.78421 12.259 7.70618C12.259 7.69578 12.259 7.68537 12.259 7.67497C12.2642 7.66977 12.2747 7.66456 12.2799 7.65936C12.2695 7.65936 12.2643 7.65416 12.2538 7.64896C12.129 7.32642 12.0718 6.98308 11.9365 6.66055C11.9365 6.60852 11.9157 6.56691 11.8897 6.53049C11.8741 6.47847 11.8533 6.42645 11.8377 6.37963C11.8169 6.32761 11.7961 6.27559 11.7753 6.22357C11.7076 6.04149 11.6452 5.85941 11.5776 5.67734C11.5568 5.62532 11.536 5.57329 11.5151 5.52127C11.4943 5.46925 11.4735 5.41723 11.4527 5.36C11.4163 5.27677 11.4007 5.18313 11.3383 5.1103C11.3435 5.06348 11.3227 5.02186 11.2967 4.98545C11.2654 4.93343 11.2862 4.85539 11.2134 4.82418C11.1978 4.72014 11.1406 4.6317 11.1042 4.53806C11.0209 4.34558 10.9689 4.1375 10.8337 3.96582C10.8337 3.95542 10.8337 3.94502 10.8285 3.93461C10.766 3.86178 10.8545 3.71612 10.7088 3.67971C10.7088 3.6693 10.7036 3.6589 10.6984 3.64849C10.6984 3.62248 10.6932 3.60167 10.6724 3.58607L10.662 3.55485C10.6464 3.52364 10.6256 3.49243 10.61 3.46121C10.5319 3.24793 10.4227 3.05024 10.3082 2.85776C10.2198 2.68089 10.1314 2.50402 10.0377 2.32714C10.0377 2.30633 10.0377 2.28553 10.0377 2.26472C10.0637 2.24391 10.0845 2.2231 10.1106 2.20229C10.1626 2.2231 10.2042 2.26472 10.2666 2.26472C10.2822 2.29073 10.3082 2.29073 10.329 2.28553C10.4123 2.2335 10.4799 2.28553 10.5527 2.31674C10.7504 2.43119 10.9793 2.44679 11.1926 2.51442C11.4111 2.58205 11.6504 2.58725 11.8533 2.66528C12.1082 2.75892 12.3631 2.84736 12.6336 2.88377C12.7533 2.9462 12.8885 2.96181 13.0186 2.99302C13.0186 3.00863 13.029 3.02423 13.0498 3.01903C13.1694 3.04504 13.2943 3.06585 13.4139 3.09186C13.5856 3.14388 13.5856 3.13868 13.5596 2.97741C13.5544 2.941 13.6012 2.89938 13.5596 2.86297C13.5752 2.79014 13.5752 2.71731 13.5596 2.63927C13.5752 2.39477 13.5804 2.15547 13.5596 1.91097C13.5648 1.7549 13.57 1.59884 13.5804 1.44277C13.6012 1.34393 13.622 1.25029 13.648 1.15145C13.6636 1.12024 13.674 1.08903 13.6896 1.05781C13.8145 0.839323 13.9862 0.66245 14.1943 0.521991C14.2151 0.511587 14.2359 0.49598 14.2567 0.485576C14.3191 0.454363 14.3867 0.42315 14.4492 0.391937C14.6729 0.365926 14.8913 0.334713 15.115 0.381533C15.474 0.454363 15.7289 0.667652 15.9266 0.964175C15.9266 1.01099 15.9578 1.04221 15.989 1.06822C16.1555 1.45318 16.1035 1.85895 16.1243 2.25951C16.1243 2.48321 16.1243 2.7069 16.1243 2.93059V3.36758C16.1243 3.39879 16.1243 3.43 16.1243 3.46121C16.1243 3.56526 16.1243 3.6745 16.1243 3.77855C16.1243 3.80976 16.1243 3.83577 16.1503 3.85138L16.3115 3.9034C16.3115 3.9034 16.3219 3.93461 16.3428 3.92941C16.3948 3.94502 16.4416 3.95542 16.4936 3.97103C16.5508 4.01264 16.6029 4.05426 16.6601 4.09588L16.7485 4.16351C16.8005 4.20512 16.8578 4.24674 16.9098 4.29356C16.9514 4.33518 16.9982 4.3768 17.0398 4.41321C17.0398 4.42882 17.0502 4.43922 17.0659 4.43402C17.2167 4.55367 17.3728 4.66291 17.508 4.79817C17.5913 4.8762 17.6745 4.95424 17.7525 5.03227C17.8566 5.17273 18.0178 5.24556 18.1427 5.36C18.1687 5.41723 18.2155 5.45364 18.2676 5.49006C18.3196 5.56289 18.382 5.62532 18.4548 5.67734C18.5329 5.75537 18.6109 5.8282 18.6889 5.91143C18.8762 6.10912 19.0635 6.3068 19.2508 6.50448C19.2976 6.56171 19.3288 6.62933 19.4016 6.66055C19.4432 6.71257 19.4432 6.80621 19.5317 6.82181C19.6617 6.96747 19.7918 7.11314 19.9218 7.2588C20.0051 7.36284 20.0831 7.47208 20.1663 7.57613C20.2028 7.64896 20.2548 7.71138 20.312 7.76861C20.3744 7.85184 20.3952 7.95589 20.4889 8.01831C20.4785 8.10155 20.5721 8.11715 20.5929 8.17958C20.5981 8.18998 20.6085 8.20039 20.6137 8.21079C20.6293 8.2316 20.6449 8.25241 20.6606 8.27322C20.749 8.39287 20.8426 8.51252 20.9311 8.62697C20.9675 8.68939 21.0039 8.74662 21.0351 8.80904C21.0507 8.82985 21.0611 8.85586 21.0767 8.87667C21.212 9.12637 21.3524 9.37088 21.4669 9.63098C21.5085 9.73503 21.5449 9.84427 21.5865 9.94832C21.6282 10.0836 21.675 10.224 21.7166 10.3593V10.3697L21.727 10.3801C21.779 10.5206 21.8258 10.661 21.8779 10.8015C21.8779 10.8431 21.8831 10.8899 21.9143 10.9263C21.9299 11.02 21.9403 11.1136 21.9559 11.2124C21.9559 11.2697 21.9507 11.3217 21.9767 11.3737L21.9871 12.0032C21.9871 12.0448 21.9871 12.0864 21.9871 12.128C21.9507 12.2529 21.9507 12.3777 21.9455 12.5078C21.9143 12.643 21.8779 12.7783 21.8466 12.9188C21.831 12.9604 21.8206 13.002 21.805 13.0436C21.753 13.1841 21.701 13.3245 21.649 13.4598C21.6229 13.4962 21.6229 13.5326 21.6281 13.5742C21.5657 13.7355 21.4877 13.8864 21.4097 14.032C21.2536 14.3285 21.0715 14.6095 20.879 14.8852C20.3848 15.6031 19.8438 16.2794 19.2404 16.9088C18.9386 17.2261 18.6005 17.5019 18.304 17.8244C18.2259 17.8764 18.1427 17.8868 18.0543 17.892C17.4768 17.892 16.8942 17.8972 16.3167 17.9024C16.2855 17.9024 16.2543 17.9024 16.2179 17.9024C16.1919 17.8972 16.1659 17.892 16.1555 17.9232C16.1399 17.9232 16.1243 17.9336 16.1295 17.9544C16.1295 18.1001 16.1295 18.251 16.1295 18.3966C16.1295 18.5527 16.1295 18.714 16.1295 18.87C16.1295 19.359 16.1295 19.848 16.1191 20.337C16.1191 20.4255 16.1555 20.4515 16.2387 20.4515C17.0242 20.4515 17.8046 20.4515 18.5901 20.4463C18.6629 20.4463 18.7357 20.4463 18.8138 20.4463C18.9022 20.4567 18.9854 20.4307 19.0687 20.4151C19.0895 20.4151 19.1103 20.4151 19.1207 20.3943C19.2091 20.3787 19.308 20.3943 19.3808 20.3266C19.6981 20.2642 19.9426 20.0769 20.1819 19.874C20.3068 19.7804 20.4108 19.6608 20.5149 19.5463C20.8894 19.1718 21.2692 18.7972 21.6438 18.4226C21.6906 18.381 21.7218 18.3082 21.7842 18.303C21.9559 18.2874 22.1172 18.2146 22.2784 18.1677C22.8975 17.9961 23.5165 17.8244 24.1252 17.6163C24.2344 17.6475 24.3177 17.5747 24.4113 17.5487C24.6142 17.4863 24.8119 17.4238 25.0148 17.3666C25.1084 17.3978 25.1812 17.3302 25.2645 17.3094C25.5038 17.2313 25.7535 17.1741 25.998 17.1013C26.5598 16.9296 27.1372 16.7944 27.6991 16.6123C28.0372 16.503 28.3806 16.4354 28.7135 16.3106C28.8175 16.2689 28.932 16.3106 28.9892 16.4302L28.9996 16.4926C28.9892 16.9764 28.984 17.4602 28.9996 17.9492C28.9996 17.9649 28.9996 17.9805 28.9944 17.9961C28.9476 18.0949 28.8592 18.1417 28.7707 18.1833C28.4482 18.329 28.1413 18.5111 27.8291 18.6775C27.3453 18.9377 26.8823 19.2394 26.4922 19.6295C26.1332 19.9885 25.8783 20.4307 25.6078 20.8521C25.2697 21.3775 24.9523 21.9133 24.6038 22.4335C24.2813 22.9069 23.9639 23.3855 23.6102 23.8381C23.2824 24.2543 22.8559 24.5716 22.4553 24.9097C22.4449 24.9097 22.4345 24.9149 22.4241 24.9201C22.3513 24.9201 22.3304 24.993 22.2784 25.0242C21.9247 25.2375 21.5657 25.4039 21.1548 25.4976C20.8478 25.5652 20.5513 25.612 20.2444 25.6172C16.374 25.6172 12.5036 25.6172 8.62794 25.6172C8.37823 25.6172 8.12333 25.6328 7.87363 25.5912C7.73317 25.5756 7.5875 25.56 7.44704 25.5444C7.32219 25.5028 7.19214 25.4716 7.05688 25.482C6.92683 25.4248 6.78637 25.4039 6.64591 25.3883C6.51586 25.3155 6.365 25.2895 6.22454 25.2479C5.72513 25.1126 5.26734 24.8733 4.80955 24.6392C4.75753 24.608 4.7107 24.582 4.65868 24.5508C4.47661 24.4259 4.29974 24.3011 4.11766 24.171C3.972 24.0566 3.83154 23.9473 3.68588 23.8329C3.64946 23.8017 3.61305 23.7705 3.57663 23.7393C3.48819 23.6092 3.34774 23.5416 3.24369 23.4323C3.08243 23.2607 2.92116 23.089 2.75989 22.9173C2.73909 22.8705 2.71307 22.8341 2.66105 22.8133C2.63504 22.7769 2.60903 22.7352 2.58302 22.6988C2.56742 22.6832 2.55701 22.6676 2.5414 22.6468C2.45817 22.5376 2.38014 22.4231 2.2969 22.3139C2.27089 22.2774 2.24488 22.241 2.21887 22.2046H2.22407Z" fill="white"/>
<path d="M9.4338 6.43164C9.4338 6.43164 9.45461 6.47326 9.46501 6.49927C9.49623 6.5825 9.52744 6.67094 9.55865 6.75417C9.55865 6.76458 9.56905 6.77498 9.57425 6.78539C9.57946 6.79579 9.58466 6.80619 9.59507 6.8114C9.60547 6.84261 9.57946 6.88423 9.62628 6.90504C9.63668 6.94665 9.65229 6.98827 9.66269 7.03509C9.66269 7.0559 9.66789 7.0611 9.6887 7.0663C9.6887 7.08711 9.68871 7.10792 9.69391 7.12873C9.68871 7.14954 9.69911 7.15474 9.71991 7.15994C9.71991 7.15994 9.72512 7.20156 9.73032 7.22237C9.74593 7.24838 9.76153 7.26919 9.77714 7.2952C9.77194 7.31601 9.76674 7.33161 9.78754 7.34722C9.79275 7.36283 9.79795 7.37323 9.80315 7.38884C9.80315 7.40965 9.79795 7.43045 9.81876 7.44086C9.82396 7.47727 9.81876 7.51369 9.84997 7.5397C9.85517 7.56051 9.86558 7.58132 9.87078 7.60733C9.9072 7.70097 9.90199 7.80501 9.96442 7.88824C9.99563 7.98188 9.98523 8.08593 10.0477 8.16916C10.0529 8.23679 10.0685 8.30442 10.1049 8.36164C10.0893 8.42927 10.0997 8.4917 10.1361 8.55412C10.1257 8.57493 10.1361 8.58013 10.1569 8.58534C10.1569 8.59574 10.1673 8.60614 10.1725 8.61135C10.1725 8.63215 10.1725 8.65816 10.1725 8.67897C10.1621 8.69978 10.1725 8.70498 10.1933 8.71019C10.2193 8.7466 10.1777 8.80383 10.2245 8.83504C10.2453 8.91827 10.2401 9.01191 10.287 9.08995C10.287 9.29803 10.3962 9.48531 10.391 9.68819C10.391 9.709 10.3962 9.7142 10.417 9.71941C10.4482 9.79224 10.391 9.87547 10.4586 9.9431C10.4586 9.9535 10.4586 9.96391 10.4586 9.96911C10.4586 9.99512 10.4638 10.0211 10.469 10.0471C10.4586 10.0471 10.4586 10.0575 10.4586 10.068V10.0992C10.4482 10.1356 10.4326 10.172 10.4794 10.1928C10.4794 10.2552 10.4794 10.3177 10.4846 10.3801C10.521 10.5049 10.5263 10.635 10.5211 10.765C10.5054 11.1448 10.4898 11.5194 10.4742 11.8991C10.4482 11.9511 10.4482 12.0032 10.4482 12.0552C10.4118 12.1748 10.3442 12.2789 10.339 12.4037L10.3234 12.4349C10.2713 12.5234 10.2401 12.617 10.2245 12.7159C10.1777 12.7419 10.2089 12.8043 10.1777 12.8355C10.1517 12.9031 10.0893 12.95 10.0997 13.0332C10.0425 13.1112 10.0112 13.1997 9.97482 13.2881C9.84997 13.5326 9.72512 13.7771 9.60027 14.0216C9.42339 14.3649 9.23612 14.7031 9.02803 15.0256C8.98642 15.0308 8.9396 15.036 8.89798 15.0464C8.88757 15.0412 8.88237 15.0464 8.87717 15.0464C8.74711 15.0464 8.61186 15.036 8.4818 15.036C6.62983 15.036 4.77266 15.036 2.92069 15.036C2.85826 15.036 2.79583 15.036 2.73341 15.0308C2.723 15.0256 2.7126 15.0204 2.7022 15.0256C2.65017 14.9944 2.62417 14.9424 2.59815 14.8956C2.59295 14.8123 2.62936 14.7447 2.66578 14.6719C2.7126 14.6303 2.75421 14.5834 2.76982 14.521C2.97791 14.1829 3.21721 13.8655 3.40448 13.5118C3.41489 13.4962 3.42009 13.4858 3.4305 13.4702C3.4409 13.4598 3.4461 13.4494 3.45651 13.439C3.46171 13.4286 3.46691 13.4181 3.47211 13.4129C3.53454 13.3193 3.59177 13.2257 3.65419 13.132C3.6646 13.1164 3.675 13.106 3.6802 13.0904C3.6906 13.08 3.70101 13.0696 3.71142 13.0592C3.72182 13.0488 3.73223 13.0384 3.74263 13.028C3.9091 12.7002 4.13279 12.4089 4.32007 12.0916C4.37729 11.998 4.45532 11.9199 4.47093 11.8055C4.52815 11.7951 4.54376 11.7483 4.55937 11.7014C4.56977 11.691 4.57497 11.6806 4.58538 11.6702C4.59058 11.6598 4.59578 11.6494 4.60098 11.639C4.8767 11.2072 5.16802 10.7859 5.42293 10.3437C5.45414 10.3229 5.47495 10.2916 5.48015 10.2552C5.75066 9.83906 6.02638 9.41768 6.29169 9.00151C6.38012 8.86105 6.46336 8.71539 6.5518 8.56973C6.5622 8.55932 6.5726 8.54892 6.58301 8.53852C6.58821 8.52811 6.59862 8.51771 6.60382 8.5073C6.60382 8.4969 6.61423 8.48649 6.61423 8.47609C6.72868 8.41887 6.73907 8.29401 6.8015 8.20037C7.01479 7.87264 7.21768 7.5397 7.42576 7.21196C7.44657 7.17035 7.49339 7.13913 7.49859 7.08711C7.65986 6.91544 7.7587 6.70735 7.87835 6.50967C8.02401 6.26517 8.21129 6.05188 8.32054 5.78657C8.33094 5.77617 8.34135 5.76576 8.35175 5.75015C8.35695 5.73975 8.36735 5.72935 8.37255 5.71894C8.37255 5.70854 8.37776 5.69813 8.38296 5.68773C8.46099 5.60449 8.52862 5.51085 8.57024 5.40161C8.58064 5.3912 8.59105 5.3756 8.60145 5.36519C8.60665 5.35479 8.61705 5.34959 8.62226 5.33918C8.67428 5.27155 8.73671 5.22994 8.82515 5.24034C8.89278 5.29236 8.9604 5.35479 8.99161 5.43802C9.01242 5.46924 9.03323 5.49525 9.04884 5.52646C9.05924 5.57328 9.07485 5.6201 9.11126 5.65131C9.13207 5.70333 9.15288 5.76056 9.17889 5.81258C9.18409 5.82298 9.1945 5.83339 9.1997 5.84379C9.25172 6.00506 9.29854 6.16633 9.39218 6.31199C9.39218 6.32759 9.40258 6.338 9.40258 6.35361C9.39738 6.37962 9.38698 6.40043 9.42339 6.41083L9.4338 6.43164Z" fill="white"/>
<path d="M7.92019 17.4966C7.9514 17.507 7.97741 17.5226 7.97741 17.5591C7.97741 17.5903 7.9514 17.6007 7.92539 17.5955C7.89418 17.5903 7.86816 17.5747 7.86816 17.5382C7.86816 17.507 7.88898 17.4966 7.92019 17.4966Z" fill="white"/>
</svg>
