<svg width="27" height="22" viewBox="0 0 27 22" fill="none" xmlns="http://www.w3.org/2000/svg">
<path d="M0.095047 19.3586C2.99265 19.5979 5.61455 18.8852 7.99714 17.1009C5.51571 16.8772 3.86662 15.6287 2.93543 13.3137C3.76257 13.4022 4.52729 13.4282 5.34923 13.1993C4.04869 12.8819 3.02387 12.2421 2.23314 11.2485C1.44761 10.2549 1.05224 9.12078 1.05745 7.84105C1.45281 7.99191 1.82217 8.15838 2.20713 8.26763C2.59209 8.37687 2.99786 8.41849 3.39322 8.47051C1.03144 6.45207 0.48521 4.06428 1.80656 1.19789C4.77179 4.68854 8.48094 6.59773 12.9912 6.90466C12.9704 6.37404 12.9028 5.86423 12.9392 5.36482C13.1057 3.12269 14.2293 1.49441 16.2998 0.651658C18.4483 -0.222306 20.4251 0.214676 22.1418 1.78573C22.2719 1.90018 22.3707 1.93659 22.5476 1.89498C23.5776 1.65568 24.5608 1.29673 25.4868 0.781712C25.5544 0.745297 25.6221 0.708882 25.7521 0.646456C25.336 1.92099 24.5712 2.84697 23.5204 3.58048C24.5296 3.48684 25.4816 3.20072 26.444 2.85217C26.3504 2.98223 26.2567 3.11748 26.1579 3.24754C26.0591 3.37759 25.9758 3.52325 25.8614 3.6377C25.2319 4.25156 24.5921 4.84981 23.9626 5.46366C23.8742 5.5469 23.7909 5.68735 23.7909 5.7966C23.8689 9.152 22.9482 12.2213 21.117 15.0148C19.4419 17.5639 17.1998 19.4471 14.375 20.6176C12.882 21.2366 11.3213 21.5852 9.71385 21.7152C7.76824 21.8713 5.85384 21.6944 3.97586 21.1534C2.59729 20.7528 1.29675 20.1702 0.0898438 19.3691L0.095047 19.3586Z" fill="white"/>
</svg>
