<svg width="185" height="34" viewBox="0 0 185 34" fill="none" xmlns="http://www.w3.org/2000/svg">
<g clip-path="url(#clip0_1291_9513)">
<path d="M15.3751 6.10377C16.6261 6.06538 17.8811 6.06154 19.1283 5.98091C19.974 5.92716 20.8003 5.95019 21.6228 6.14601C21.9317 6.21896 22.117 6.37638 22.1595 6.6989C22.2406 7.3209 22.3294 7.93907 22.4182 8.55723C22.5264 9.29058 22.5264 10.047 22.9472 10.7035C23.2677 11.2027 23.5882 11.698 23.9203 12.1894C24.2292 12.6463 24.4223 13.1301 24.4223 13.6907C24.4146 15.1996 24.4146 16.7047 24.43 18.2136C24.43 18.4978 24.3296 18.7051 24.1404 18.9048C23.3527 19.7418 22.5225 20.5481 21.9162 21.5348C21.5494 22.13 21.2444 22.7596 20.9123 23.3778C20.8814 23.4354 20.8466 23.493 20.7771 23.612C20.7424 23.3624 20.7308 23.1781 20.6845 23.0054C20.6034 22.6867 20.5184 22.3642 20.4026 22.0532C20.2481 21.6423 19.8774 21.4235 19.5415 21.1854C19.248 20.9781 18.9275 20.813 18.6148 20.6325C18.441 20.5327 18.3676 20.4098 18.3908 20.1948C18.5298 19.0391 18.6495 17.8834 18.7769 16.7277C18.8619 15.956 19.2249 15.3071 19.7268 14.7427C20.1748 14.2397 20.6613 13.7713 21.1517 13.3106C21.3255 13.1493 21.5687 13.061 21.7657 12.9266C21.951 12.7999 22.1248 12.6502 22.2792 12.4735C21.8969 12.5311 21.534 12.631 21.2444 12.8652C20.5686 13.4142 19.9006 13.9748 19.248 14.5507C18.8812 14.8771 18.7924 14.9001 18.3908 14.6352C17.9892 14.3741 17.8888 13.9825 17.8695 13.5448C17.8618 13.3797 17.8965 13.1992 17.7035 13.061C17.6764 13.1339 17.634 13.1954 17.634 13.2568C17.6301 13.66 17.6224 14.0631 17.6378 14.4624C17.6378 14.5584 17.7112 14.6621 17.7653 14.7504C17.8425 14.8733 17.9274 14.9884 18.0162 15.0998C18.3213 15.4607 18.4526 15.8178 18.3252 16.3284C18.1244 17.1501 18.0587 18.0063 17.9158 18.8433C17.8348 19.3079 17.7112 19.7686 17.5992 20.2294C17.5413 20.4674 17.3791 20.5826 17.1281 20.5903C16.5412 20.6057 15.9581 20.6287 15.3712 20.6479C14.7958 20.6287 14.2166 20.6172 13.6413 20.5941C13.3285 20.5826 13.1895 20.4943 13.1161 20.191C12.9887 19.6611 12.8806 19.1236 12.7879 18.5899C12.6412 17.7529 12.5099 16.912 12.367 16.075C12.3284 15.8523 12.3323 15.6488 12.4713 15.4607C12.6412 15.2303 12.8149 15 12.9771 14.7619C13.035 14.6774 13.1046 14.5738 13.1046 14.4739C13.1161 13.9825 13.1123 13.4949 13.1123 13.0034C13.0852 12.9957 13.0582 12.9842 13.035 12.9765C12.981 13.0955 12.9076 13.2107 12.8845 13.3374C12.8381 13.5717 12.8343 13.8174 12.7841 14.0516C12.6991 14.4355 12.3825 14.639 12.0697 14.8118C11.9037 14.904 11.7685 14.7773 11.6411 14.6659C11.0194 14.1207 10.3977 13.5755 9.76445 13.0418C9.39762 12.7308 8.95742 12.5503 8.49405 12.4352C8.47861 12.4505 8.46316 12.4697 8.44771 12.4851C8.57514 12.6118 8.6794 12.7845 8.83385 12.8537C9.66405 13.2299 10.2394 13.9057 10.8456 14.5431C11.6681 15.4069 12.0118 16.4513 12.089 17.6147C12.1431 18.4095 12.2512 19.2004 12.3323 19.9952C12.3477 20.1449 12.3516 20.2985 12.3593 20.4636C12.2628 20.525 12.174 20.5788 12.0851 20.6402C11.6218 20.9474 11.1391 21.2315 10.6989 21.5694C10.5251 21.7038 10.3823 21.9265 10.3128 22.1376C10.1815 22.5139 10.1158 22.9132 10.0232 23.3048C10.0077 23.374 9.99227 23.4431 9.96138 23.5813C9.85712 23.397 9.77217 23.278 9.71425 23.1436C9.12346 21.7383 8.19672 20.5673 7.14643 19.4807C6.92247 19.2465 6.69078 19.0199 6.49385 18.7627C6.38959 18.6321 6.30078 18.444 6.30078 18.2827C6.30078 16.6701 6.31237 15.0537 6.3394 13.4411C6.34712 12.9727 6.56722 12.5657 6.82979 12.1779C7.13098 11.7325 7.41672 11.2756 7.71405 10.8264C8.04613 10.3273 8.17742 9.77052 8.24692 9.18307C8.34346 8.3307 8.48247 7.48216 8.60217 6.62979C8.64078 6.36102 8.80682 6.2228 9.05395 6.16137C9.85712 5.95787 10.6642 5.91948 11.4944 5.96939C12.7879 6.04618 14.0892 6.06154 15.3866 6.10377H15.3751ZM19.9083 15.1996C20.3369 15.572 21.1131 15.4876 21.5687 15.0384C22.0862 14.5277 22.2638 13.7982 21.9433 13.4296C21.1864 13.9287 20.503 14.5123 19.9083 15.1996ZM8.77979 13.4181C8.44385 13.7751 8.69098 14.6198 9.24702 15.1075C9.69108 15.4953 10.4054 15.5452 10.8379 15.1996C10.2355 14.5162 9.55207 13.9287 8.77979 13.4181Z" fill="#54B3C3"/>
<path d="M15.38 29.6898C15.4688 29.7052 15.5538 29.7282 15.6426 29.732C16.4226 29.7704 17.2064 29.8088 17.9864 29.8357C18.2181 29.8434 18.4151 29.782 18.5772 29.5785C19.0097 29.0409 19.4769 28.5303 19.9094 27.9927C20.0986 27.7585 20.2724 27.4974 20.3921 27.221C20.4616 27.0597 20.4153 26.8447 20.4114 26.6527C20.4114 26.5376 20.3496 26.4185 20.3728 26.311C20.4964 25.7351 20.5813 25.14 20.7898 24.5909C21.1567 23.631 21.6509 22.7211 22.1838 21.838C22.6163 21.1162 23.1453 20.4788 23.7322 19.8837C24.0836 19.5266 24.4195 19.1503 24.7477 18.7702C24.8327 18.6704 24.9022 18.5168 24.9061 18.3901C24.9176 18.0138 24.8829 17.6375 24.879 17.2613C24.879 17.0655 24.9022 16.8696 24.9254 16.6738C24.9331 16.6277 24.991 16.5894 25.0605 16.5049C25.1262 16.6508 25.1802 16.7506 25.215 16.8543C25.7478 18.3939 26.2769 19.9374 26.8097 21.4771C26.8213 21.5116 26.8329 21.5462 26.8522 21.5769C27.2306 22.1989 27.2731 22.8631 27.0569 23.5427C26.8368 24.2415 26.5896 24.9365 26.3464 25.6276C26.3155 25.7197 26.2614 25.8004 26.2151 25.8887C26.1958 25.8887 26.1765 25.8848 26.1572 25.881C26.1649 25.7581 26.1765 25.6353 26.1842 25.5086C26.246 24.4988 26.1649 23.5082 25.7787 22.5598C25.7633 22.4945 25.744 22.4293 25.7285 22.364C25.7092 22.3678 25.6899 22.3755 25.6706 22.3794C25.6861 22.4408 25.7054 22.5022 25.7208 22.5637C25.8328 23.942 25.6127 25.2744 25.1455 26.5683C24.4504 28.4804 23.2804 30.043 21.6162 31.241C20.2338 32.2354 18.6854 32.7921 17.0095 33.0148C16.4651 33.0878 15.9167 33.0993 15.3684 33.1377C13.9011 33.13 12.4801 32.892 11.1209 32.3352C9.01643 31.4752 7.40623 30.0546 6.29801 28.0849C5.41762 26.5222 4.96197 24.8405 4.99286 23.0398C4.99286 22.8363 5.02375 22.6289 5.01603 22.4216C4.54494 23.5235 4.49088 24.6831 4.56811 25.858C4.5488 25.8618 4.53336 25.8695 4.51405 25.8733C4.44841 25.7236 4.3789 25.5777 4.32098 25.4241C4.00821 24.6101 3.71474 23.7961 3.56801 22.9322C3.51395 22.6251 3.56801 22.3525 3.67999 22.0684C4.17039 20.7591 4.65692 19.4498 5.13573 18.1328C5.30177 17.6798 5.4292 17.2114 5.57593 16.7468C5.60296 16.6661 5.63772 16.5894 5.67247 16.5126H5.76128C5.79603 16.6316 5.85782 16.7583 5.85782 16.885C5.85782 17.2881 5.84237 17.6913 5.81534 18.0944C5.79603 18.3978 5.85782 18.6473 6.08178 18.8777C6.60693 19.4191 7.1398 19.9605 7.62247 20.5364C7.99703 20.9818 8.34455 21.4579 8.63029 21.9647C9.10138 22.7979 9.52228 23.6656 9.94703 24.5218C10.0397 24.7099 10.0822 24.9288 10.1324 25.1361C10.2135 25.4663 10.2907 25.7965 10.3409 26.1344C10.3641 26.2995 10.3177 26.48 10.3139 26.6489C10.3139 26.8294 10.2868 27.0252 10.3409 27.1903C10.4027 27.3823 10.5147 27.5704 10.6421 27.7278C11.1518 28.3537 11.6808 28.968 12.1982 29.59C12.3527 29.7743 12.5496 29.8319 12.7774 29.8165C13.5343 29.7743 14.2872 29.732 15.0441 29.6898C15.1599 29.6821 15.2758 29.6783 15.3955 29.6706L15.38 29.6898Z" fill="#54B3C3"/>
<path d="M15.3735 20.9589C16.2732 20.9435 17.1729 20.9282 18.0726 20.9051C18.8449 20.8859 20.1153 21.7114 20.3084 22.4832C20.4899 23.2127 20.6482 23.946 20.401 24.7024C20.2968 25.0249 20.235 25.3628 20.1423 25.6892C20.1076 25.8159 20.0458 25.9349 19.9802 26.0923C19.7948 26.0616 19.6288 26.0386 19.4666 26.0002C18.7213 25.8351 17.9838 25.6201 17.2308 25.5125C16.6207 25.4242 15.9913 25.455 15.3735 25.4358C13.9795 25.3513 12.6319 25.597 11.2997 25.9848C11.1376 26.0309 10.9715 26.0616 10.7823 26.1038C10.7205 25.9771 10.6588 25.8773 10.6279 25.7736C10.5159 25.3782 10.4078 24.9788 10.3074 24.5795C10.1143 23.8308 10.1992 23.0744 10.4811 22.391C10.8055 21.6039 11.489 21.124 12.3307 20.9704C12.8211 20.8821 13.3347 20.9243 13.8367 20.9243C14.3502 20.9243 14.8638 20.9435 15.3774 20.955L15.3735 20.9589ZM13.6127 22.4985C13.3694 22.2182 13.1648 21.9879 12.9679 21.7498C12.852 21.6154 12.7285 21.6385 12.6088 21.7268C12.3925 21.888 12.1801 22.057 11.9793 22.2336C11.709 22.4678 11.5739 22.7558 11.6666 23.1205C11.7631 23.493 12.0373 23.6773 12.3887 23.7656C12.825 23.8769 13.2497 23.804 13.6552 23.6312C13.8058 23.5697 13.9409 23.4699 14.0838 23.3854C14.0838 23.3586 14.0761 23.3355 14.0761 23.3087C13.9525 23.2549 13.8251 23.2011 13.6861 23.1397C13.6513 23.2511 13.6243 23.324 13.6011 23.3931C13.1841 23.5851 12.7671 23.5889 12.35 23.4661C12.0489 23.3778 11.9021 23.0821 11.9716 22.7558C12.0373 22.4601 12.2342 22.3219 12.5817 22.3795C12.8443 22.4217 13.0992 22.5216 13.3579 22.5945C13.4158 22.6099 13.4776 22.6137 13.5509 22.6252C13.578 22.5599 13.6011 22.5024 13.605 22.4908L13.6127 22.4985ZM16.7443 23.3163C16.7559 23.3701 16.7559 23.3893 16.7675 23.4008C16.7906 23.4277 16.8177 23.4546 16.8447 23.4738C17.281 23.7425 17.7599 23.8615 18.2657 23.7963C18.4626 23.7694 18.6673 23.6773 18.8295 23.5621C19.204 23.2933 19.2774 22.7404 18.9762 22.4256C18.7484 22.1875 18.4897 21.9763 18.2271 21.769C18.1421 21.6999 18.0108 21.6922 17.9606 21.673C17.671 21.9725 17.4316 22.2182 17.1729 22.487C17.2115 22.5331 17.2579 22.5868 17.2849 22.6175C17.6208 22.5292 17.9143 22.4332 18.2116 22.3757C18.5128 22.3181 18.7484 22.4832 18.8217 22.7711C18.8951 23.0552 18.7754 23.3355 18.5128 23.4354C18.0842 23.5966 17.6517 23.5928 17.2386 23.4238C17.1806 23.3355 17.1343 23.2626 17.0725 23.1666C16.9567 23.2203 16.8486 23.2703 16.7443 23.3163Z" fill="#54B3C3"/>
<path d="M4.6233 0.578547C3.73518 2.75556 3.12121 4.96712 3.37221 7.33611C3.39537 7.34379 3.41854 7.35147 3.43785 7.35915C3.59617 6.9368 3.75834 6.51061 3.92825 6.05755C4.4032 6.1305 4.85498 6.18809 5.3029 6.27256C5.92072 6.38775 6.53855 6.51061 7.15251 6.64884C7.71627 6.77554 7.8939 6.97136 7.85528 7.54729C7.80508 8.26912 7.68538 8.98711 7.59271 9.73197C7.44984 9.77805 7.33013 9.82796 7.20271 9.85868C6.38795 10.0545 5.59251 9.93931 4.80478 9.71278C3.66181 9.38642 2.5729 8.94487 1.62686 8.21152C1.4724 8.0925 1.31795 7.96579 1.17894 7.82373C0.398934 7.01359 0.263785 6.21497 0.711707 5.18598C1.21755 4.0226 1.97052 3.03968 2.88181 2.16811C3.38765 1.68433 3.90508 1.20823 4.41864 0.732128C4.48042 0.674535 4.54993 0.624621 4.61943 0.574707L4.6233 0.578547Z" fill="#54B3C3"/>
<path d="M15.3712 25.912C16.1164 25.9504 16.8733 25.9197 17.6031 26.0425C18.2865 26.1577 18.9545 26.4073 19.611 26.6492C19.9778 26.7874 20.028 27.0677 19.8002 27.3825C19.5453 27.7396 19.2712 28.0851 18.9932 28.423C18.8117 28.6457 18.6032 28.8415 18.4178 29.0604C18.2518 29.26 18.051 29.3253 17.8 29.3061C17.2092 29.26 16.6145 29.2255 16.0237 29.1948C15.8075 29.1833 15.5913 29.1948 15.375 29.1948C14.6916 29.2216 14.0042 29.2178 13.3246 29.2869C12.8149 29.3407 12.4133 29.2562 12.0967 28.8262C11.7376 28.3424 11.336 27.8932 10.9769 27.4132C10.6834 27.0178 10.7645 26.7605 11.224 26.5839C12.3052 26.1654 13.4134 25.8736 14.5873 25.9081C14.8499 25.9158 15.1086 25.9081 15.3712 25.9043V25.912Z" fill="#54B3C3"/>
<path d="M7.01317 10.5462C6.64633 11.1682 6.23317 11.7326 5.96673 12.3546C5.70029 12.9689 5.57673 13.6447 5.3798 14.3205C4.12098 14.2667 2.90465 14.0555 1.75781 13.3951C2.63821 12.393 3.55722 11.4869 4.78514 10.957C5.48406 10.6537 6.20227 10.4656 7.01317 10.55V10.5462Z" fill="#54B3C3"/>
<path d="M26.791 6.05364C26.9494 6.47599 27.1038 6.89066 27.2544 7.30533L27.3355 7.29765C27.3548 7.07496 27.3703 6.85226 27.3896 6.62957C27.5093 5.12832 27.1386 3.69617 26.7061 2.28323C26.5516 1.77257 26.3161 1.28111 26.1192 0.781975C26.096 0.724382 26.0767 0.670628 26.0574 0.613036C26.0728 0.597677 26.0883 0.586159 26.1037 0.570801C26.2736 0.712863 26.4551 0.847247 26.6134 1.00083C27.266 1.64203 27.934 2.27171 28.5596 2.93979C29.2932 3.71921 29.8415 4.62918 30.1736 5.64665C30.4208 6.3992 30.1891 7.08264 29.6794 7.66624C29.2508 8.16154 28.7102 8.52246 28.1348 8.82962C27.1733 9.34028 26.1655 9.71655 25.0882 9.89317C24.5514 9.98148 24.0147 9.96612 23.478 9.85861C23.254 9.81254 23.1227 9.70887 23.0957 9.45162C23.03 8.86417 22.9103 8.28441 22.8563 7.69696C22.8331 7.46659 22.8988 7.21702 22.976 6.99433C23.0185 6.87914 23.1613 6.76012 23.2849 6.72172C24.4201 6.3992 25.5824 6.21106 26.7833 6.0498L26.791 6.05364Z" fill="#54B3C3"/>
<path d="M23.7188 10.5499C24.1551 10.4847 24.5451 10.5192 24.9312 10.6075C25.661 10.7726 26.3252 11.0836 26.943 11.5021C27.6496 11.9783 28.2404 12.5811 28.8158 13.1954C28.8583 13.2376 28.8814 13.2952 28.9432 13.3912C27.8273 14.0785 26.6032 14.2397 25.3483 14.3204C25.1552 13.6484 25.0316 12.9727 24.7652 12.3545C24.4988 11.7364 24.0894 11.1758 23.7188 10.5499Z" fill="#54B3C3"/>
<path d="M25.7182 22.5756C25.7027 22.5142 25.6834 22.4528 25.668 22.3913C25.6873 22.3875 25.7066 22.3798 25.7259 22.376C25.7413 22.4412 25.7606 22.5065 25.7761 22.5718C25.7568 22.5718 25.7375 22.5718 25.7182 22.5718V22.5756Z" fill="#54B3C3"/>
</g>
<path d="M45.5648 10.8007V13.1842H40.5889V15.7591H44.3121V18.0731H40.5889V23.0142H37.6138V10.8007H45.5648ZM50.1035 10.8007V23.0142H47.1284V10.8007H50.1035ZM63.1855 23.0142H60.2105L55.2346 15.4808V23.0142H52.2595V10.8007H55.2346L60.2105 18.3689V10.8007H63.1855V23.0142ZM72.9451 20.8568H68.3868L67.656 23.0142H64.5418L68.9609 10.8007H72.4057L76.8249 23.0142H73.6758L72.9451 20.8568ZM72.1796 18.5602L70.6659 14.0889L69.1697 18.5602H72.1796ZM89.0958 23.0142H86.1207L81.1449 15.4808V23.0142H78.1698V10.8007H81.1449L86.1207 18.3689V10.8007H89.0958V23.0142ZM90.7478 16.89C90.7478 15.6838 91.0088 14.6109 91.5307 13.6714C92.0527 12.7203 92.7776 11.9838 93.7055 11.4618C94.645 10.9283 95.7063 10.6615 96.8894 10.6615C98.3392 10.6615 99.5803 11.0443 100.613 11.8098C101.645 12.5753 102.335 13.6192 102.683 14.9414H99.4121C99.1685 14.4311 98.8206 14.0425 98.3682 13.7758C97.9275 13.509 97.4229 13.3756 96.8546 13.3756C95.9383 13.3756 95.196 13.6946 94.6276 14.3325C94.0593 14.9704 93.7751 15.8229 93.7751 16.89C93.7751 17.9571 94.0593 18.8096 94.6276 19.4475C95.196 20.0855 95.9383 20.4044 96.8546 20.4044C97.4229 20.4044 97.9275 20.2711 98.3682 20.0043C98.8206 19.7375 99.1685 19.349 99.4121 18.8386H102.683C102.335 20.1609 101.645 21.2048 100.613 21.9703C99.5803 22.7242 98.3392 23.1012 96.8894 23.1012C95.7063 23.1012 94.645 22.8402 93.7055 22.3182C92.7776 21.7847 92.0527 21.0482 91.5307 20.1087C91.0088 19.1692 90.7478 18.0963 90.7478 16.89ZM107.48 10.8007V23.0142H104.505V10.8007H107.48ZM117.239 20.8568H112.681L111.95 23.0142H108.836L113.255 10.8007H116.7L121.119 23.0142H117.97L117.239 20.8568ZM116.473 18.5602L114.96 14.0889L113.464 18.5602H116.473ZM125.439 20.7176H129.336V23.0142H122.464V10.8007H125.439V20.7176Z" fill="#73B3C2"/>
<path d="M142.22 10.8007L137.888 23.0142H134.165L129.833 10.8007H132.999L136.027 20.0217L139.071 10.8007H142.22ZM146.439 13.1842V15.6548H150.423V17.9513H146.439V20.6306H150.945V23.0142H143.464V10.8007H150.945V13.1842H146.439ZM159.105 23.0142L156.565 18.4037H155.851V23.0142H152.876V10.8007H157.87C158.832 10.8007 159.65 10.9689 160.323 11.3052C161.007 11.6416 161.517 12.1055 161.854 12.6971C162.19 13.277 162.358 13.9265 162.358 14.6457C162.358 15.4576 162.126 16.1825 161.662 16.8204C161.21 17.4584 160.537 17.9107 159.644 18.1775L162.463 23.0142H159.105ZM155.851 16.2985H157.696C158.241 16.2985 158.647 16.1651 158.914 15.8983C159.192 15.6316 159.331 15.2546 159.331 14.7675C159.331 14.3035 159.192 13.9381 158.914 13.6714C158.647 13.4046 158.241 13.2712 157.696 13.2712H155.851V16.2985ZM168.645 23.1359C167.752 23.1359 166.952 22.991 166.244 22.701C165.537 22.411 164.968 21.9819 164.539 21.4135C164.122 20.8452 163.901 20.1609 163.878 19.3606H167.044C167.091 19.8129 167.247 20.1609 167.514 20.4044C167.781 20.6364 168.129 20.7524 168.558 20.7524C168.999 20.7524 169.347 20.6538 169.602 20.4566C169.857 20.2479 169.985 19.9637 169.985 19.6041C169.985 19.3026 169.88 19.0532 169.672 18.856C169.474 18.6588 169.225 18.4964 168.923 18.3689C168.633 18.2413 168.216 18.0963 167.671 17.9339C166.882 17.6903 166.238 17.4468 165.74 17.2032C165.241 16.9596 164.812 16.6001 164.452 16.1245C164.093 15.649 163.913 15.0284 163.913 14.2629C163.913 13.1262 164.325 12.2389 165.148 11.601C165.972 10.9515 167.044 10.6267 168.367 10.6267C169.712 10.6267 170.797 10.9515 171.62 11.601C172.444 12.2389 172.884 13.132 172.942 14.2803H169.724C169.701 13.8859 169.556 13.5786 169.289 13.3582C169.022 13.1262 168.68 13.0102 168.262 13.0102C167.903 13.0102 167.613 13.1088 167.392 13.306C167.172 13.4916 167.062 13.7642 167.062 14.1237C167.062 14.5181 167.247 14.8254 167.619 15.0458C167.99 15.2662 168.57 15.504 169.358 15.7591C170.147 16.0259 170.785 16.2811 171.272 16.5247C171.771 16.7682 172.2 17.122 172.56 17.5859C172.919 18.0499 173.099 18.6472 173.099 19.378C173.099 20.0739 172.919 20.706 172.56 21.2743C172.212 21.8427 171.701 22.295 171.029 22.6314C170.356 22.9678 169.561 23.1359 168.645 23.1359ZM177.905 13.1842V15.6548H181.889V17.9513H177.905V20.6306H182.411V23.0142H174.93V10.8007H182.411V13.1842H177.905Z" fill="#B4DCE3"/>
<defs>
<clipPath id="clip0_1291_9513">
<rect width="30.7367" height="33.9721" fill="white" transform="translate(0 0.0141602)"/>
</clipPath>
</defs>
</svg>
