<svg width="53" height="60" viewBox="0 0 53 60" fill="none" xmlns="http://www.w3.org/2000/svg">
<path d="M26.5132 11.2105C28.6705 11.1443 30.8344 11.1377 32.9851 10.9986C34.4432 10.9059 35.8681 10.9457 37.2863 11.2833C37.819 11.4091 38.1386 11.6805 38.2118 12.2367C38.3516 13.3092 38.5048 14.3751 38.6579 15.441C38.8444 16.7056 38.8444 18.0098 39.5701 19.1419C40.1227 20.0026 40.6754 20.8567 41.248 21.7041C41.7807 22.492 42.1136 23.3262 42.1136 24.2928C42.1003 26.8947 42.1003 29.4899 42.1269 32.0918C42.1269 32.5817 41.9538 32.9393 41.6275 33.2835C40.2692 34.7268 38.8377 36.1171 37.7923 37.8186C37.1598 38.8448 36.6338 39.9306 36.0612 40.9965C36.0079 41.0958 35.948 41.1951 35.8281 41.4004C35.7682 40.97 35.7482 40.6522 35.6683 40.3543C35.5285 39.8048 35.382 39.2487 35.1823 38.7124C34.916 38.004 34.2768 37.6266 33.6975 37.2162C33.1915 36.8586 32.6388 36.574 32.0995 36.2628C31.7999 36.0907 31.6734 35.8788 31.7133 35.508C31.953 33.5152 32.1594 31.5224 32.3792 29.5296C32.5256 28.1989 33.1515 27.08 34.0171 26.1068C34.7895 25.2395 35.6284 24.4318 36.474 23.6373C36.7736 23.3593 37.1931 23.207 37.5327 22.9753C37.8523 22.7568 38.1519 22.4986 38.4182 22.194C37.7591 22.2933 37.1332 22.4655 36.6338 22.8693C35.4686 23.8161 34.3167 24.7827 33.1915 25.7758C32.5589 26.3385 32.4058 26.3783 31.7133 25.9214C31.0209 25.4712 30.8477 24.7959 30.8145 24.0412C30.8011 23.7565 30.8611 23.4453 30.5281 23.207C30.4815 23.3328 30.4083 23.4387 30.4083 23.5446C30.4016 24.2398 30.3883 24.935 30.415 25.6235C30.415 25.789 30.5415 25.9678 30.6347 26.12C30.7678 26.3319 30.9143 26.5305 31.0675 26.7225C31.5935 27.3449 31.8199 27.9606 31.6001 28.8411C31.2539 30.2579 31.1407 31.7343 30.8944 33.1776C30.7545 33.9787 30.5415 34.7732 30.3484 35.5676C30.2485 35.9781 29.9689 36.1767 29.5361 36.19C28.524 36.2164 27.5186 36.2562 26.5065 36.2893C25.5145 36.2562 24.5157 36.2363 23.5236 36.1966C22.9843 36.1767 22.7446 36.0244 22.6181 35.5014C22.3984 34.5878 22.2119 33.6609 22.0521 32.7406C21.7991 31.2973 21.5727 29.8474 21.3264 28.4042C21.2598 28.0202 21.2665 27.6693 21.5062 27.3449C21.7991 26.9476 22.0988 26.5504 22.3784 26.1399C22.4783 25.9943 22.5981 25.8155 22.5981 25.6434C22.6181 24.7959 22.6114 23.9551 22.6114 23.1077C22.5648 23.0944 22.5182 23.0746 22.4783 23.0613C22.3851 23.2666 22.2585 23.4652 22.2186 23.6837C22.1387 24.0875 22.132 24.5112 22.0455 24.9151C21.899 25.5772 21.353 25.9281 20.8137 26.226C20.5274 26.3849 20.2944 26.1664 20.0746 25.9744C19.0026 25.0343 17.9307 24.0941 16.8387 23.1739C16.2062 22.6376 15.4471 22.3265 14.6481 22.1278C14.6215 22.1543 14.5949 22.1874 14.5682 22.2139C14.7879 22.4324 14.9677 22.7303 15.234 22.8495C16.6656 23.4983 17.6577 24.6635 18.703 25.7625C20.1212 27.2522 20.7138 29.053 20.847 31.059C20.9402 32.4295 21.1266 33.7933 21.2665 35.1638C21.2931 35.422 21.2998 35.6868 21.3131 35.9715C21.1466 36.0774 20.9935 36.1701 20.8403 36.276C20.0413 36.8057 19.2091 37.2956 18.45 37.8782C18.1504 38.1099 17.904 38.4939 17.7842 38.8581C17.5578 39.5069 17.4446 40.1954 17.2848 40.8707C17.2582 40.9899 17.2315 41.1091 17.1783 41.3474C16.9985 41.0296 16.852 40.8244 16.7521 40.5927C15.7334 38.1695 14.1354 36.1502 12.3244 34.2766C11.9382 33.8728 11.5387 33.4821 11.1991 33.0386C11.0194 32.8135 10.8662 32.4891 10.8662 32.211C10.8662 29.4303 10.8862 26.6431 10.9328 23.8624C10.9461 23.0547 11.3256 22.3529 11.7784 21.6843C12.2977 20.9163 12.7905 20.1284 13.3031 19.3538C13.8758 18.4931 14.1021 17.5331 14.222 16.5202C14.3884 15.0504 14.6281 13.5873 14.8346 12.1175C14.9011 11.6541 15.1874 11.4157 15.6136 11.3098C16.9985 10.9589 18.3901 10.8927 19.8216 10.9788C22.0521 11.1112 24.296 11.1377 26.5332 11.2105H26.5132ZM34.33 26.8947C35.0691 27.5369 36.4074 27.3912 37.1931 26.6166C38.0853 25.7361 38.3916 24.4781 37.839 23.8426C36.5339 24.7032 35.3554 25.7096 34.33 26.8947ZM15.1408 23.8227C14.5616 24.4384 14.9877 25.8949 15.9465 26.7358C16.7122 27.4044 17.944 27.4905 18.6897 26.8947C17.651 25.7162 16.4725 24.7032 15.1408 23.8227Z" fill="#54B3C3"/>
<path d="M26.5135 51.8806C26.6667 51.9071 26.8132 51.9468 26.9663 51.9534C28.3113 52.0196 29.6629 52.0858 31.0079 52.1322C31.4074 52.1454 31.747 52.0395 32.0266 51.6886C32.7723 50.7617 33.578 49.8812 34.3237 48.9543C34.65 48.5504 34.9496 48.1002 35.156 47.6236C35.2759 47.3455 35.1959 46.9747 35.1893 46.6437C35.1893 46.4451 35.0828 46.2399 35.1227 46.0545C35.3358 45.0614 35.4823 44.0352 35.8418 43.0885C36.4743 41.4333 37.3266 39.8642 38.2454 38.3415C38.9912 37.0968 39.9034 35.9978 40.9154 34.9716C41.5213 34.3559 42.1006 33.7071 42.6666 33.0517C42.813 32.8795 42.9329 32.6147 42.9395 32.3962C42.9595 31.7474 42.8996 31.0986 42.8929 30.4498C42.8929 30.1121 42.9329 29.7745 42.9728 29.4368C42.9862 29.3574 43.086 29.2912 43.2059 29.1455C43.3191 29.3971 43.4123 29.5692 43.4722 29.748C44.3911 32.4028 45.3032 35.0643 46.2221 37.7192C46.2421 37.7788 46.262 37.8383 46.2953 37.8913C46.9478 38.9638 47.0211 40.1092 46.6482 41.281C46.2687 42.486 45.8426 43.6843 45.4231 44.876C45.3698 45.0349 45.2766 45.1739 45.1967 45.3262C45.1634 45.3262 45.1301 45.3196 45.0968 45.313C45.1101 45.1011 45.1301 44.8893 45.1434 44.6708C45.25 42.9296 45.1101 41.2215 44.4443 39.5862C44.4177 39.4736 44.3844 39.3611 44.3578 39.2485C44.3245 39.2551 44.2912 39.2684 44.2579 39.275C44.2845 39.3809 44.3178 39.4869 44.3444 39.5928C44.5375 41.9696 44.158 44.2669 43.3524 46.4981C42.1539 49.7951 40.1364 52.4897 37.2667 54.5553C34.883 56.2701 32.213 57.23 29.3233 57.614C28.3845 57.7398 27.439 57.7597 26.4936 57.8259C23.9634 57.8126 21.5132 57.4022 19.1694 56.4422C15.5407 54.9592 12.7642 52.5096 10.8532 49.1132C9.33514 46.4186 8.54946 43.5188 8.60273 40.4137C8.60273 40.0629 8.65599 39.7053 8.64268 39.3478C7.83037 41.2479 7.73715 43.2474 7.87031 45.2733C7.83702 45.2799 7.81039 45.2931 7.7771 45.2997C7.66391 45.0415 7.54406 44.79 7.44418 44.5251C6.90486 43.1216 6.39883 41.718 6.14582 40.2284C6.0526 39.6987 6.14582 39.2287 6.33891 38.7387C7.18451 36.4811 8.02346 34.2235 8.84908 31.9526C9.13539 31.1714 9.35511 30.3637 9.60813 29.5626C9.65474 29.4236 9.71466 29.2912 9.77459 29.1587H9.92773C9.98765 29.364 10.0942 29.5825 10.0942 29.8009C10.0942 30.4961 10.0676 31.1913 10.0209 31.8864C9.98765 32.4095 10.0942 32.8398 10.4804 33.237C11.3859 34.1705 12.3047 35.104 13.137 36.0971C13.7829 36.8651 14.3821 37.6861 14.8748 38.56C15.6872 39.9966 16.4129 41.4929 17.1453 42.9693C17.3051 43.2937 17.3784 43.6711 17.4649 44.0286C17.6047 44.598 17.7379 45.1673 17.8245 45.7499C17.8644 46.0346 17.7845 46.3458 17.7779 46.6371C17.7779 46.9483 17.7312 47.2859 17.8245 47.5706C17.931 47.9016 18.1241 48.226 18.3438 48.4975C19.2227 49.5766 20.1349 50.6359 21.0271 51.7085C21.2934 52.0263 21.633 52.1256 22.0258 52.0991C23.3309 52.0263 24.6292 51.9534 25.9343 51.8806C26.134 51.8674 26.3338 51.8607 26.5402 51.8475L26.5135 51.8806Z" fill="#54B3C3"/>
<path d="M26.5062 36.8259C28.0576 36.7994 29.609 36.773 31.1604 36.7332C32.492 36.7001 34.6826 38.1236 35.0155 39.4543C35.3285 40.7122 35.6015 41.9767 35.1753 43.281C34.9956 43.8371 34.889 44.4197 34.7292 44.9825C34.6693 45.201 34.5628 45.4062 34.4496 45.6776C34.13 45.6247 33.8437 45.585 33.564 45.5188C32.279 45.2341 31.0072 44.8633 29.7089 44.6779C28.6569 44.5257 27.5716 44.5786 26.5062 44.5455C24.1026 44.3999 21.7789 44.8236 19.4817 45.4923C19.2021 45.5717 18.9158 45.6247 18.5895 45.6975C18.483 45.479 18.3765 45.3069 18.3232 45.1281C18.1301 44.4462 17.9437 43.7577 17.7706 43.0691C17.4376 41.7781 17.5841 40.4739 18.0702 39.2954C18.6295 37.9382 19.808 37.1106 21.2595 36.8458C22.1051 36.6935 22.9907 36.7663 23.8562 36.7663C24.7418 36.7663 25.6273 36.7994 26.5129 36.8193L26.5062 36.8259ZM23.4701 39.4808C23.0506 38.9975 22.6977 38.6002 22.3581 38.1898C22.1584 37.958 21.9453 37.9978 21.7389 38.15C21.366 38.4281 20.9998 38.7194 20.6536 39.024C20.1875 39.4278 19.9545 39.9244 20.1143 40.5533C20.2807 41.1955 20.7535 41.5133 21.3594 41.6656C22.1118 41.8576 22.8442 41.7318 23.5433 41.4338C23.803 41.3279 24.036 41.1558 24.2824 41.0101C24.2824 40.9638 24.2691 40.9241 24.2691 40.8777C24.056 40.785 23.8363 40.6923 23.5966 40.5864C23.5366 40.7784 23.49 40.9042 23.4501 41.0234C22.731 41.3544 22.0119 41.361 21.2928 41.1492C20.7735 40.9969 20.5204 40.4871 20.6403 39.9244C20.7535 39.4146 21.0931 39.1762 21.6923 39.2755C22.1451 39.3484 22.5845 39.5205 23.0306 39.6463C23.1305 39.6728 23.237 39.6794 23.3635 39.6993C23.4101 39.5867 23.4501 39.4874 23.4567 39.4675L23.4701 39.4808ZM28.8699 40.891C28.8899 40.9836 28.8899 41.0168 28.9099 41.0366C28.9498 41.083 28.9964 41.1293 29.0431 41.1624C29.7954 41.6258 30.6211 41.8311 31.4933 41.7185C31.8329 41.6722 32.1858 41.5133 32.4654 41.3147C33.1113 40.8512 33.2378 39.8979 32.7184 39.355C32.3256 38.9445 31.8795 38.5804 31.4267 38.2229C31.2802 38.1037 31.0539 38.0905 30.9673 38.0573C30.4679 38.5738 30.0551 38.9975 29.609 39.4609C29.6756 39.5404 29.7555 39.633 29.8021 39.686C30.3814 39.5337 30.8874 39.3682 31.4001 39.2689C31.9194 39.1696 32.3256 39.4543 32.4521 39.9508C32.5786 40.4408 32.3722 40.9241 31.9194 41.0962C31.1804 41.3743 30.4346 41.3676 29.7222 41.0763C29.6223 40.9241 29.5424 40.7983 29.4359 40.6328C29.2361 40.7254 29.0497 40.8115 28.8699 40.891Z" fill="#54B3C3"/>
<path d="M7.97013 1.68362C6.43872 5.4375 5.38005 9.25095 5.81284 13.3359C5.85279 13.3491 5.89274 13.3623 5.92603 13.3756C6.19902 12.6473 6.47867 11.9124 6.77163 11.1312C7.5906 11.257 8.36962 11.3563 9.14198 11.502C10.2073 11.7006 11.2726 11.9124 12.3313 12.1508C13.3034 12.3693 13.6097 12.7069 13.5431 13.7C13.4566 14.9447 13.2502 16.1827 13.0904 17.4671C12.844 17.5465 12.6376 17.6326 12.4179 17.6856C11.013 18.0232 9.64136 17.8246 8.28306 17.434C6.31221 16.8712 4.43457 16.1099 2.80329 14.8453C2.53696 14.6401 2.27063 14.4216 2.03093 14.1767C0.685954 12.7797 0.452914 11.4026 1.22528 9.62833C2.09751 7.62229 3.39588 5.92742 4.96724 4.42455C5.83947 3.59035 6.73168 2.7694 7.61724 1.94845C7.72377 1.84914 7.84362 1.76307 7.96347 1.677L7.97013 1.68362Z" fill="#54B3C3"/>
<path d="M26.5069 45.3663C27.792 45.4325 29.097 45.3795 30.3554 45.5914C31.5339 45.79 32.6858 46.2203 33.8177 46.6374C34.4503 46.8758 34.5368 47.3591 34.144 47.902C33.7045 48.5177 33.2318 49.1135 32.7524 49.6961C32.4394 50.0801 32.0799 50.4178 31.7603 50.7952C31.474 51.1394 31.1278 51.252 30.695 51.2189C29.6763 51.1394 28.6509 51.0798 27.6322 51.0269C27.2593 51.007 26.8864 51.0269 26.5136 51.0269C25.335 51.0732 24.1499 51.0666 22.978 51.1858C22.0991 51.2785 21.4067 51.1328 20.8607 50.3913C20.2415 49.5571 19.549 48.7825 18.9298 47.9549C18.4237 47.273 18.5636 46.8294 19.3559 46.5249C21.2202 45.8032 23.1312 45.3001 25.1553 45.3596C25.608 45.3729 26.0541 45.3596 26.5069 45.353V45.3663Z" fill="#54B3C3"/>
<path d="M12.0981 18.8708C11.4655 19.9434 10.7531 20.9166 10.2937 21.9891C9.83425 23.0484 9.62118 24.2137 9.28161 25.3789C7.11101 25.2862 5.01365 24.9221 3.03613 23.7833C4.55422 22.0553 6.1389 20.4929 8.25623 19.5792C9.46138 19.0562 10.6998 18.7318 12.0981 18.8775V18.8708Z" fill="#54B3C3"/>
<path d="M46.2021 11.1246C46.4751 11.8529 46.7414 12.5679 47.0011 13.2829L47.1409 13.2697C47.1742 12.8857 47.2009 12.5017 47.2342 12.1177C47.4406 9.52905 46.8014 7.05957 46.0556 4.62319C45.7893 3.74265 45.3832 2.89522 45.0436 2.03454C45.0036 1.93523 44.9703 1.84255 44.937 1.74324C44.9637 1.71675 44.9903 1.69689 45.0169 1.67041C45.3099 1.91537 45.6228 2.14709 45.8958 2.41192C47.0211 3.51755 48.173 4.60333 49.2516 5.75531C50.5167 7.09929 51.4622 8.66837 52.0348 10.4228C52.4609 11.7205 52.0614 12.8989 51.1825 13.9053C50.4435 14.7593 49.5113 15.3816 48.5192 15.9113C46.8613 16.7918 45.1235 17.4406 43.2658 17.7452C42.3403 17.8975 41.4148 17.871 40.4893 17.6856C40.1031 17.6062 39.8767 17.4274 39.8301 16.9838C39.7169 15.9709 39.5105 14.9712 39.4173 13.9582C39.3774 13.561 39.4906 13.1306 39.6237 12.7467C39.697 12.548 39.9433 12.3428 40.1564 12.2766C42.1139 11.7205 44.1181 11.3961 46.1888 11.118L46.2021 11.1246Z" fill="#54B3C3"/>
<path d="M40.8955 18.8774C41.6479 18.7649 42.3204 18.8245 42.9862 18.9767C44.2446 19.2614 45.3899 19.7977 46.4552 20.5193C47.6736 21.3403 48.6924 22.3797 49.6845 23.439C49.7577 23.5118 49.7976 23.6112 49.9042 23.7767C47.9799 24.9618 45.8693 25.2398 43.7053 25.3788C43.3724 24.2202 43.1593 23.055 42.6999 21.9891C42.2405 20.9232 41.5347 19.9566 40.8955 18.8774Z" fill="#54B3C3"/>
<path d="M44.3444 39.613C44.3177 39.5071 44.2844 39.4012 44.2578 39.2953C44.2911 39.2887 44.3244 39.2754 44.3577 39.2688C44.3843 39.3813 44.4176 39.4939 44.4442 39.6064C44.4109 39.6064 44.3776 39.6064 44.3444 39.6064V39.613Z" fill="#54B3C3"/>
</svg>
