<svg width="384" height="413" viewBox="0 0 384 413" fill="none" xmlns="http://www.w3.org/2000/svg">
<mask id="mask0_857_713" style="mask-type:alpha" maskUnits="userSpaceOnUse" x="0" y="0" width="384" height="413">
<rect width="384" height="413" fill="#54B3C3"/>
</mask>
<g mask="url(#mask0_857_713)">
<rect width="384" height="413" fill="#45A1B0"/>
<path opacity="0.2" d="M257.646 127.909C257.646 127.909 262.766 123.905 267.092 123.919C267.092 123.919 272.493 125.746 273.837 127.009C273.837 127.009 277.209 129.32 275.772 137.704L272.493 169.373C272.493 169.373 269.967 180.794 266.89 183.548C266.89 183.548 277.774 159.094 270.948 134.815C270.948 134.815 267.656 127.466 262.094 130.476C262.094 130.476 259.783 130.771 264.338 139.155C264.338 139.155 257.902 130.046 253.857 130.046L257.66 127.909H257.646Z" fill="white"/>
<path d="M137.406 484.341H241.039L241.039 306.823H137.406L137.406 484.341Z" fill="white"/>
<path d="M135.928 257.929C135.928 242.76 159.213 230.466 187.925 230.466C216.638 230.466 239.923 242.76 239.923 257.929C239.923 273.098 216.638 302.564 187.925 302.564C159.213 302.564 135.928 273.085 135.928 257.929Z" fill="#E6D3AA"/>
<path d="M187.766 297.942C191.918 297.458 195.895 296.37 199.63 294.811L202.035 298.788C197.763 300.79 193.168 302.174 188.317 302.738C184.649 303.168 181.008 303.101 177.447 302.631L178.979 298.063C181.868 298.318 184.81 298.291 187.766 297.942Z" fill="#C3B294"/>
<path d="M192.803 258.937C170.727 255.927 149.095 260.966 139.555 270.398C137.218 265.829 135.928 261.476 135.928 257.929C135.928 242.76 159.213 230.466 187.925 230.466C216.638 230.466 239.923 242.76 239.923 257.929C239.923 262.9 237.411 269.417 233.03 275.933C224.606 267.818 210.001 261.301 192.803 258.95V258.937Z" fill="#D4C29C"/>
<path d="M187.925 252.985C165.931 252.985 147.147 260.2 139.542 270.384C137.218 265.829 135.928 261.49 135.928 257.929C135.928 242.76 159.213 230.466 187.925 230.466C216.638 230.466 239.923 242.76 239.923 257.929C239.923 261.476 238.633 265.816 236.309 270.384C228.704 260.2 209.92 252.985 187.925 252.985Z" fill="#ECDDBA"/>
<path d="M135.969 257.043C135.956 257.338 135.929 257.634 135.929 257.93C135.929 261.477 137.219 265.817 139.543 270.385C147.148 260.2 165.932 252.985 187.926 252.985C209.921 252.985 228.705 260.2 236.31 270.385C238.298 266.488 239.521 262.753 239.844 259.528C239.844 259.609 239.844 259.676 239.844 259.757C239.803 263.304 238.473 267.63 236.095 272.172C228.598 261.907 209.881 254.503 187.9 254.275C165.905 254.047 147.054 261.074 139.341 271.178C137.057 266.596 135.821 262.243 135.848 258.682C135.848 258.131 135.902 257.58 135.969 257.043Z" fill="#B9A989"/>
<path d="M187.925 252.985C165.931 252.985 147.147 260.2 139.542 270.384C137.218 265.829 135.928 261.49 135.928 257.929C135.928 242.76 159.213 230.466 187.925 230.466C216.638 230.466 239.923 242.76 239.923 257.929C239.923 261.476 238.633 265.816 236.309 270.384C228.704 260.2 209.92 252.985 187.925 252.985Z" fill="#F2E2BD"/>
<path d="M238.902 268.275C238.929 267.805 238.929 262.592 238.902 262.256C238.419 250.015 217.109 236.526 187.388 238.366C157.627 240.22 139.663 254.893 137.93 266.26C137.876 266.582 137.97 266.972 138.037 267.442C149.646 257.499 167.839 250.553 187.859 249.76C207.878 248.967 225.722 256.948 238.889 268.262L238.902 268.275Z" fill="#E8D2A2"/>
<path d="M187.055 576.581L152.564 433.406L171.577 346.501L159.565 315.181L171.577 301.02H187.055H187.23H202.708L216.319 315.181L201.096 346.501L221.72 433.406L187.23 576.581V577.253L187.136 576.917L187.055 577.253V576.581Z" fill="#C9C9C9"/>
<path d="M187.874 576.581L155.775 433.406L177.206 346.501L161.875 315.181L174.411 301.02H187.874H188.022H201.472L214.021 315.181L198.677 346.501L220.107 433.406L188.022 576.581V577.253L187.941 576.917L187.874 577.253V576.581Z" fill="#CB2026"/>
<path d="M174.411 301.019H184.69C202.036 314.953 190.252 341.946 187.135 348.247C193.437 359.91 194.203 489.904 184.529 561.693L155.775 433.405L177.206 346.501L161.875 315.181L174.411 301.006V301.019Z" fill="#8C181B"/>
<path opacity="0.2" d="M187.135 348.234C190.253 341.946 198.059 321.845 184.69 301.006H187.861H188.009H189.5C202.869 321.832 195.063 341.932 191.946 348.234C197.186 357.935 200.948 448.628 200.572 520.485L187.995 576.58V577.252L187.915 576.916L187.834 577.252V576.58L184.502 561.693C194.176 489.891 193.41 359.91 187.109 348.247L187.135 348.234Z" fill="white"/>
<path d="M219.73 438.659L194.658 346.501L212.407 315.181L198.259 301.02H201.47L214.02 315.181L198.676 346.501L220.106 433.406L219.73 438.659Z" fill="#8C181B"/>
<path d="M177.206 346.501L161.875 315.181L174.411 301.02H178.429L166.699 315.181L181.922 342.215L198.973 345.923L198.677 346.501L198.811 347.025L182.473 350.343L157.697 441.937L155.775 433.406L177.206 346.501Z" fill="#8C181B"/>
<path d="M130.688 258.561C149.338 435.152 187.926 576.54 187.926 576.54C191.944 590.46 182.417 710.363 175.444 776.442C172.381 805.437 164.682 821.937 152.226 820.647C138.616 819.236 119.174 815.823 100.35 810.033C82.6409 804.577 65.5233 797.658 54.8012 792.566L-19.1914 782.247L-7.38107 325.137C16.3337 316.632 93.1613 285.903 130.688 258.561Z" fill="#161616"/>
<path d="M14.7344 316.107C26.9075 305.829 74.6997 289.92 109.728 271.338C108.088 278.285 103.265 285.352 92.0861 290.364C71.9856 299.366 35.7485 318.459 14.7344 340.574V316.107Z" fill="#010101"/>
<path d="M137.299 315.691C139.395 322.342 141.773 328.254 144.272 332.513C150.412 326.641 170.244 309.658 182.928 300.159C183.519 299.715 184.003 299.191 184.164 298.614C184.392 299.379 183.895 300.199 183.21 300.898C172.3 311.969 149.969 333.131 144.205 340.279C144.03 340.494 143.721 340.494 143.56 340.279C141.894 338.143 140.308 335.509 138.803 332.513L137.285 315.691H137.299Z" fill="#C9C9C9"/>
<path d="M162.533 316.537C169.05 311.069 176.05 305.372 181.814 301.019H183.117C178.213 305.99 171.052 312.95 164.119 319.776L162.533 316.537Z" fill="#4D2322"/>
<path d="M156.809 429.198C144.112 361.198 136.01 304.121 130.783 257.861C131.361 257.498 131.885 257.176 132.288 256.961C138.092 300.816 146.705 354.44 159.59 417.912L156.809 429.212V429.198Z" fill="#C9C9C9"/>
<path d="M144.273 332.512C150.413 326.64 170.245 309.657 182.929 300.158C184.259 299.163 185.172 297.739 182.673 296.328C169.519 288.898 144.34 274.79 139.396 267.508C136.131 262.698 131.616 253.575 145.294 242.181C145.294 242.181 133.161 247.34 129.748 259.742C126.336 272.143 134.236 315.461 144.259 332.512H144.273Z" fill="white"/>
<path d="M181.249 300.576C182.499 299.635 184.179 297.512 182.23 296.074C182.378 296.155 181.626 295.053 181.76 295.147C185.536 297.633 184.259 299.165 182.929 300.159C170.245 309.658 150.4 326.655 144.273 332.513L144.152 332.298C150.629 326.198 168.781 309.914 181.249 300.589V300.576Z" fill="#C9C9C9"/>
<path d="M139.235 248.603C135.661 251.237 131.644 255.321 129.601 261.287C129.48 261.65 129.359 262.053 129.252 262.469C129.386 261.448 129.548 260.521 129.763 259.742C133.175 247.34 145.308 242.181 145.308 242.181C142.634 244.411 140.659 246.561 139.222 248.603H139.235Z" fill="#E4D6B4"/>
<path d="M130.689 256.962C131.912 256.545 135.177 275.275 136.467 285.5C139.006 305.654 140.914 325.714 140.229 323.981C139.732 322.731 139.248 321.428 138.764 320.071C135.553 297.525 132.812 275.866 130.676 256.948L130.689 256.962Z" fill="#C9C9C9"/>
<path d="M167.517 300.562C170.903 298.641 171.467 297.445 167.732 296.357C137.93 287.704 134.934 257.862 136.855 262.578C137.541 264.513 138.535 266.166 139.422 267.496C143.479 273.489 160.799 285.783 174.718 292.622C183.922 297.136 182.713 299.38 177.93 302.873C166.764 311.029 154.201 321.993 148.303 328.053C147.954 328.415 147.376 327.999 147.591 327.556C150.48 321.429 158.609 305.628 167.517 300.562Z" fill="#C9C9C9"/>
<path d="M145.174 242.303C154.566 235.155 170.206 230.465 187.928 230.465V233.677C171.563 233.677 156.313 237.855 147.122 244.855C134.909 255.121 140.283 262.322 142.084 265.695C147.727 276.35 183.91 294.636 182.768 296.356C169.708 289.033 144.368 274.791 139.423 267.495C136.172 262.699 131.684 253.629 145.174 242.289V242.303Z" fill="#D6C09A"/>
<path d="M-9.1543 358.23C38.2886 389.644 99.1004 504.106 98.3212 577.185H-9.1543V358.23Z" fill="#010101"/>
<path d="M133.618 577.184H-9.1543V368.575C44.8051 424.967 -44.9212 548.901 133.618 577.184Z" fill="#161616"/>
<path d="M53.9689 356.59C62.4471 351.122 80.7202 336.853 87.7742 332.795C88.016 332.661 87.9892 332.325 87.7339 332.204C83.0313 330.027 59.7196 319.923 53.7808 316.188C53.3778 315.933 53.2971 315.436 53.6465 315.113C56.1456 312.748 76.8641 294.005 92.4903 279.87C98.9262 276.86 105.201 273.77 111.099 270.599C111.355 270.546 111.57 270.478 111.731 270.384C99.7861 281.845 68.7755 311.606 65.4971 314.71C65.1478 315.046 65.2284 315.53 65.6315 315.785C71.5702 319.52 92.8665 329.973 97.5691 332.137C97.8244 332.258 97.8513 332.58 97.6094 332.728C90.542 336.786 73.4916 350.853 65.0134 356.322C64.7581 356.483 64.6641 356.819 64.785 357.101C77.1865 384.349 166.846 546.362 184.595 574.04C184.837 575.061 185.065 576.056 185.307 577.077C189.244 593.805 67.835 388.326 53.7405 357.356C53.6196 357.074 53.7002 356.752 53.9689 356.577V356.59Z" fill="#010101"/>
<path d="M62.0021 356.59C70.4803 351.122 88.7534 336.853 95.8074 332.795C96.0492 332.661 96.0224 332.325 95.7671 332.204C91.0645 330.027 67.7528 319.923 61.814 316.188C61.411 315.933 61.3303 315.436 61.6797 315.113C64.7566 312.197 95.5252 284.385 110.318 271.016C111.958 270.142 113.57 269.256 115.142 268.369C103.197 279.83 72.1867 309.591 68.9083 312.695C68.559 313.031 68.6396 313.514 69.0427 313.77C74.9814 317.505 98.2796 330.014 102.996 332.19C103.251 332.311 103.278 332.634 103.036 332.782C95.9686 336.839 77.709 347.897 69.2308 353.366C68.9755 353.527 68.8814 353.863 69.0024 354.145C81.4039 381.393 169.921 549.157 187.67 576.835C187.912 577.856 185.628 577.144 185.399 577.09C180.106 576.029 75.277 387.023 61.7737 357.356C61.6528 357.074 61.7334 356.752 62.0021 356.577V356.59Z" fill="#010101"/>
<path d="M130.69 256.961C127.882 258.439 119.833 263.894 119.833 263.894C119.833 263.894 73.0086 308.852 68.9375 312.708C68.5882 313.044 68.6688 313.527 69.0719 313.783C75.0106 317.518 98.3088 330.027 103.025 332.204C103.28 332.325 103.307 332.647 103.065 332.795C95.9978 336.853 77.7382 347.91 69.26 353.379C69.0047 353.54 68.9106 353.876 69.0315 354.158C83.126 385.128 191.878 592.864 187.941 576.136C155.775 439.585 139.289 333.453 130.703 256.961H130.69Z" fill="#010101"/>
<path opacity="0.2" d="M103.009 332.204C98.3066 330.027 74.995 317.518 69.0562 313.783C68.6531 313.527 68.5725 313.03 68.9219 312.708C72.993 308.852 119.818 263.894 119.818 263.894C119.818 263.894 121.766 262.578 124.091 261.046C124.091 261.046 82.6804 303.182 77.4672 312.452C76.2849 314.548 77.521 315.825 77.9778 316.107C85.6095 321.038 104.581 331.585 108.733 333.493C108.975 333.601 109.015 333.964 108.76 334.071C104.702 335.751 97.6751 339.902 90.9033 344.027C90.9033 344.027 84.1987 347.816 80.7859 350.665C78.7437 352.358 77.7763 353.997 77.7763 353.997C77.7763 353.997 78.1928 355.596 79.0527 357.208C84.9243 368.4 94.9476 392.894 108.33 420.291C136.855 478.657 175.685 554.464 187.173 572.898C187.428 573.986 187.67 575.048 187.925 576.136C191.862 592.864 83.1104 385.115 69.0159 354.158C68.895 353.876 68.9756 353.554 69.2443 353.379C77.7225 347.91 95.9956 336.852 103.05 332.795C103.291 332.66 103.265 332.324 103.009 332.204Z" fill="white"/>
<path d="M244.989 258.561C226.34 435.151 187.752 576.54 187.752 576.54C183.734 590.459 193.26 710.363 200.234 776.442C203.297 805.437 210.996 821.937 223.451 820.647C237.062 819.236 256.504 815.823 275.328 810.032C293.037 804.577 310.155 797.658 320.877 792.565L399.303 788.87L386.579 332.513C388.46 320.985 282.503 285.903 244.976 258.574L244.989 258.561Z" fill="#161616"/>
<path d="M383.086 361.44V574.429H283.605C282.866 505.408 337.081 399.451 383.086 361.44Z" fill="#010101"/>
<path d="M383.086 376.233V574.416H248.309C416.529 547.772 346.594 436.212 383.086 376.233Z" fill="#161616"/>
<path d="M362.098 317.182V338.733C341.084 316.631 303.947 299.231 283.752 290.189C272.721 285.258 267.884 278.311 266.178 271.459C302.442 290.659 352.223 306.984 362.098 317.182Z" fill="#010101"/>
<path d="M238.378 315.691C236.282 322.342 233.904 328.254 231.405 332.513C225.265 326.641 205.433 309.658 192.749 300.159C192.158 299.715 191.674 299.191 191.513 298.614C191.285 299.379 191.782 300.199 192.467 300.898C203.377 311.969 225.708 333.131 231.472 340.279C231.647 340.494 231.956 340.494 232.117 340.279C233.783 338.143 235.369 335.509 236.874 332.513L238.392 315.691H238.378Z" fill="#C9C9C9"/>
<path d="M213.147 316.537C206.63 311.069 199.63 305.372 193.866 301.019H192.562C197.467 305.99 204.628 312.95 211.561 319.775L213.147 316.537Z" fill="#4D2322"/>
<path d="M218.869 429.198C231.566 361.198 239.668 304.121 244.895 257.861C244.317 257.498 243.793 257.175 243.39 256.96C237.586 300.816 228.973 354.439 216.088 417.912L218.869 429.211V429.198Z" fill="#C9C9C9"/>
<path d="M231.406 332.513C225.266 326.642 205.434 309.658 192.75 300.159C191.42 299.165 190.507 297.74 193.006 296.33C206.16 288.899 231.339 274.792 236.283 267.509C239.548 262.699 244.063 253.576 230.385 242.182C230.385 242.182 242.518 247.342 245.93 259.743C249.343 272.145 241.443 315.463 231.419 332.513H231.406Z" fill="white"/>
<path d="M194.43 300.576C193.18 299.635 191.501 297.512 193.449 296.074C193.301 296.155 194.054 295.053 193.919 295.147C190.144 297.633 191.42 299.165 192.75 300.159C205.434 309.658 225.279 326.655 231.406 332.513L231.527 332.298C225.051 326.198 206.899 309.914 194.43 300.589V300.576Z" fill="#C9C9C9"/>
<path d="M236.442 248.605C240.016 251.238 244.034 255.323 246.076 261.288C246.197 261.651 246.318 262.054 246.425 262.471C246.291 261.45 246.13 260.522 245.915 259.743C242.502 247.342 230.369 242.182 230.369 242.182C233.043 244.413 235.018 246.562 236.456 248.605H236.442Z" fill="#E4D6B4"/>
<path d="M244.989 256.961C243.766 256.545 240.501 275.275 239.211 285.5C236.672 305.654 234.764 325.714 235.449 323.981C235.946 322.731 236.43 321.428 236.914 320.071C240.125 297.525 242.866 275.866 245.002 256.948L244.989 256.961Z" fill="#C9C9C9"/>
<path d="M208.162 300.562C204.776 298.641 204.211 297.445 207.947 296.357C237.748 287.704 240.744 257.862 238.823 262.578C238.138 264.513 237.143 266.166 236.257 267.496C232.199 273.488 214.88 285.782 200.96 292.621C191.756 297.136 192.965 299.38 197.749 302.873C208.914 311.029 221.477 321.993 227.375 328.052C227.725 328.415 228.302 327.999 228.087 327.555C225.199 321.428 217.07 305.628 208.162 300.562Z" fill="#C9C9C9"/>
<path d="M230.506 242.303C221.114 235.155 205.474 230.465 187.752 230.465V233.677C204.117 233.677 219.367 237.855 228.557 244.855C240.771 255.121 235.396 262.322 233.596 265.695C227.953 276.35 191.769 294.636 192.911 296.356C205.971 289.033 231.312 274.791 236.256 267.495C239.508 262.699 243.996 253.629 230.506 242.289V242.303Z" fill="#D6C09A"/>
<path d="M321.709 356.59C313.231 351.122 294.958 336.853 287.904 332.795C287.662 332.661 287.689 332.325 287.944 332.204C292.647 330.027 315.958 319.923 321.897 316.188C322.3 315.933 322.381 315.436 322.031 315.113C319.532 312.748 298.814 294.005 283.188 279.87C276.752 276.86 270.477 273.77 264.579 270.599C264.323 270.546 264.108 270.478 263.947 270.384C275.892 281.845 306.902 311.606 310.181 314.71C310.53 315.046 310.45 315.53 310.046 315.785C304.108 319.52 282.811 329.973 278.109 332.137C277.854 332.258 277.827 332.58 278.068 332.728C285.136 336.786 302.186 350.853 310.664 356.322C310.92 356.483 311.014 356.819 310.893 357.101C298.491 384.349 208.832 546.362 191.083 574.04C190.841 575.061 190.613 576.056 190.371 577.077C186.434 593.805 307.843 388.326 321.937 357.356C322.058 357.074 321.978 356.752 321.709 356.577V356.59Z" fill="#010101"/>
<path d="M313.674 356.59C305.196 351.122 286.923 336.853 279.869 332.795C279.627 332.661 279.654 332.325 279.909 332.204C284.612 330.027 307.923 319.923 313.862 316.188C314.265 315.933 314.346 315.436 313.997 315.113C310.92 312.197 280.151 284.385 265.358 271.016C263.719 270.142 262.106 269.256 260.534 268.369C272.479 279.83 303.49 309.591 306.768 312.695C307.117 313.031 307.037 313.514 306.634 313.77C300.695 317.505 277.397 330.014 272.681 332.19C272.425 332.311 272.398 332.634 272.64 332.782C279.708 336.839 297.967 347.897 306.446 353.366C306.701 353.527 306.795 353.863 306.674 354.145C294.272 381.393 205.755 549.157 188.006 576.835C187.764 577.856 190.048 577.144 190.277 577.09C195.571 576.029 300.399 387.023 313.903 357.356C314.023 357.074 313.943 356.752 313.674 356.577V356.59Z" fill="#010101"/>
<path d="M244.988 256.961C247.797 258.439 255.845 263.894 255.845 263.894C255.845 263.894 302.67 308.852 306.741 312.708C307.09 313.044 307.009 313.527 306.606 313.783C300.668 317.518 277.369 330.027 272.653 332.204C272.398 332.325 272.371 332.647 272.613 332.795C279.68 336.853 297.94 347.91 306.418 353.379C306.674 353.54 306.768 353.876 306.647 354.158C292.552 385.128 183.8 592.864 187.737 576.136C219.903 439.585 236.389 333.453 244.975 256.961H244.988Z" fill="#010101"/>
<path opacity="0.2" d="M272.667 332.203C277.37 330.027 300.681 317.518 306.62 313.782C307.023 313.527 307.104 313.03 306.754 312.707C302.683 308.851 255.858 263.894 255.858 263.894C255.858 263.894 253.91 262.577 251.586 261.046C251.586 261.046 292.996 303.181 298.209 312.452C299.391 314.548 298.155 315.825 297.698 316.107C290.067 321.038 271.095 331.585 266.943 333.493C266.701 333.601 266.661 333.963 266.916 334.071C270.974 335.75 278.001 339.902 284.773 344.027C284.773 344.027 291.478 347.816 294.89 350.665C296.933 352.357 297.9 353.997 297.9 353.997C297.9 353.997 297.484 355.596 296.624 357.208C290.752 368.4 280.729 392.894 267.346 420.29C238.821 478.657 199.991 554.463 188.503 572.898C188.248 573.986 188.006 575.048 187.751 576.136C183.814 592.864 292.566 385.115 306.66 354.158C306.781 353.876 306.701 353.553 306.432 353.379C297.954 347.91 279.681 336.852 272.627 332.794C272.385 332.66 272.412 332.324 272.667 332.203Z" fill="white"/>
<path d="M256.571 192.496C256.786 190.683 257.014 188.882 257.243 187.068C256.517 186.8 255.926 186.558 255.321 186.37C251.747 185.228 248.066 184.489 244.331 185.013C235.624 186.249 226.944 187.579 218.278 189.07C214.986 189.635 211.762 190.696 208.537 191.623C205.688 192.429 202.45 191.368 200.784 188.734C201.805 189.191 202.598 189.527 203.364 189.903C205.353 190.884 207.341 190.898 209.316 189.903C210.418 189.339 211.52 188.775 212.581 188.143C219.407 184.059 226.595 180.794 234.401 179.087C237.048 178.509 239.749 178.12 242.45 177.918C247.475 177.529 251.425 179.92 254.986 183.158C255.577 183.696 256.235 184.22 256.222 185.201C256.222 185.496 256.732 185.805 257.256 186.383C257.35 185.375 257.444 184.798 257.458 184.22C257.538 179.907 257.632 175.594 257.646 171.281C257.646 170.488 257.431 169.601 257.055 168.916C255.725 166.484 254.273 164.119 252.876 161.728C252.097 160.411 251.277 159.108 250.592 157.737C249.96 156.461 250.068 155.158 250.592 153.8C252.849 147.848 255.174 141.923 257.216 135.904C259.285 129.79 258.882 123.986 253.924 119.189C250.108 115.508 245.688 113.532 240.26 114.648C238.473 115.01 236.686 115.373 234.899 115.763C225.453 117.819 216.814 121.903 208.335 126.351C202.786 129.266 197.13 131.94 191.285 134.17C190.062 134.641 188.866 134.775 187.657 134.372C185.924 133.794 184.218 133.136 182.511 132.477C182.189 132.356 181.933 132.088 181.638 131.886C181.074 131.497 180.55 130.999 179.931 130.744C178.682 130.207 177.405 129.736 176.116 129.333C171.816 128.003 167.516 126.7 163.203 125.397C162.814 125.276 162.438 125.168 162.061 125.047C155.29 122.978 148.451 121.164 141.491 119.767C137.688 119.001 134.396 119.7 131.266 121.863C126.724 124.993 123.231 128.971 121.122 134.103C119.63 137.731 118.622 141.493 118.34 145.416C118.045 149.501 118.179 153.559 119.267 157.549C119.765 159.376 120.651 160.908 122.156 162.091C123.554 163.179 124.924 164.308 126.335 165.369C128.001 166.632 128.176 167.25 127.101 169.077C126.254 170.502 125.381 171.899 124.44 173.256C122.304 176.333 120.584 179.625 119.281 183.118C118.434 185.389 117.763 187.727 117.937 190.199C118.045 191.677 118.233 193.141 118.394 194.606C118.676 197.186 119.012 199.765 119.241 202.359C119.281 202.869 119.12 203.648 118.77 203.917C118.179 204.374 117.749 203.648 117.333 203.259C116.567 202.56 115.814 201.861 114.807 200.948C114.941 203.071 115.048 204.817 115.169 206.564C115.196 207.034 115.196 207.531 115.331 207.975C115.626 208.929 116.083 209.829 116.352 210.783C117.964 216.574 120.557 221.922 123.527 227.121C125.811 231.112 127.799 235.29 129.774 239.442C131.481 243.016 133.281 246.523 135.512 249.815C137.782 253.147 140.832 255.646 144.044 257.984C144.5 258.32 144.944 258.548 145.481 258.051C145.414 257.42 145.36 256.775 145.266 256.13C144.971 254.088 145.562 252.327 147.228 251.118C148.652 250.084 150.17 249.143 151.729 248.35C153.771 247.329 155.8 246.308 157.641 244.951C158.044 244.655 158.434 244.346 158.81 244.024C159.092 243.782 159.455 243.648 159.791 243.473C159.75 243.93 159.576 244.212 159.361 244.44C159.146 244.669 158.931 244.884 158.716 245.085C156.875 246.846 154.725 248.176 152.522 249.439C150.99 250.312 149.485 251.266 148.088 252.341C146.341 253.685 146.261 255.592 146.502 257.541C146.704 257.594 146.771 257.635 146.798 257.621C149.082 255.969 151.823 254.974 153.839 252.919C153.906 252.851 153.973 252.784 154.04 252.704C154.228 252.502 154.551 252.408 154.819 252.301C156.136 251.75 157.507 251.481 158.958 251.521C161.363 251.588 163.58 252.435 165.797 253.228C170.19 254.786 174.678 256.049 179.381 257.191C178.292 255.754 177.338 254.477 176.357 253.228C175.403 252.005 174.436 250.809 173.24 249.304C174.436 249.439 174.866 250.03 175.309 250.514C176.855 252.139 178.346 253.819 179.864 255.472C181.087 256.788 182.444 258.038 184.231 258.374C187.402 258.965 190.667 259.046 193.596 257.594C195.289 256.761 196.686 255.283 198.137 253.994C199.32 252.932 200.368 251.723 201.51 250.608C201.711 250.406 202.034 250.352 202.303 250.218C201.873 251.306 201.295 252.193 200.636 253.013C199.978 253.832 199.253 254.585 198.54 255.364C199.306 255.257 199.857 254.907 200.435 254.638C200.798 254.477 201.201 254.329 201.59 254.316C202.531 254.289 203.472 254.276 204.412 254.37C207.69 254.719 210.969 255.136 214.247 255.498C215.658 255.646 217.123 256.022 218.453 255.767C219.447 255.579 220.361 255.418 221.355 255.539C221.745 255.592 222.175 255.458 222.578 255.377C223.854 255.136 225.117 254.867 226.394 254.625C226.689 254.571 227.012 254.625 227.321 254.625C227.361 254.759 227.401 254.894 227.442 255.028C226.676 255.404 225.923 255.781 225.305 256.076C226.568 257.178 227.845 258.28 229.323 259.556C230.196 257.232 231.674 255.337 233.34 253.577C234.227 252.623 235.087 251.629 236.094 250.823C237.895 249.385 239.091 247.504 240.286 245.609C241.093 244.306 241.818 242.949 242.53 241.592C246.467 234.148 249.235 226.221 251.855 218.253C253.01 214.72 254.112 211.159 255.536 207.733C256.41 205.65 257.297 203.662 257.35 201.364C257.404 199.362 257.659 197.374 257.834 195.331C256.396 194.807 256.437 193.665 256.571 192.51V192.496ZM145.723 207.115C142.754 205.986 140.308 204.038 138.454 201.405C138.32 201.217 138.239 201.002 138.118 200.8C138.199 200.706 138.28 200.625 138.36 200.545C138.669 200.76 139.019 200.934 139.287 201.203C142.767 204.844 147.12 206.967 151.863 208.418C153.476 208.915 155.061 209.466 156.674 209.99C156.674 210.111 156.647 210.232 156.633 210.353C156.351 210.38 156.029 210.474 155.773 210.407C152.414 209.332 149.015 208.365 145.723 207.115ZM140.926 199.241C146.287 202.036 152.172 203.004 157.923 204.401C153.852 205.261 142.23 201.767 140.926 199.241ZM171.615 247.679C170.486 246.322 169.532 244.723 169.76 242.976C170.231 239.375 170.956 235.814 170.566 232.133C170.687 232.133 170.822 232.106 170.956 232.093C171.09 232.429 171.346 232.764 171.359 233.114C171.494 235.452 171.883 237.816 171.359 240.141C170.849 242.452 171.037 244.696 171.883 246.899C171.964 247.101 171.964 247.329 171.991 247.544C171.87 247.585 171.749 247.638 171.615 247.679ZM174.705 196.608C172.354 196.541 170.016 196.46 167.584 196.487C169.76 197.737 171.722 199.228 173.402 201.109C172.945 201.861 172.273 201.955 171.547 202.023C168.551 202.291 165.568 202.587 162.572 202.842C161.914 202.896 161.242 202.802 160.57 202.775C160.57 202.654 160.57 202.547 160.57 202.426C163.848 201.794 167.14 201.163 170.513 200.504C169.062 198.731 167.234 197.763 164.023 197.011C163.754 197.307 163.418 197.616 163.15 197.978C161.927 199.524 160.342 200.478 158.474 201.002C154.967 201.982 151.474 200.034 150.399 196.541C150.291 196.205 150.211 195.869 150.076 195.372C148.303 195.466 146.57 195.546 144.433 195.667C147.013 197.965 150.023 198.865 152.468 200.8C152.119 200.746 151.729 200.773 151.42 200.639C148.8 199.443 146.14 198.301 143.6 196.944C142.31 196.259 141.155 196.097 139.919 196.729C138.4 197.495 136.936 198.355 135.471 199.228C134.934 199.537 134.491 200.007 133.819 200.249C133.967 199.98 134.087 199.685 134.289 199.443C137.097 195.976 140.953 194.673 145.186 194.31C148.464 194.015 151.769 193.974 155.048 193.813C154.806 193.706 154.524 193.544 154.215 193.45C148.357 191.771 142.351 190.804 136.318 190.212C132.408 189.823 129.13 191.677 126.093 193.961C125.3 194.566 124.494 195.17 123.567 195.882C123.486 195.95 123.392 196.017 123.298 196.084C123.016 195.117 123.056 194.31 123.271 193.598C123.392 193.195 123.554 192.819 123.742 192.456C125.126 189.688 127.168 187.471 129.895 186.047C131.723 185.093 133.671 184.395 135.606 183.669C136.103 183.481 136.721 183.629 137.285 183.642C137.581 183.642 137.876 183.75 138.159 183.709C142.364 183.105 146.381 184.099 150.385 185.12C156.526 186.679 162.37 189.097 168.229 191.448C169.653 192.013 171.077 192.591 172.528 193.074C173.361 193.343 174.248 193.531 175.121 193.558C177.419 193.625 179.3 192.913 180.12 190.494C180.254 190.078 180.523 189.715 180.832 189.151C180.953 189.527 181.074 189.688 181.047 189.836C180.469 192.994 178.601 195.13 175.766 196.474C175.457 196.621 175.081 196.648 174.732 196.648L174.705 196.608ZM178.373 200.048C178.507 199.792 178.548 199.537 178.695 199.47C180.012 198.731 180.523 197.602 180.657 196.138C180.778 194.807 181.127 193.491 181.369 192.174C181.544 192.174 181.718 192.187 181.907 192.201C181.907 192.926 181.933 193.665 181.907 194.391C181.866 195.211 181.759 196.03 181.705 196.85C181.557 199 180.818 199.752 178.386 200.061L178.373 200.048ZM184.93 239.053C184.93 239.214 184.822 239.362 184.621 239.926C184.446 238.099 184.285 236.648 184.164 235.21C183.949 232.509 183.855 229.782 183.505 227.108C183.196 224.716 182.672 222.338 182.148 219.987C181.436 216.829 181.181 213.699 181.799 210.501C182.054 209.171 182.148 207.814 182.35 206.47C182.444 205.852 182.605 205.234 182.726 204.616H183.156C183.237 204.885 183.371 205.14 183.371 205.395C183.304 207.693 183.344 210.004 183.089 212.274C182.78 215.083 183.089 217.824 183.653 220.538C184.916 226.651 184.97 232.859 184.93 239.066V239.053ZM197.6 195.237C197.425 194.915 197.345 194.418 197.452 194.068C197.721 193.141 198.111 192.241 198.446 191.328C198.581 191.328 198.729 191.354 198.863 191.368C198.876 191.905 199.024 192.47 198.89 192.967C198.554 194.176 198.97 195.13 199.642 196.07C200.005 196.581 200.301 197.145 200.636 197.683C200.542 197.777 200.435 197.871 200.341 197.965C199.199 197.307 198.258 196.393 197.587 195.224L197.6 195.237ZM207.758 242.371C207.032 244.387 205.823 246.107 204.399 247.692C206.28 244.064 207.475 240.369 207.005 236.164C207.193 236.392 207.462 236.594 207.57 236.863C208.376 238.663 208.429 240.517 207.744 242.371H207.758ZM230.666 207.021C229 208.136 222.054 208.714 218.816 208.203C214.046 207.464 210.552 204.589 207.234 201.431C210.929 203.259 214.207 205.879 218.386 206.645C222.403 207.384 226.447 207.182 230.666 207.021ZM221.1 203.03C222.403 202.291 224.607 202.13 227.361 202.668C225.305 202.721 223.303 203.474 221.1 203.03ZM214.153 241.014C217.19 241.982 228.033 251.521 230.72 255.686C228.906 254.867 215.672 243.057 214.153 241.014ZM239.279 194.821C237.841 197.239 235.732 198.919 233.501 200.504C233.609 199.604 234.348 199.161 234.858 198.556C235.396 197.938 236 197.36 236.511 196.715C237.048 196.03 237.519 195.291 238.164 194.364C237.25 193.974 236.538 193.665 235.57 193.249C235.49 195.224 234.603 196.635 233.233 197.75C231.97 198.785 230.666 199.779 228.866 199.94C229.108 199.685 229.336 199.416 229.605 199.188C230.693 198.287 231.822 197.441 232.87 196.487C233.971 195.506 234.415 194.283 233.743 192.564C232.453 192.362 231.029 192.147 229.524 191.932C229.309 192.51 229.175 192.94 229 193.37C227.925 196.07 226.031 197.857 223.129 198.489C219.958 199.174 216.881 197.629 215.618 194.633C215.457 194.257 215.322 193.867 215.094 193.276C213.643 193.665 212.205 194.055 210.66 194.472C211.13 197.038 213.146 198.046 214.785 199.403C212.098 199.174 210.297 197.723 209.168 195.197C207.973 195.399 207.072 196.044 206.253 196.769C204.654 198.18 203.082 199.604 201.496 201.015C201.281 201.203 201.053 201.378 200.838 201.552C200.731 201.458 200.61 201.351 200.502 201.257C200.892 200.773 201.255 200.263 201.685 199.806C202.692 198.717 203.754 197.696 204.721 196.581C206.186 194.861 208.053 193.8 210.149 193.061C214.005 191.69 217.983 190.817 222.067 190.575C226.246 190.32 230.438 190.172 234.63 190.078C237.559 190.011 240.381 190.589 243.054 191.825C243.619 192.08 244.143 192.443 244.613 192.953C242.033 192.725 239.601 191.61 236.954 191.852C240.018 193.692 243.31 194.969 246.803 195.802C244.183 196.42 241.791 195.345 239.292 194.848L239.279 194.821Z" fill="#FDD3B1"/>
<path d="M174.88 129.239C174.88 129.239 142.163 129.239 148.304 149.098C148.304 149.098 154.35 166.457 146.396 173.968C146.396 173.968 136.574 181.237 152.805 187.243C152.805 187.243 174.854 195.224 181.034 188.063C181.034 188.063 184.729 181.587 183.265 209.681C183.265 209.681 186.825 232.926 186.341 239.886L186.382 258.683C186.382 258.683 168.109 261.021 166.657 241.014C166.657 241.014 172.516 213.699 171.978 209.681C171.978 209.681 173.456 204.361 164.897 204.441C164.897 204.441 138.603 200.37 140.914 206.349C140.914 206.349 154.498 219.275 152.039 228.143C152.039 228.143 145.16 243.755 160.007 240.289C160.007 240.289 166.765 240.584 160.007 248.351L148.277 259.556L142.741 263.654L120.545 227.39L114.754 210.461L113.33 186.074L116.796 165.504L110.629 141.211L116.218 110.98L130.299 106.989L149.11 111.907L174.84 129.266L174.88 129.239Z" fill="#E6A77C"/>
<path opacity="0.43" d="M257.754 266.126L252.541 268.706H250.458C250.458 268.706 230.936 285.3 208.632 311.339C197.614 324.211 183.654 365.433 169.721 378.748C153.073 394.683 137.582 410.39 119.416 420.83C110.239 426.11 -19.1507 495.319 -28.1663 497.913L-50 343.075C-21.1661 334.959 83.6221 287.624 100.458 283.539C119.026 279.038 124.656 263.842 124.656 263.842C124.656 263.842 125.22 253.711 128.028 259.623C130.702 265.239 160.369 300.657 179.247 304.097C180.201 304.124 181.141 304.204 182.069 304.365C200.637 304.365 236.109 255.391 250.458 259.623C250.458 259.623 253.616 262.364 257.754 266.113V266.126Z" fill="black"/>
<path d="M130.89 208.97C130.689 207.546 130.675 206.027 131.32 204.737C131.75 203.878 132.435 203.179 133.134 202.547C135.109 200.747 137.34 199.242 139.745 198.087C142.687 196.676 145.885 195.776 148.612 193.989C149.432 193.451 150.265 192.752 150.467 191.785C150.762 190.388 149.62 189.098 148.451 188.278C143.574 184.879 136.99 185.175 131.28 186.841C130.017 187.217 128.74 187.647 127.437 187.606C126.134 187.566 124.736 186.935 124.212 185.725C124.011 185.255 123.877 184.637 123.393 184.476C121.337 186.223 120.934 189.219 120.759 191.906C120.356 198.073 120.423 204.59 123.447 209.978C124.616 212.074 126.201 213.901 127.786 215.701C128.579 216.602 135.969 223.078 135.499 218.792C135.364 217.582 133.067 215.419 132.462 214.183C131.67 212.53 131.132 210.757 130.877 208.956L130.89 208.97Z" fill="#E6A77C"/>
<path d="M192.563 187.62C191.394 189.622 190.695 191.96 190.964 194.271C191.232 196.582 192.589 198.812 194.672 199.806C197.252 201.042 200.382 200.209 202.828 198.718C205.273 197.227 207.275 195.117 209.653 193.518C220.013 186.505 235.464 189.917 244.748 181.52C245.756 180.606 246.576 178.765 245.38 178.094C245.017 177.879 244.56 177.892 244.144 177.905C237.574 178.147 230.882 178.429 224.688 180.646C219.368 182.554 214.007 187.418 208.216 187.459C203.473 187.485 195.653 182.326 192.576 187.62H192.563Z" fill="#E6A77C"/>
<path d="M222.095 249.909C223.532 251.266 224.97 252.623 226.582 253.751C229.216 255.579 232.293 256.748 235.477 257.124C235.961 256.062 235.678 254.772 235.047 253.792C234.415 252.811 233.475 252.072 232.561 251.346C229.525 248.955 226.488 246.563 223.452 244.171C221.49 242.626 217.271 237.803 214.745 237.789C209.035 237.736 220.509 248.444 222.108 249.922L222.095 249.909Z" fill="#E6A77C"/>
<path d="M218.99 264.649C220.401 265.643 221.784 266.369 222.174 268.182C222.389 269.19 222.308 269.983 221.838 270.87C219.554 275.075 217.351 279.321 215.013 283.5C212.245 288.458 209.396 293.348 206.561 298.266C206.387 298.562 206.172 298.844 206.024 299.045C203.847 298.105 201.765 297.204 199.669 296.318C199.077 296.076 198.513 295.78 197.895 296.412C197.667 296.64 197.116 296.586 196.713 296.613C192.83 296.869 188.933 297.11 185.05 297.379C182.954 297.527 180.898 297.688 178.964 298.83C176.626 300.201 174.301 299.878 172.071 298.105C168.645 295.391 165.957 292.032 163.445 288.511C159.145 282.492 155.639 275.975 152.159 269.459C150.251 265.885 149.955 262.392 150.976 258.603C152.494 259.852 153.919 261.075 155.141 262.486C157.331 265.038 159.401 267.699 161.55 270.279C163.74 272.912 165.877 275.599 168.174 278.125C170.069 280.194 172.42 281.686 175.054 282.693C175.685 282.935 176.411 283.003 176.545 283.956C176.585 284.252 177.257 284.521 177.674 284.695C179.031 285.26 180.401 285.824 181.799 286.308C184.593 287.275 186.34 289.25 187.173 292.005C187.549 293.281 188.342 294.181 189.283 294.974C190.371 295.888 191.392 295.646 191.997 294.369C192.265 293.778 192.467 293.16 192.655 292.542C193.246 290.54 194.308 288.847 196.014 287.665C198.338 286.053 200.649 284.413 203.108 283.016C206.951 280.826 210.068 277.964 212.231 274.094C213.32 272.146 214.287 270.117 215.375 268.169C216.195 266.691 217.539 265.71 218.99 264.635V264.649Z" fill="#FDD3B1"/>
<path d="M166.684 246.51C163.043 247.343 159.308 247.947 155.922 249.506C152.536 251.078 149.459 253.819 148.586 257.447C148.089 259.489 148.331 261.639 148.64 263.721C148.935 265.696 149.285 267.658 149.822 269.566C150.521 272.052 151.542 274.43 152.657 276.768C158.206 288.377 166.59 299.233 178.32 304.527C179.664 305.131 181.195 305.669 182.606 305.212C184.957 304.433 185.589 301.195 184.595 298.924C183.6 296.653 181.572 295.054 179.811 293.308C172.045 285.555 169.533 273.073 173.496 262.834C174.786 259.502 176.681 256.412 177.863 253.04C178.669 250.729 180.403 244.36 176.923 243.339C175.391 242.895 173.779 244.158 172.462 244.723C170.608 245.515 168.659 246.039 166.698 246.483L166.684 246.51Z" fill="#D6966B"/>
<path d="M156.136 192.51C159.952 193.719 163.822 194.942 167.826 195.076C171.83 195.211 176.035 194.136 178.87 191.314C179.327 190.857 179.891 190.307 180.523 190.468C181.235 190.642 181.423 191.57 181.477 192.309C181.652 195.184 181.826 198.059 182.001 200.948C183.089 218.899 184.164 236.863 184.769 254.84C184.796 255.727 184.796 256.681 184.258 257.38C183.237 258.669 181.154 258.105 179.744 257.245C175.162 254.464 171.83 249.815 170.258 244.696C168.686 239.563 168.793 234.001 170.15 228.814C171.158 224.931 172.838 221.236 173.778 217.34C174.571 214.035 174.826 210.622 174.692 207.223C174.651 206.255 174.584 205.274 174.275 204.347C173.872 203.151 173.079 202.13 172.206 201.23C168.632 197.508 163.661 195.372 158.582 194.418C153.516 193.464 148.303 193.612 143.157 193.867C139.556 194.042 135.19 193.894 133.376 190.763C133.188 190.427 133.026 189.998 133.228 189.675C133.362 189.46 133.617 189.353 133.859 189.259C137.259 187.942 141.599 186.733 145.146 188.09C148.693 189.447 152.28 191.301 156.15 192.537L156.136 192.51Z" fill="#D6966B"/>
<path d="M144.447 195.681L150.198 194.66L157.493 195.09L167.517 197.038L171.05 200.545C171.05 200.545 159.2 205.449 151.608 200.693C151.608 200.693 143.695 197.038 144.447 195.668V195.681Z" fill="white"/>
<path d="M209.477 194.31L213.171 193.208L220.561 191.354H232.439L234.723 192.187V193.84L232.909 197.4L229.214 199.913C229.214 199.913 219.352 201.995 213.843 199.268C213.843 199.268 210.86 198.233 209.477 194.323V194.31Z" fill="white"/>
<path d="M114.822 215.943C114.473 216.319 114.312 216.493 113.962 216.883V212.463C112.31 212.113 111.436 211.012 110.577 209.869C108.4 207.008 107.285 203.743 106.882 200.222C106.505 196.93 106.25 193.639 105.928 190.347C105.525 186.316 104.49 182.473 102.716 178.805C100.701 174.64 99.129 170.314 98.6722 165.651C98.5647 164.482 98.4707 163.286 98.5378 162.118C98.7797 158.208 99.9486 154.808 103.979 152.981C102.058 146.639 100.164 140.324 98.2154 134.023C96.294 127.775 94.3323 121.54 92.6797 115.158C93.1634 116.166 93.6337 117.174 94.1174 118.181C94.6279 114.487 96.0387 111.275 98.3766 108.454C95.0041 102.206 95.2191 95.6222 96.4284 88.9445C98.0004 80.3051 101.91 72.754 107.338 65.9553C114.648 56.8053 123.22 49.1199 133.714 43.7454C139.048 41.0179 144.637 38.9756 150.388 37.3364C155.279 35.939 160.196 34.7432 165.275 34.2192C176.642 33.0503 186.464 36.5974 195.063 43.8798C199.739 47.83 203.339 52.6132 205.785 58.243C205.906 58.5117 206.04 58.767 206.201 59.076C214.317 56.2947 222.204 57.7861 229.983 60.2584C233.289 61.3064 236.567 62.5694 239.711 64.0339C247.988 67.917 253.617 74.4469 257.594 82.522C260.954 89.3476 262.432 96.5627 261.907 104.181C261.881 104.638 261.907 105.108 261.907 105.444C264.057 106.371 266.046 107.231 268.034 108.091C271.098 109.408 272.307 111.705 271.971 115.037C271.044 124.026 270.238 133.028 269.324 142.017C268.894 146.29 268.357 150.562 267.846 154.97C270.305 154.687 271.353 156.246 271.823 158.181C272.522 161.043 273.086 163.945 273.53 166.86C273.852 169.037 273.503 171.241 272.898 173.35C271.42 178.536 270.533 183.83 269.674 189.138C268.921 193.746 268.048 198.328 267.255 202.923C266.355 208.136 263.668 211.979 258.723 214.075C257.998 214.384 257.662 214.801 257.568 215.647C256.923 221.519 256.157 227.377 255.552 233.262C255.189 236.849 255.042 240.45 254.854 244.051C254.531 250.205 252.905 256.036 250.648 261.733C247.544 269.606 243.084 276.687 238.193 283.54C232.281 291.803 226.181 299.945 220.914 308.652C220.484 309.364 220 310.022 219.503 310.694C219.261 311.016 218.993 311.379 218.657 311.581C216.776 312.669 214.868 313.717 212.96 314.765C208.526 317.197 203.689 318.218 198.731 318.756C192.712 319.414 186.706 319.239 180.713 318.42C176.561 317.855 172.772 316.525 169.239 314.107C163.636 310.264 158.638 305.79 154.204 300.684C148.09 293.63 141.977 286.563 136.078 279.334C129.938 271.81 125.114 263.506 122.306 254.128C120.573 248.337 119.552 242.398 118.598 236.446C117.778 231.367 117.026 226.288 116.193 221.21C116.005 220.014 115.924 218.778 115.131 217.716C114.863 217.353 114.943 216.722 114.836 215.956L114.822 215.943ZM229.338 259.556C230.212 257.232 231.69 255.337 233.356 253.577C234.243 252.637 235.102 251.629 236.11 250.823C237.911 249.385 239.106 247.504 240.302 245.61C241.122 244.306 241.834 242.949 242.546 241.592C246.483 234.148 249.251 226.235 251.871 218.254C253.026 214.72 254.128 211.159 255.552 207.733C256.426 205.651 257.312 203.662 257.366 201.364C257.406 199.362 257.675 197.374 257.85 195.332C256.412 194.808 256.452 193.666 256.587 192.523C256.802 190.71 257.03 188.909 257.259 187.095C256.533 186.827 255.942 186.585 255.337 186.397C251.763 185.241 248.082 184.516 244.346 185.04C235.64 186.276 226.96 187.606 218.294 189.097C215.002 189.662 211.777 190.723 208.553 191.65C205.704 192.456 202.466 191.395 200.8 188.761C201.821 189.218 202.614 189.554 203.38 189.93C205.368 190.911 207.357 190.925 209.332 189.93C210.434 189.366 211.536 188.802 212.597 188.17C219.436 184.086 226.611 180.821 234.417 179.114C237.064 178.536 239.765 178.147 242.465 177.945C247.491 177.556 251.441 179.947 255.001 183.185C255.593 183.723 256.251 184.247 256.237 185.228C256.237 185.523 256.748 185.832 257.272 186.41C257.366 185.402 257.46 184.825 257.474 184.247C257.554 179.934 257.648 175.621 257.662 171.308C257.662 170.515 257.447 169.628 257.07 168.943C255.74 166.511 254.289 164.146 252.892 161.755C252.113 160.438 251.293 159.135 250.608 157.764C249.976 156.488 250.084 155.171 250.608 153.827C252.865 147.875 255.189 141.95 257.232 135.931C259.314 129.817 258.898 124.013 253.94 119.216C250.124 115.535 245.704 113.559 240.275 114.675C238.488 115.051 236.688 115.4 234.914 115.79C225.469 117.846 216.829 121.93 208.351 126.377C202.802 129.28 197.145 131.953 191.301 134.197C190.078 134.668 188.882 134.802 187.673 134.399C185.94 133.821 184.233 133.163 182.527 132.504C182.204 132.383 181.949 132.115 181.654 131.913C181.089 131.524 180.565 131.026 179.947 130.758C178.698 130.22 177.421 129.75 176.131 129.347C171.456 127.896 166.766 126.485 162.077 125.061C155.305 122.992 148.466 121.178 141.507 119.78C137.704 119.014 134.412 119.713 131.282 121.876C126.74 125.007 123.247 128.984 121.137 134.117C119.646 137.744 118.638 141.507 118.356 145.43C118.047 149.514 118.195 153.572 119.283 157.563C119.78 159.403 120.681 160.935 122.172 162.104C123.569 163.192 124.94 164.321 126.351 165.383C128.017 166.645 128.191 167.264 127.116 169.091C126.27 170.515 125.397 171.912 124.456 173.27C122.32 176.346 120.6 179.638 119.297 183.132C118.45 185.402 117.778 187.74 117.953 190.212C118.06 191.677 118.249 193.155 118.41 194.619C118.692 197.199 119.028 199.779 119.256 202.372C119.297 202.896 119.149 203.662 118.786 203.931C118.195 204.388 117.765 203.662 117.348 203.272C116.583 202.574 115.83 201.875 114.822 200.961C114.957 203.071 115.064 204.831 115.185 206.578C115.212 207.048 115.212 207.545 115.346 207.975C115.642 208.929 116.099 209.829 116.368 210.783C117.98 216.574 120.573 221.922 123.542 227.121C125.827 231.112 127.815 235.291 129.79 239.442C131.497 243.03 133.297 246.537 135.541 249.815C137.812 253.147 140.862 255.646 144.059 257.984C144.516 258.32 144.96 258.548 145.497 258.051C145.43 257.42 145.376 256.775 145.282 256.13C144.986 254.088 145.578 252.328 147.244 251.118C148.668 250.084 150.186 249.143 151.758 248.364C154.244 247.114 156.716 245.865 158.839 244.024C159.121 243.782 159.484 243.648 159.82 243.473C159.78 243.93 159.605 244.212 159.39 244.441C157.415 246.523 155.023 248.015 152.551 249.425C151.019 250.299 149.514 251.266 148.117 252.328C146.37 253.671 146.29 255.579 146.532 257.527C146.733 257.581 146.8 257.621 146.827 257.608C149.192 255.902 152.04 254.907 154.069 252.704C154.257 252.502 154.58 252.408 154.849 252.301C156.179 251.75 157.549 251.481 158.987 251.521C161.392 251.589 163.609 252.435 165.826 253.228C170.219 254.786 174.707 256.063 179.41 257.178C178.321 255.74 177.367 254.464 176.387 253.214C175.433 251.992 174.452 250.796 173.269 249.291C174.465 249.425 174.895 250.017 175.339 250.5C176.884 252.126 178.375 253.806 179.893 255.458C181.116 256.775 182.487 258.024 184.26 258.36C187.431 258.952 190.696 259.032 193.625 257.581C195.318 256.748 196.715 255.27 198.167 253.98C199.349 252.919 200.397 251.71 201.539 250.594C201.741 250.406 202.063 250.339 202.332 250.205C201.902 251.293 201.324 252.18 200.666 252.986C200.007 253.806 199.282 254.558 198.57 255.337C199.336 255.23 199.886 254.88 200.464 254.612C200.827 254.45 201.23 254.303 201.62 254.289C202.56 254.262 203.501 254.235 204.441 254.343C207.72 254.692 210.998 255.109 214.276 255.472C215.687 255.619 217.152 255.996 218.482 255.74C219.476 255.552 220.39 255.391 221.384 255.512C221.774 255.566 222.204 255.431 222.607 255.351C223.883 255.109 225.146 254.84 226.423 254.612C226.718 254.558 227.041 254.612 227.35 254.612C227.39 254.746 227.43 254.88 227.471 255.015C226.705 255.391 225.952 255.767 225.334 256.063C226.597 257.165 227.874 258.266 229.352 259.543L229.338 259.556ZM218.993 264.648C217.541 265.723 216.198 266.704 215.378 268.182C214.29 270.13 213.323 272.159 212.234 274.107C210.071 277.977 206.954 280.839 203.111 283.029C200.666 284.426 198.341 286.052 196.017 287.678C194.31 288.86 193.249 290.553 192.658 292.555C192.47 293.173 192.268 293.805 191.999 294.383C191.408 295.659 190.374 295.914 189.285 294.987C188.345 294.194 187.552 293.294 187.176 292.018C186.356 289.25 184.596 287.288 181.801 286.321C180.404 285.837 179.047 285.273 177.677 284.709C177.26 284.534 176.588 284.265 176.548 283.97C176.414 283.016 175.688 282.948 175.056 282.707C172.423 281.699 170.058 280.221 168.177 278.138C165.866 275.612 163.73 272.925 161.553 270.292C159.403 267.698 157.334 265.052 155.144 262.499C153.935 261.088 152.497 259.865 150.979 258.616C149.958 262.405 150.267 265.898 152.161 269.472C155.641 275.989 159.135 282.492 163.448 288.524C165.96 292.045 168.634 295.39 172.074 298.118C174.304 299.891 176.629 300.2 178.966 298.843C180.915 297.701 182.957 297.553 185.053 297.392C188.936 297.11 192.832 296.882 196.715 296.626C197.119 296.6 197.669 296.667 197.898 296.425C198.516 295.793 199.08 296.076 199.671 296.331C201.767 297.218 203.864 298.131 206.027 299.058C206.175 298.857 206.389 298.575 206.564 298.279C209.386 293.361 212.248 288.457 215.015 283.513C217.34 279.334 219.543 275.088 221.841 270.883C222.325 270.009 222.405 269.203 222.177 268.196C221.787 266.382 220.403 265.656 218.993 264.662V264.648ZM152.806 257.769C152.739 257.877 152.658 257.971 152.591 258.078C154.781 260.443 157.052 262.741 159.148 265.186C161.728 268.182 164.187 271.272 166.686 274.349C170.099 278.555 174.425 281.403 179.558 283.029C180.727 283.405 181.963 283.808 183.158 283.822C186.988 283.876 190.83 283.862 194.66 283.687C199.362 283.472 203.474 281.726 206.887 278.394C208.459 276.862 209.829 275.182 210.944 273.288C211.589 272.2 212.261 271.152 213.094 269.821C209.762 270.802 206.793 271.662 203.649 271.783C199.524 271.944 195.399 272.2 191.368 273.234C189.997 273.583 188.6 273.476 187.203 272.992C183.817 271.823 180.283 271.461 176.736 271.702C173.202 271.944 170.058 271.017 167.25 268.975C165.154 267.443 163.166 265.764 161.164 264.124C159.296 262.593 157.495 260.967 155.601 259.462C154.755 258.79 153.76 258.333 152.833 257.783L152.806 257.769ZM257.85 212.597C258.481 212.369 258.938 212.275 259.341 212.06C262.767 210.205 264.917 207.357 265.643 203.541C266.53 198.852 267.309 194.136 268.155 189.433C268.881 185.375 269.579 181.304 270.386 177.26C270.856 174.895 271.649 172.571 271.998 170.193C272.616 166.068 271.42 162.118 270.399 158.181C270.318 157.845 270.144 157.509 269.969 157.213C269.633 156.649 269.244 156.071 268.451 156.233C267.752 156.367 267.336 156.851 267.161 157.549C267.107 157.778 267.067 158.006 267.013 158.248C266.006 162.44 264.958 166.619 263.157 170.555C262.821 171.294 262.633 172.127 262.526 172.934C262.149 175.554 261.733 178.187 261.504 180.834C261.169 184.892 260.994 188.963 260.752 193.021C260.631 195.036 260.591 195.09 258.938 195.99C258.71 201.432 257.863 206.9 257.863 212.61L257.85 212.597ZM104.141 154.311C103.993 154.257 103.832 154.19 103.684 154.136C103.146 154.647 102.555 155.117 102.098 155.695C101.05 157.012 100.473 158.544 100.15 160.196C99.6933 162.507 99.9621 164.778 100.311 167.062C100.97 171.254 102.582 175.124 104.436 178.886C105.941 181.949 106.855 185.16 107.244 188.533C107.661 192.174 107.97 195.815 108.373 199.456C108.816 203.487 110.2 207.142 112.955 210.178C113.197 210.434 113.533 210.608 113.936 210.904C114.07 209.816 114.312 208.942 114.245 208.082C113.989 204.737 113.667 201.378 113.291 198.046C112.955 195.063 112.377 192.093 112.108 189.111C111.719 184.771 110.698 180.632 108.87 176.669C107.164 172.947 105.887 169.091 105.39 165.006C105.108 162.601 104.866 160.196 104.584 157.791C104.45 156.636 104.288 155.48 104.141 154.311ZM159.094 259.543C159.014 259.691 158.933 259.825 158.853 259.973C161.862 262.351 164.818 264.769 167.882 267.067C170.515 269.042 173.484 269.902 176.843 269.7C180.27 269.499 183.669 269.754 186.947 271.004C188.452 271.568 190.051 271.595 191.65 271.205C193.141 270.843 194.646 270.52 196.178 270.399C199.645 270.13 203.125 269.956 206.604 269.795C208.929 269.7 211.038 268.975 212.879 267.645C214.586 266.409 216.104 264.931 217.716 263.574C217.219 263.453 216.816 263.493 216.467 263.654C215.19 264.259 213.914 264.877 212.664 265.535C210.004 266.933 207.182 267.725 204.173 267.672C201.929 267.631 199.698 267.457 197.468 267.336C195.117 267.215 192.779 266.973 190.508 267.994C189.823 268.303 188.842 268.357 188.116 268.115C185.201 267.161 182.285 266.798 179.235 267.322C174.371 268.142 170.005 266.852 166.054 263.99C164.711 263.023 163.367 262.069 161.983 261.169C161.069 260.564 160.075 260.08 159.121 259.543H159.094ZM253.832 184.381C253.711 184.032 253.698 183.75 253.55 183.629C250.997 181.586 248.337 179.773 244.991 179.275C242.425 178.899 239.939 179.396 237.44 179.773C230.789 180.767 224.609 183.266 218.522 185.98C217.461 186.45 216.587 187.351 215.62 188.049C216.749 188.13 217.689 187.861 218.657 187.7C226.087 186.423 233.517 185.12 240.961 183.938C245.005 183.293 249.063 183.199 253.053 184.381C253.255 184.435 253.483 184.381 253.832 184.381Z" fill="black"/>
<path d="M152.806 257.782C153.733 258.333 154.741 258.804 155.574 259.462C157.469 260.967 159.269 262.579 161.137 264.124C163.139 265.777 165.127 267.456 167.223 268.975C170.031 271.017 173.175 271.958 176.709 271.702C180.256 271.46 183.79 271.823 187.176 272.992C188.587 273.476 189.971 273.597 191.341 273.234C195.372 272.199 199.497 271.931 203.622 271.783C206.766 271.662 209.735 270.802 213.067 269.821C212.248 271.151 211.562 272.199 210.917 273.288C209.802 275.182 208.432 276.862 206.86 278.393C203.447 281.726 199.349 283.472 194.633 283.687C190.804 283.862 186.974 283.875 183.132 283.822C181.922 283.808 180.7 283.405 179.531 283.029C174.398 281.403 170.072 278.555 166.659 274.349C164.173 271.272 161.701 268.182 159.121 265.186C157.012 262.754 154.755 260.443 152.564 258.078C152.632 257.971 152.712 257.877 152.779 257.769L152.806 257.782Z" fill="#D6966B"/>
<path d="M257.861 212.61C257.861 206.9 258.708 201.418 258.936 195.99C260.589 195.089 260.629 195.049 260.75 193.02C261.005 188.962 261.18 184.891 261.502 180.834C261.717 178.187 262.134 175.567 262.523 172.933C262.644 172.127 262.819 171.294 263.155 170.555C264.955 166.605 266.003 162.426 267.011 158.248C267.065 158.019 267.105 157.777 267.159 157.549C267.334 156.864 267.75 156.366 268.449 156.232C269.228 156.084 269.618 156.649 269.967 157.213C270.155 157.509 270.316 157.844 270.397 158.18C271.405 162.117 272.614 166.067 271.996 170.192C271.633 172.57 270.854 174.895 270.384 177.26C269.591 181.304 268.879 185.375 268.153 189.433C267.307 194.135 266.541 198.851 265.641 203.541C264.915 207.357 262.765 210.205 259.339 212.059C258.949 212.274 258.493 212.368 257.848 212.597L257.861 212.61Z" fill="#FDD3B1"/>
<path d="M104.152 154.324C104.3 155.479 104.461 156.635 104.596 157.804C104.864 160.209 105.106 162.614 105.402 165.019C105.886 169.104 107.175 172.973 108.882 176.682C110.709 180.645 111.73 184.784 112.12 189.123C112.389 192.12 112.953 195.076 113.302 198.058C113.679 201.404 114.001 204.75 114.256 208.095C114.323 208.955 114.068 209.842 113.947 210.917C113.544 210.621 113.208 210.446 112.966 210.191C110.212 207.141 108.828 203.5 108.385 199.469C107.982 195.828 107.686 192.187 107.256 188.546C106.866 185.187 105.953 181.962 104.448 178.898C102.594 175.123 100.981 171.267 100.323 167.075C99.9737 164.791 99.705 162.52 100.162 160.209C100.484 158.556 101.075 157.025 102.11 155.708C102.567 155.13 103.171 154.66 103.695 154.149C103.843 154.203 104.005 154.27 104.152 154.324Z" fill="#E6A77C"/>
<path d="M159.107 259.556C160.061 260.093 161.055 260.59 161.969 261.182C163.352 262.082 164.709 263.036 166.04 264.003C169.99 266.865 174.357 268.155 179.22 267.335C182.257 266.825 185.186 267.174 188.102 268.128C188.814 268.357 189.808 268.316 190.493 268.007C192.764 266.986 195.102 267.228 197.453 267.349C199.684 267.456 201.928 267.644 204.158 267.685C207.168 267.739 209.989 266.946 212.65 265.548C213.899 264.89 215.176 264.272 216.452 263.667C216.801 263.506 217.204 263.466 217.702 263.587C216.103 264.957 214.571 266.435 212.864 267.658C211.024 268.988 208.914 269.714 206.59 269.808C203.11 269.955 199.63 270.13 196.163 270.412C194.645 270.533 193.127 270.856 191.635 271.218C190.023 271.608 188.424 271.581 186.933 271.017C183.654 269.767 180.242 269.512 176.829 269.714C173.47 269.915 170.5 269.055 167.867 267.08C164.804 264.783 161.848 262.351 158.838 259.986C158.919 259.838 158.999 259.704 159.08 259.556H159.107Z" fill="#D6966B"/>
<path d="M253.829 184.381C253.467 184.381 253.238 184.435 253.05 184.381C249.06 183.199 245.002 183.293 240.958 183.938C233.514 185.12 226.084 186.437 218.654 187.7C217.686 187.861 216.732 188.13 215.617 188.049C216.585 187.35 217.458 186.45 218.519 185.98C224.606 183.266 230.787 180.767 237.437 179.772C239.937 179.396 242.436 178.899 244.989 179.275C248.334 179.772 250.994 181.586 253.547 183.629C253.695 183.75 253.695 184.032 253.829 184.381Z" fill="black"/>
<path d="M180.819 189.125C180.94 189.501 181.061 189.662 181.034 189.81C180.456 192.967 178.589 195.104 175.74 196.447C175.431 196.595 175.055 196.635 174.706 196.622C172.354 196.555 170.016 196.474 167.584 196.501C169.761 197.751 171.723 199.242 173.402 201.136C172.945 201.875 172.274 201.983 171.548 202.05C168.552 202.319 165.569 202.628 162.586 202.87C161.928 202.923 161.256 202.829 160.584 202.803C160.584 202.682 160.584 202.574 160.584 202.453C163.863 201.822 167.154 201.19 170.54 200.532C169.089 198.758 167.262 197.791 164.051 197.038C163.782 197.334 163.446 197.643 163.164 198.006C161.941 199.551 160.356 200.505 158.488 201.029C154.981 202.01 151.488 200.062 150.413 196.568C150.306 196.232 150.225 195.896 150.091 195.399C148.317 195.493 146.584 195.587 144.447 195.695C147.014 197.992 150.037 198.893 152.482 200.827C152.133 200.774 151.743 200.801 151.434 200.666C148.814 199.457 146.154 198.328 143.614 196.971C142.338 196.286 141.169 196.125 139.933 196.756C138.415 197.522 136.95 198.395 135.486 199.255C134.948 199.578 134.505 200.035 133.833 200.277C133.981 200.008 134.102 199.712 134.303 199.47C137.111 196.004 140.981 194.714 145.2 194.338C148.478 194.042 151.784 194.002 155.062 193.841C154.82 193.733 154.538 193.572 154.229 193.478C148.371 191.798 142.365 190.831 136.332 190.24C132.422 189.85 129.144 191.704 126.107 194.002C125.234 194.66 124.36 195.319 123.312 196.111C122.869 194.606 123.232 193.505 123.756 192.484C125.14 189.716 127.182 187.499 129.923 186.075C131.737 185.121 133.699 184.422 135.62 183.696C136.117 183.508 136.735 183.656 137.313 183.67C137.608 183.67 137.904 183.777 138.186 183.737C142.392 183.132 146.409 184.126 150.413 185.147C156.553 186.706 162.385 189.125 168.256 191.476C169.68 192.04 171.105 192.618 172.556 193.102C173.389 193.37 174.276 193.558 175.149 193.585C177.447 193.653 179.328 192.94 180.147 190.522C180.282 190.105 180.55 189.743 180.859 189.178L180.819 189.125ZM172.811 194.754C170.299 193.76 167.786 192.739 165.26 191.798C161.122 190.253 156.997 188.641 152.805 187.257C148.949 185.967 145.012 184.892 140.914 184.65C136.708 184.408 132.718 185.147 129.345 187.902C127.814 189.151 126.295 190.455 125.489 192.443C127.652 191.462 129.695 190.495 131.777 189.608C132.516 189.299 133.363 188.977 134.129 189.031C139.946 189.46 145.724 190.226 151.434 191.489C156.553 192.631 161.673 193.747 166.832 194.701C168.767 195.063 170.769 195.359 172.825 194.754H172.811ZM151.26 195.493C152.294 198.315 154.538 200.25 156.607 200.236C159.106 200.223 161.646 198.664 162.425 196.528C161.982 196.568 161.578 196.528 161.256 196.649C161.014 196.743 160.866 197.079 160.651 197.28C158.421 199.363 156.191 198.825 155.062 195.95C155.022 195.843 154.941 195.762 154.807 195.587C153.947 195.52 153.006 195.426 152.066 195.372C151.851 195.359 151.622 195.44 151.246 195.507L151.26 195.493ZM160.02 196.058C158.542 195.883 157.36 195.749 156.07 195.601C156.997 197.751 158.26 197.939 160.02 196.058Z" fill="black"/>
<path d="M200.516 201.243C200.905 200.76 201.268 200.249 201.698 199.792C202.692 198.704 203.767 197.683 204.735 196.568C206.199 194.848 208.067 193.786 210.163 193.047C214.019 191.677 217.996 190.804 222.081 190.562C226.259 190.306 230.451 190.159 234.643 190.065C237.572 189.997 240.394 190.575 243.068 191.811C243.632 192.067 244.156 192.429 244.626 192.94C242.033 192.711 239.615 191.596 236.968 191.838C240.045 193.679 243.323 194.955 246.816 195.788C244.196 196.406 241.805 195.332 239.306 194.834C237.868 197.253 235.759 198.932 233.528 200.518C233.636 199.618 234.375 199.174 234.885 198.57C235.423 197.952 236.027 197.374 236.538 196.715C237.075 196.03 237.546 195.291 238.19 194.364C237.277 193.974 236.551 193.652 235.597 193.249C235.517 195.224 234.63 196.635 233.259 197.75C231.996 198.785 230.693 199.779 228.893 199.94C229.135 199.685 229.363 199.416 229.632 199.188C230.72 198.287 231.849 197.428 232.897 196.487C233.985 195.506 234.442 194.284 233.77 192.564C232.48 192.376 231.056 192.161 229.538 191.932C229.336 192.51 229.188 192.94 229.014 193.37C227.925 196.084 226.044 197.858 223.142 198.489C219.971 199.188 216.894 197.629 215.631 194.633C215.47 194.257 215.336 193.867 215.107 193.276C213.656 193.665 212.218 194.055 210.673 194.472C211.144 197.038 213.159 198.046 214.798 199.389C212.111 199.161 210.311 197.71 209.182 195.184C207.986 195.385 207.086 196.03 206.266 196.756C204.667 198.167 203.095 199.591 201.51 201.002C201.295 201.19 201.067 201.351 200.852 201.539C200.744 201.445 200.623 201.337 200.516 201.243ZM216.021 193.088C216.975 196.46 219.756 198.207 222.954 197.589C225.856 197.038 228.221 194.364 227.872 191.771C226.716 193.719 225.681 195.654 223.25 195.882C220.724 196.124 219.286 194.445 217.929 192.658C217.284 192.806 216.733 192.926 216.021 193.088ZM219.138 192.402C219.111 192.564 219.084 192.711 219.057 192.873C220.267 194.216 221.637 195.237 223.599 194.74C225.037 194.378 225.937 193.41 226.515 191.704C223.841 191.959 221.489 192.174 219.138 192.389V192.402Z" fill="black"/>
<path d="M183.157 204.602C183.238 204.871 183.372 205.126 183.372 205.395C183.305 207.692 183.345 210.003 183.09 212.274C182.781 215.082 183.09 217.823 183.654 220.537C184.917 226.65 184.971 232.858 184.931 239.065C184.931 239.227 184.823 239.374 184.608 239.939C184.434 238.111 184.273 236.66 184.152 235.223C183.937 232.522 183.843 229.795 183.493 227.121C183.184 224.729 182.66 222.351 182.136 220C181.424 216.856 181.169 213.712 181.787 210.514C182.042 209.184 182.136 207.826 182.338 206.483C182.432 205.851 182.593 205.247 182.714 204.629C182.862 204.629 182.996 204.629 183.144 204.629L183.157 204.602Z" fill="black"/>
<path d="M207.234 201.446C210.929 203.273 214.208 205.893 218.386 206.659C222.404 207.398 226.448 207.196 230.667 207.035C229.001 208.15 222.041 208.728 218.816 208.218C214.046 207.479 210.553 204.603 207.234 201.446Z" fill="black"/>
<path d="M230.735 255.701C228.921 254.881 215.686 243.071 214.168 241.028C217.205 241.996 228.047 251.535 230.735 255.701Z" fill="black"/>
<path d="M138.374 200.558C138.683 200.773 139.033 200.948 139.288 201.217C142.768 204.858 147.121 206.981 151.864 208.432C153.477 208.929 155.062 209.48 156.674 210.004C156.674 210.125 156.648 210.246 156.634 210.367C156.352 210.38 156.029 210.488 155.774 210.407C152.415 209.332 149.016 208.365 145.724 207.115C142.755 205.987 140.309 204.025 138.455 201.418C138.321 201.23 138.24 201.015 138.119 200.814C138.2 200.72 138.28 200.639 138.361 200.545L138.374 200.558Z" fill="black"/>
<path d="M140.939 199.256C146.3 202.037 152.185 203.018 157.936 204.415C153.865 205.275 142.243 201.782 140.939 199.256Z" fill="black"/>
<path d="M171.615 247.692C170.486 246.335 169.532 244.736 169.761 242.989C170.231 239.388 170.956 235.828 170.567 232.146C170.688 232.133 170.822 232.119 170.943 232.106C171.077 232.442 171.333 232.778 171.346 233.127C171.48 235.465 171.87 237.83 171.346 240.154C170.836 242.479 171.024 244.709 171.87 246.913C171.951 247.114 171.951 247.343 171.978 247.557C171.857 247.598 171.736 247.652 171.601 247.692H171.615Z" fill="black"/>
<path d="M204.398 247.705C206.279 244.077 207.475 240.382 207.005 236.177C207.193 236.405 207.462 236.607 207.583 236.875C208.389 238.689 208.443 240.53 207.771 242.384C207.045 244.4 205.836 246.119 204.398 247.705Z" fill="black"/>
<path d="M181.907 192.202C181.907 192.927 181.934 193.666 181.907 194.392C181.867 195.211 181.759 196.031 181.705 196.851C181.558 198.987 180.819 199.739 178.387 200.048C178.521 199.793 178.561 199.538 178.709 199.471C180.026 198.732 180.536 197.603 180.671 196.138C180.792 194.808 181.141 193.492 181.383 192.175L181.92 192.202H181.907Z" fill="black"/>
<path d="M200.356 197.979C199.214 197.307 198.273 196.407 197.601 195.238C197.413 194.916 197.346 194.419 197.454 194.069C197.722 193.142 198.112 192.242 198.448 191.328C198.596 191.342 198.73 191.355 198.878 191.369C198.891 191.906 199.039 192.47 198.905 192.968C198.569 194.177 198.985 195.131 199.657 196.071C200.02 196.582 200.329 197.146 200.651 197.684C200.557 197.778 200.45 197.872 200.356 197.966V197.979Z" fill="black"/>
<path d="M227.375 202.681C225.319 202.735 223.33 203.487 221.113 203.044C222.417 202.318 224.634 202.144 227.375 202.681Z" fill="black"/>
<path d="M172.81 194.754C170.754 195.345 168.752 195.063 166.818 194.7C161.671 193.733 156.539 192.631 151.42 191.489C145.709 190.212 139.945 189.447 134.114 189.03C133.348 188.976 132.502 189.285 131.763 189.608C129.68 190.495 127.624 191.462 125.475 192.443C126.294 190.454 127.812 189.151 129.331 187.901C132.703 185.147 136.694 184.408 140.899 184.65C144.984 184.892 148.934 185.967 152.79 187.257C156.982 188.654 161.107 190.253 165.245 191.798C167.771 192.752 170.284 193.773 172.797 194.754H172.81Z" fill="black"/>
<path d="M151.273 195.492C151.65 195.425 151.865 195.344 152.093 195.358C153.034 195.412 153.961 195.506 154.834 195.573C154.955 195.761 155.049 195.842 155.089 195.936C156.218 198.824 158.448 199.348 160.679 197.266C160.894 197.064 161.041 196.728 161.283 196.634C161.619 196.513 162.009 196.554 162.452 196.513C161.673 198.65 159.134 200.195 156.634 200.222C154.565 200.222 152.321 198.3 151.287 195.479L151.273 195.492Z" fill="#4B95D1"/>
<path d="M160.032 196.057C158.272 197.938 157.023 197.764 156.082 195.6C157.372 195.748 158.554 195.882 160.032 196.057Z" fill="black"/>
<path d="M216.021 193.088C216.734 192.927 217.284 192.806 217.929 192.658C219.286 194.445 220.738 196.125 223.25 195.883C225.682 195.654 226.717 193.719 227.872 191.771C228.208 194.364 225.857 197.038 222.955 197.589C219.757 198.194 216.975 196.46 216.021 193.088Z" fill="#4B95D1"/>
<path d="M219.139 192.403C221.491 192.188 223.842 191.959 226.516 191.718C225.951 193.41 225.051 194.391 223.6 194.754C221.638 195.238 220.254 194.217 219.059 192.886C219.085 192.725 219.112 192.577 219.139 192.416V192.403Z" fill="black"/>
<path d="M159.683 198.167C160.321 198.167 160.838 197.914 160.838 197.603C160.838 197.291 160.321 197.038 159.683 197.038C159.045 197.038 158.527 197.291 158.527 197.603C158.527 197.914 159.045 198.167 159.683 198.167Z" fill="white"/>
<path d="M225.401 195.104C226.292 195.104 227.014 194.749 227.014 194.311C227.014 193.873 226.292 193.518 225.401 193.518C224.511 193.518 223.789 193.873 223.789 194.311C223.789 194.749 224.511 195.104 225.401 195.104Z" fill="white"/>
<path d="M145.266 256.157C145.36 256.789 145.414 257.434 145.481 258.079C144.944 258.576 144.487 258.347 144.044 258.011C140.832 255.674 137.782 253.174 135.512 249.842C133.281 246.55 131.467 243.044 129.774 239.47C127.799 235.304 125.811 231.139 123.527 227.149C120.557 221.935 117.964 216.601 116.352 210.81C116.083 209.856 115.626 208.943 115.331 208.002C115.196 207.559 115.196 207.075 115.169 206.591C115.048 204.845 114.941 203.085 114.807 200.975C115.801 201.889 116.567 202.587 117.333 203.286C117.749 203.676 118.179 204.388 118.77 203.945C119.133 203.676 119.281 202.896 119.241 202.386C119.012 199.793 118.676 197.226 118.394 194.633C118.233 193.169 118.045 191.704 117.937 190.226C117.763 187.754 118.421 185.416 119.281 183.145C120.584 179.639 122.317 176.36 124.44 173.283C125.381 171.926 126.254 170.529 127.101 169.105C128.176 167.277 128.014 166.659 126.335 165.396C124.924 164.321 123.54 163.206 122.156 162.118C120.665 160.936 119.778 159.404 119.267 157.576C118.179 153.586 118.031 149.528 118.34 145.444C118.636 141.52 119.63 137.758 121.122 134.13C123.231 128.998 126.724 125.021 131.266 121.89C134.396 119.727 137.702 119.042 141.491 119.794C148.451 121.191 155.29 123.005 162.061 125.075C162.451 125.195 162.827 125.303 163.203 125.424C161.013 125.115 158.985 124.739 157.883 124.698C152.32 124.497 146.543 124.698 141.544 127.13C131.373 132.088 127.437 145.753 131.333 156.381C132.435 159.377 134.047 162.252 134.302 165.423C134.974 173.969 125.959 180.136 123.755 188.412C123.298 190.119 123.164 191.879 123.271 193.639C123.325 194.405 123.419 195.171 123.567 195.923C124.024 198.301 124.911 200.612 126.093 202.708C128.538 207.021 132.153 210.542 135.982 213.699C140.174 217.166 145.011 220.78 145.965 226.128C146.677 230.131 145.011 234.109 143.909 238.018C142.807 241.928 142.445 246.618 145.199 249.614C149.337 248.082 153.489 246.55 157.641 245.019C155.814 246.376 153.771 247.397 151.729 248.418C150.157 249.197 148.639 250.138 147.228 251.186C145.562 252.395 144.971 254.142 145.266 256.198V256.157Z" fill="#D6966B"/>
<path opacity="0.43" d="M145.952 196.849C145.952 196.849 163.123 195.895 168.659 200.88L170.527 200.517C170.527 200.517 168.941 195.989 150.077 195.371C150.077 195.371 146.516 195.318 144.434 195.667L145.938 196.836L145.952 196.849Z" fill="black"/>
<path opacity="0.43" d="M214.154 198.878C214.154 198.878 213.63 191.797 231.849 193.544C231.849 193.544 234.617 194.605 232.897 196.486C232.897 196.486 234.832 195.828 233.771 192.563C233.771 192.563 220.214 189.365 210.688 194.471C210.688 194.471 211.212 198.139 214.154 198.878Z" fill="black"/>
<path d="M202.357 273.275C202.357 273.275 197.923 272.872 194.832 274.323C194.832 274.323 191.111 276.822 186.583 274.323C186.583 274.323 182.055 273.168 181.45 276.836C181.45 276.836 180.362 282.035 186.583 282.425C186.583 282.425 201.026 283.581 207.234 276.93L211.023 271.461C211.023 271.461 206.199 273.839 202.343 273.262L202.357 273.275Z" fill="#FDD3B1"/>
<path d="M190.426 269.781C190.426 269.781 194.336 268.478 203.943 268.774C204.305 268.626 210.446 269.418 214.785 265.522" stroke="#FDD3B1" stroke-width="1.51958" stroke-linecap="round" stroke-linejoin="round"/>
<g opacity="0.25">
<path d="M200.518 134.345C200.518 134.345 230.991 115.856 244.87 119.457C244.87 119.457 258.172 123.932 250.07 145.617C250.07 145.617 243.997 160.075 249.492 164.992C249.492 164.992 254.692 173.094 250.07 174.532C250.07 174.532 224.703 173.376 209.48 181.183C209.48 181.183 203.944 177.998 219.06 170.192C219.06 170.192 235.25 164.401 224.448 139.531C224.448 139.531 220.994 132.88 206.322 139.531C206.322 139.531 201.781 143.575 199.04 139.826C199.04 139.826 195.036 137.435 200.518 134.331V134.345Z" fill="white"/>
</g>
<path d="M210.687 200.894C214.678 203.594 219.448 205.126 224.258 205.099C230.532 205.032 236.243 202.009 241.093 198.18C239.172 200.222 236.941 201.982 234.469 203.353C226.958 207.706 217.096 206.792 210.674 200.894H210.687Z" fill="white"/>
<path d="M141.316 201.096C147.443 205.584 155.115 207.801 162.666 207.263C165.636 207.088 168.551 206.484 171.44 205.678C169.008 206.793 166.415 207.572 163.741 207.975C155.787 209.198 147.08 206.806 141.303 201.096H141.316Z" fill="white"/>
<path d="M214.154 183.616C224.554 176.763 239.777 171.994 251.547 178C253.213 178.873 254.745 179.975 256.142 181.211C254.597 180.149 253.025 179.182 251.332 178.443C239.374 173.297 225.145 178 214.154 183.616Z" fill="white"/>
<g opacity="0.25">
<path d="M241.108 187.485C241.108 187.485 252.179 191.932 246.791 197.616C246.791 197.616 232.603 208.284 230.735 222.271C230.735 222.271 231.232 235.438 223.788 237.776C223.788 237.776 219.717 239.402 227.913 245.112C227.913 245.112 234.403 249.278 237.359 247.45C237.359 247.45 247.194 232.98 250.862 215.244C250.862 215.244 256.707 193.786 251.762 190.051C251.762 190.051 239.2 183.172 241.121 187.485H241.108Z" fill="white"/>
</g>
<path d="M133.135 181.21C139.638 178.993 149.137 181.21 155.64 183.011C158.368 183.857 161.082 184.744 163.742 185.792C166.349 186.853 169.023 187.807 171.764 188.452C173.591 188.882 175.472 189.205 177.353 188.909C175.512 189.433 173.537 189.245 171.67 188.95C169.788 188.627 167.934 188.143 166.12 187.566C159.026 185.066 151.811 182.621 144.367 181.412C140.672 180.874 136.83 180.35 133.148 181.21H133.135Z" fill="white"/>
<path d="M183.197 199.256C184.904 202.709 185.696 206.632 185.495 210.488L185.468 210.3C185.602 210.838 185.562 211.402 185.589 211.939C185.616 215.392 185.79 218.886 186.556 222.258C186.664 222.675 186.825 223.32 186.892 223.736C187.47 227.216 187.403 230.844 186.583 234.27C186.664 233.276 186.731 232.282 186.744 231.274C186.744 228.305 186.489 225.322 185.656 222.473C185.132 220.512 184.863 218.483 184.729 216.467C184.595 214.6 184.648 212.719 184.635 210.838C184.635 210.703 184.608 210.529 184.595 210.394C184.662 209.467 184.716 208.527 184.689 207.586C184.608 204.751 184.097 201.929 183.211 199.229L183.197 199.256Z" fill="white"/>
<path d="M190.426 268.908C191.501 267.161 197.896 266.933 199.898 266.933C201.779 266.906 203.902 267.013 205.783 267.148C208.148 267.148 211.4 266.1 213.858 264.904C214.611 264.555 215.726 264.017 216.465 263.641C216.075 263.923 215.686 264.219 215.296 264.501C212.461 266.422 209.209 268.034 205.73 268.142C203.513 268.021 201.148 267.9 198.931 267.86C197.157 267.873 191.528 267.658 190.439 268.921L190.426 268.908Z" fill="white"/>
<path d="M188.289 251.373C189.512 255.014 191.299 255.659 194.402 253.335C195.894 252.3 197.399 251.306 199.038 250.473C198.205 251.373 197.305 252.179 196.378 252.959C194.926 254.154 193.475 255.606 191.46 255.673C189.256 255.713 188.208 253.254 188.302 251.373H188.289Z" fill="white"/>
<path d="M205.152 234.995C206.643 238.421 205.931 242.801 203.445 245.596C204.614 242.143 205.205 238.649 205.152 234.995Z" fill="white"/>
<path d="M267.575 159.659C268.717 159.753 269.711 160.586 270.235 161.593C271.323 163.663 271.055 166.081 270.746 168.312C270.289 171.55 269.765 175.07 269.281 178.281C268.125 185.671 266.728 194.136 265.358 201.458C264.672 204.737 263.047 208.176 259.916 209.708C261.851 208.566 263.114 206.604 263.866 204.535C264.605 202.762 264.887 199.94 265.17 198.032C266.056 191.892 267.279 184.274 268.327 178.133C268.878 174.936 269.496 171.415 270.087 168.217C270.678 165.329 271.229 160.653 267.575 159.686V159.659Z" fill="white"/>
<path d="M218.95 266.287C217.096 268.02 215.833 270.237 215.134 272.602C212.326 279.884 205.487 284.896 198.299 287.355C203.808 284.439 209.075 280.785 212.595 275.558C213.28 274.537 213.925 273.449 214.382 272.347C215.255 269.928 216.814 267.684 218.95 266.287Z" fill="white"/>
<path opacity="0.2" d="M197.614 129.428C197.614 129.428 238.701 107.742 225.144 68.9787C225.144 68.9787 227.119 92.6935 214.153 97.6111C214.153 97.6111 222.887 74.7563 204.076 62.61C204.076 62.61 162.424 42.3618 142.754 53.0704C142.754 53.0704 185.521 51.0415 190.882 70.712C190.882 70.712 179.112 50.4638 151.246 59.1435C151.246 59.1435 180.241 59.4391 180.294 81.125C180.294 81.125 165.098 75.0384 163.163 66.09C163.163 66.09 162.411 74.192 164.722 78.814C167.033 83.436 170.795 92.1157 175.135 98.4844C175.135 98.4844 161.82 92.6935 158.501 79.3917C158.501 79.3917 153.368 96.7512 172.784 107.446C172.784 107.446 162.451 103.98 155.196 92.6935C155.196 92.6935 159.428 108.79 172.784 114.339C172.784 114.339 159.28 114.393 155.196 108.024C155.196 108.024 152.28 117.295 174.839 119.458L167.611 122.481C167.611 122.481 179.058 121.326 181.006 125.948C181.006 125.948 185.333 136.065 197.587 129.414L197.614 129.428Z" fill="white"/>
<path opacity="0.2" d="M251.707 110.966C251.707 110.966 256.826 106.962 261.153 106.976C261.153 106.976 266.554 108.803 267.897 110.066C267.897 110.066 271.27 112.377 269.832 120.761L266.554 152.43C266.554 152.43 264.028 163.851 260.951 166.605C260.951 166.605 271.834 142.151 265.009 117.872C265.009 117.872 261.717 110.523 256.154 113.532C256.154 113.532 253.843 113.828 258.398 122.212C258.398 122.212 251.962 113.102 247.918 113.102L251.72 110.966H251.707Z" fill="white"/>
<g opacity="0.25">
<path d="M204.453 252.207C204.453 252.207 207.248 248.74 208.632 244.4C208.632 244.4 211.319 239.053 214.785 244.4C214.785 244.4 220.899 252.972 223.653 253.805C223.653 253.805 214.073 255.969 204.453 252.22V252.207Z" fill="white"/>
</g>
<g opacity="0.25">
<path d="M185.723 198.879C185.723 198.879 187.967 207.236 187.859 213.457C187.859 213.457 187.456 218.858 189.203 222.808C189.203 222.808 191.944 234.444 189.928 242.022C189.928 242.022 187.94 255.995 197.412 248.364C197.412 248.364 203.956 241.229 203.445 232.979C203.445 232.979 200.341 223.547 199.038 216.762C199.038 216.762 195.088 211.293 194.604 207.814C194.604 207.814 193.032 200.76 188.289 196.111C188.289 196.111 184.016 190.253 185.723 198.865V198.879Z" fill="white"/>
</g>
<g opacity="0.25">
<path d="M211.817 211.805C215.095 213.458 221.437 215.822 228.451 214.022C230.238 213.565 231.729 215.406 230.964 217.072C229.378 220.552 225.992 224.663 218.965 223.723C218.011 223.239 208.969 219.531 208.646 213.834C208.552 212.168 210.339 211.039 211.817 211.792V211.805Z" fill="white"/>
</g>
<g opacity="0.25">
<path d="M167.718 210.313C164.48 211.952 158.192 214.29 151.259 212.503C149.499 212.046 148.021 213.873 148.773 215.526C150.345 218.979 153.691 223.037 160.651 222.109C161.591 221.626 170.553 217.971 170.862 212.328C170.956 210.675 169.196 209.56 167.718 210.313Z" fill="white"/>
</g>
<g opacity="0.33">
<path d="M156.164 49.9788C176.829 52.3838 216.976 61.8832 214.275 88.9972C213.872 92.6922 212.703 96.2393 211.158 99.5849L210.836 98.8862C214.571 99.6521 218.252 97.5023 220.442 94.5463C223.224 90.9052 224.46 86.31 225.468 81.903C226.744 87.6133 225.965 93.5789 223.963 99.0071C218.655 113.33 205.972 123.38 192.804 130.233L196.042 128.352C199.697 126.108 203.473 123.582 206.738 120.827C215.296 113.814 222.552 104.435 224.648 93.364C225.199 90.3811 225.441 87.2237 224.944 84.2274H225.83C224.917 88.0701 223.6 91.9129 221.195 95.1107C218.817 98.3622 214.678 100.74 210.553 99.8536L209.976 99.7192C211.588 96.2796 212.891 92.6519 213.294 88.8897C216.089 62.6624 176.13 52.9347 156.164 49.9788Z" fill="white"/>
</g>
<path opacity="0.2" d="M256.828 209.694C256.828 209.694 256.519 219.005 255.713 223.856C255.713 223.856 254.02 237.386 254.047 243.822C254.047 243.822 252.959 261.893 239.469 280.019C239.469 280.019 224.138 300.724 219.893 308.893C219.893 308.893 225.63 294.57 233.288 284.6C233.288 284.6 247.477 266.193 251.736 243.97C251.736 243.97 252.65 227.551 254.504 222.808C254.504 222.808 256.761 215.149 256.815 209.694H256.828Z" fill="white"/>
<path opacity="0.2" d="M195.6 258.131C195.6 258.131 199.939 255.538 201.673 255.202C201.673 255.202 214.182 255.578 216.452 256.667C216.452 256.667 219.973 256.505 223.641 256.21C223.641 256.21 227.121 257.083 228.854 260.254C228.854 260.254 223.708 256.788 216.452 258.615C216.452 258.615 208.928 259.851 202.6 257.11C202.6 257.11 199.738 256.385 195.6 258.131Z" fill="white"/>
<path opacity="0.2" d="M190.158 299.69C190.158 299.69 196.137 299.502 199.026 298.198C199.026 298.198 210.823 304.271 207.235 313.677C207.235 313.677 205.529 316.283 201.485 316.565C201.485 316.565 204.951 305.521 191.219 304.097C191.219 304.097 187.269 304.701 186.355 299.058C186.355 299.058 187.242 299.891 190.171 299.676L190.158 299.69Z" fill="white"/>
</g>
</svg>
