<svg width="300" height="322" viewBox="0 0 300 322" fill="none" xmlns="http://www.w3.org/2000/svg">
<mask id="mask0_1299_2894" style="mask-type:alpha" maskUnits="userSpaceOnUse" x="0" y="0" width="300" height="322">
<rect x="0.738281" y="0.742188" width="298.523" height="321.068" fill="#54B3C3"/>
</mask>
<g mask="url(#mask0_1299_2894)">
<rect x="0.738281" y="0.742188" width="298.523" height="321.068" fill="#45A1B0"/>
<path opacity="0.2" d="M201.032 100.18C201.032 100.18 205.011 97.067 208.375 97.0774C208.375 97.0774 212.574 98.498 213.618 99.4798C213.618 99.4798 216.24 101.276 215.122 107.794L212.574 132.414C212.574 132.414 210.61 141.292 208.218 143.434C208.218 143.434 216.679 124.423 211.372 105.549C211.372 105.549 208.813 99.835 204.489 102.175C204.489 102.175 202.692 102.405 206.233 108.922C206.233 108.922 201.23 101.84 198.086 101.84L201.042 100.18H201.032Z" fill="white"/>
<path d="M107.557 377.272H188.121L188.121 239.268H107.557L107.557 377.272Z" fill="white"/>
<path d="M106.406 201.258C106.406 189.465 124.508 179.907 146.83 179.907C169.151 179.907 187.253 189.465 187.253 201.258C187.253 213.05 169.151 235.957 146.83 235.957C124.508 235.957 106.406 213.04 106.406 201.258Z" fill="#E6D3AA"/>
<path d="M146.706 232.364C149.933 231.988 153.025 231.142 155.929 229.93L157.798 233.022C154.477 234.578 150.905 235.654 147.134 236.093C144.282 236.427 141.452 236.375 138.684 236.009L139.874 232.458C142.12 232.656 144.408 232.635 146.706 232.364Z" fill="#C3B294"/>
<path d="M150.621 202.041C133.46 199.701 116.643 203.618 109.226 210.951C107.409 207.399 106.406 204.015 106.406 201.258C106.406 189.465 124.508 179.907 146.83 179.907C169.151 179.907 187.253 189.465 187.253 201.258C187.253 205.122 185.3 210.188 181.894 215.254C175.345 208.945 163.991 203.879 150.621 202.052V202.041Z" fill="#D4C29C"/>
<path d="M146.83 197.414C129.731 197.414 115.128 203.023 109.216 210.94C107.409 207.399 106.406 204.026 106.406 201.258C106.406 189.465 124.508 179.907 146.83 179.907C169.151 179.907 187.253 189.465 187.253 201.258C187.253 204.015 186.25 207.389 184.443 210.94C178.531 203.023 163.928 197.414 146.83 197.414Z" fill="#ECDDBA"/>
<path d="M106.438 200.569C106.428 200.799 106.407 201.028 106.407 201.258C106.407 204.016 107.41 207.39 109.217 210.941C115.129 203.023 129.731 197.414 146.83 197.414C163.929 197.414 178.532 203.023 184.444 210.941C185.989 207.912 186.94 205.008 187.191 202.501C187.191 202.564 187.191 202.616 187.191 202.679C187.159 205.436 186.125 208.8 184.276 212.33C178.448 204.35 163.898 198.595 146.809 198.417C129.71 198.239 115.055 203.702 109.06 211.557C107.284 207.995 106.323 204.611 106.344 201.843C106.344 201.415 106.386 200.987 106.438 200.569Z" fill="#B9A989"/>
<path d="M146.83 197.414C129.731 197.414 115.128 203.023 109.216 210.94C107.409 207.399 106.406 204.026 106.406 201.258C106.406 189.465 124.508 179.907 146.83 179.907C169.151 179.907 187.253 189.465 187.253 201.258C187.253 204.015 186.25 207.389 184.443 210.94C178.531 203.023 163.928 197.414 146.83 197.414Z" fill="#F2E2BD"/>
<path d="M186.458 209.301C186.479 208.935 186.479 204.882 186.458 204.621C186.082 195.106 169.516 184.619 146.411 186.05C123.274 187.491 109.309 198.897 107.962 207.734C107.92 207.985 107.993 208.288 108.045 208.653C117.07 200.924 131.213 195.523 146.776 194.907C162.34 194.291 176.211 200.495 186.448 209.29L186.458 209.301Z" fill="#E8D2A2"/>
<path d="M146.153 448.979L119.34 337.674L134.12 270.114L124.782 245.766L134.12 234.757H146.153H146.289H158.322L168.903 245.766L157.068 270.114L173.102 337.674L146.289 448.979V449.501L146.216 449.24L146.153 449.501V448.979Z" fill="#C9C9C9"/>
<path d="M146.79 448.979L121.836 337.674L138.496 270.114L126.578 245.766L136.324 234.757H146.79H146.905H157.36L167.116 245.766L155.188 270.114L171.848 337.674L146.905 448.979V449.501L146.842 449.24L146.79 449.501V448.979Z" fill="#CB2026"/>
<path d="M136.324 234.756H144.314C157.799 245.588 148.639 266.573 146.215 271.472C151.114 280.538 151.709 381.596 144.189 437.406L121.836 337.674L138.496 270.114L126.578 245.766L136.324 234.746V234.756Z" fill="#8C181B"/>
<path opacity="0.2" d="M146.215 271.461C148.639 266.573 154.707 250.947 144.314 234.746H146.779H146.894H148.054C158.447 250.936 152.378 266.562 149.955 271.461C154.028 279.003 156.953 349.508 156.661 405.37L146.884 448.979V449.501L146.821 449.24L146.758 449.501V448.979L144.168 437.406C151.689 381.586 151.093 280.538 146.194 271.472L146.215 271.461Z" fill="white"/>
<path d="M171.553 341.758L152.062 270.114L165.861 245.766L154.862 234.757H157.358L167.114 245.766L155.186 270.114L171.846 337.674L171.553 341.758Z" fill="#8C181B"/>
<path d="M138.496 270.114L126.578 245.766L136.324 234.757H139.447L130.328 245.766L142.162 266.782L155.418 269.665L155.188 270.114L155.292 270.521L142.591 273.101L123.33 344.307L121.836 337.674L138.496 270.114Z" fill="#8C181B"/>
<path d="M102.33 201.749C116.828 339.031 146.827 448.947 146.827 448.947C149.95 459.768 142.544 552.982 137.123 604.352C134.741 626.893 128.756 639.72 119.074 638.717C108.492 637.621 93.3781 634.967 78.7443 630.466C64.9774 626.225 51.6701 620.845 43.3347 616.887L-14.1875 608.865L-5.00609 253.505C13.4299 246.893 73.156 223.005 102.33 201.749Z" fill="#161616"/>
<path d="M12.1875 246.486C21.6509 238.495 58.8049 226.128 86.0357 211.682C84.7614 217.082 81.0116 222.576 72.3211 226.472C56.6949 233.471 28.5239 248.314 12.1875 265.507V246.486Z" fill="#010101"/>
<path d="M107.471 246.162C109.101 251.332 110.95 255.928 112.892 259.239C117.666 254.675 133.083 241.472 142.944 234.087C143.403 233.743 143.779 233.335 143.905 232.886C144.082 233.481 143.696 234.119 143.163 234.662C134.681 243.269 117.321 259.72 112.84 265.277C112.704 265.444 112.464 265.444 112.339 265.277C111.044 263.616 109.811 261.569 108.641 259.239L107.461 246.162H107.471Z" fill="#C9C9C9"/>
<path d="M127.086 246.82C132.152 242.569 137.594 238.14 142.075 234.756H143.088C139.276 238.621 133.708 244.031 128.318 249.337L127.086 246.82Z" fill="#4D2322"/>
<path d="M122.635 334.403C112.764 281.539 106.466 237.168 102.402 201.205C102.851 200.923 103.259 200.672 103.572 200.505C108.085 234.598 114.78 276.286 124.797 325.629L122.635 334.414V334.403Z" fill="#C9C9C9"/>
<path d="M112.891 259.239C117.665 254.674 133.082 241.471 142.942 234.086C143.977 233.313 144.687 232.206 142.744 231.109C132.518 225.333 112.944 214.366 109.1 208.704C106.562 204.965 103.052 197.873 113.685 189.015C113.685 189.015 104.253 193.026 101.6 202.667C98.9469 212.308 105.089 245.984 112.881 259.239H112.891Z" fill="white"/>
<path d="M141.636 234.411C142.608 233.68 143.913 232.03 142.399 230.912C142.514 230.975 141.929 230.118 142.033 230.191C144.968 232.124 143.976 233.314 142.942 234.087C133.082 241.472 117.654 254.685 112.891 259.24L112.797 259.072C117.832 254.33 131.943 241.671 141.636 234.422V234.411Z" fill="#C9C9C9"/>
<path d="M108.972 194.008C106.193 196.055 103.07 199.23 101.483 203.868C101.389 204.15 101.294 204.463 101.211 204.787C101.315 203.993 101.441 203.273 101.608 202.667C104.261 193.026 113.693 189.015 113.693 189.015C111.614 190.749 110.079 192.42 108.961 194.008H108.972Z" fill="#E4D6B4"/>
<path d="M102.331 200.506C103.281 200.182 105.819 214.743 106.822 222.691C108.796 238.359 110.28 253.954 109.747 252.607C109.36 251.635 108.984 250.622 108.608 249.567C106.112 232.04 103.981 215.202 102.32 200.495L102.331 200.506Z" fill="#C9C9C9"/>
<path d="M130.963 234.401C133.595 232.907 134.033 231.978 131.13 231.132C107.962 224.405 105.633 201.206 107.126 204.872C107.659 206.376 108.432 207.661 109.121 208.695C112.276 213.354 125.74 222.911 136.561 228.228C143.716 231.738 142.776 233.482 139.058 236.198C130.378 242.538 120.611 251.061 116.026 255.772C115.754 256.054 115.305 255.73 115.472 255.386C117.718 250.623 124.037 238.339 130.963 234.401Z" fill="#C9C9C9"/>
<path d="M113.592 189.11C120.893 183.553 133.051 179.907 146.829 179.907V182.404C134.106 182.404 122.251 185.652 115.106 191.094C105.611 199.074 109.79 204.673 111.189 207.295C115.576 215.578 143.705 229.794 142.818 231.131C132.665 225.438 112.965 214.366 109.121 208.694C106.593 204.965 103.105 197.915 113.592 189.099V189.11Z" fill="#D6C09A"/>
<path d="M-6.38672 279.232C30.4956 303.653 77.771 392.637 77.1652 449.449H-6.38672V279.232Z" fill="#010101"/>
<path d="M104.605 449.448H-6.38672V287.275C35.5616 331.114 -34.1921 427.461 104.605 449.448Z" fill="#161616"/>
<path d="M42.6879 277.957C49.2789 273.706 63.4845 262.613 68.9683 259.459C69.1563 259.354 69.1354 259.093 68.9369 258.999C65.2811 257.307 47.1585 249.452 42.5416 246.548C42.2283 246.35 42.1656 245.963 42.4372 245.713C44.38 243.874 60.4867 229.303 72.6346 218.315C77.6379 215.975 82.5158 213.573 87.1013 211.108C87.2997 211.066 87.4669 211.014 87.5922 210.94C78.3063 219.85 54.1986 242.987 51.6499 245.399C51.3784 245.661 51.441 246.037 51.7544 246.235C56.3712 249.139 72.927 257.265 76.5829 258.947C76.7813 259.041 76.8022 259.292 76.6142 259.407C71.12 262.561 57.8649 273.497 51.2739 277.749C51.0755 277.874 51.0023 278.135 51.0963 278.354C60.7374 299.537 130.439 425.487 144.237 447.004C144.425 447.798 144.603 448.571 144.791 449.365C147.851 462.369 53.4674 302.629 42.5103 278.553C42.4163 278.333 42.479 278.083 42.6879 277.947V277.957Z" fill="#010101"/>
<path d="M48.934 277.957C55.525 273.706 69.7306 262.613 75.2143 259.459C75.4024 259.354 75.3815 259.093 75.183 258.999C71.5271 257.307 53.4046 249.452 48.7877 246.548C48.4744 246.35 48.4117 245.963 48.6833 245.713C51.0753 243.446 74.995 221.824 86.4953 211.431C87.7696 210.752 89.023 210.063 90.2451 209.374C80.9593 218.283 56.8515 241.42 54.3029 243.833C54.0313 244.094 54.0939 244.47 54.4073 244.668C59.0241 247.572 77.1363 257.297 80.8026 258.989C81.001 259.083 81.0219 259.333 80.8339 259.448C75.3397 262.603 61.1445 271.199 54.5535 275.45C54.3551 275.576 54.282 275.837 54.376 276.056C64.017 297.239 132.831 427.659 146.629 449.177C146.817 449.971 145.041 449.417 144.864 449.375C140.748 448.55 59.2539 301.616 48.7564 278.553C48.6624 278.333 48.7251 278.083 48.934 277.947V277.957Z" fill="#010101"/>
<path d="M102.33 200.505C100.147 201.654 93.8907 205.895 93.8907 205.895C93.8907 205.895 57.4888 240.845 54.3239 243.843C54.0523 244.104 54.115 244.48 54.4284 244.679C59.0452 247.582 77.1573 257.307 80.8236 258.999C81.0221 259.093 81.043 259.344 80.855 259.459C75.3607 262.613 61.1656 271.21 54.5746 275.461C54.3761 275.586 54.303 275.847 54.397 276.067C65.3541 300.143 149.898 461.638 146.838 448.633C121.832 342.478 109.015 259.97 102.341 200.505H102.33Z" fill="#010101"/>
<path opacity="0.2" d="M80.8119 258.999C77.1561 257.307 59.0335 247.582 54.4166 244.678C54.1033 244.48 54.0406 244.094 54.3122 243.843C57.4771 240.845 93.879 205.895 93.879 205.895C93.879 205.895 95.3936 204.871 97.2006 203.681C97.2006 203.681 65.0082 236.437 60.9554 243.644C60.0362 245.274 60.9972 246.266 61.3523 246.485C67.2853 250.319 82.034 258.518 85.2616 260.002C85.4496 260.085 85.481 260.367 85.2825 260.451C82.128 261.756 76.6651 264.984 71.4007 268.191C71.4007 268.191 66.1885 271.136 63.5354 273.351C61.9477 274.667 61.1956 275.941 61.1956 275.941C61.1956 275.941 61.5195 277.184 62.188 278.438C66.7525 287.139 74.5447 306.18 84.9482 327.478C107.124 372.853 137.311 431.785 146.241 446.116C146.44 446.962 146.628 447.787 146.826 448.633C149.887 461.638 65.3424 300.133 54.3853 276.067C54.2913 275.847 54.354 275.597 54.5629 275.461C61.1539 271.21 75.3595 262.613 80.8433 259.459C81.0313 259.354 81.0104 259.093 80.8119 258.999Z" fill="white"/>
<path d="M191.192 201.748C176.694 339.031 146.695 448.947 146.695 448.947C143.572 459.768 150.978 552.982 156.399 604.352C158.781 626.893 164.766 639.72 174.449 638.717C185.03 637.62 200.144 634.967 214.778 630.465C228.545 626.224 241.852 620.845 250.187 616.886L311.157 614.014L301.265 259.239C302.727 250.277 220.356 223.004 191.182 201.759L191.192 201.748Z" fill="#161616"/>
<path d="M298.55 281.728V447.306H221.213C220.638 393.649 262.785 311.277 298.55 281.728Z" fill="#010101"/>
<path d="M298.55 293.228V447.296H193.773C324.549 426.583 270.181 339.855 298.55 293.228Z" fill="#161616"/>
<path d="M282.233 247.321V264.075C265.897 246.892 237.026 233.366 221.326 226.336C212.751 222.503 208.991 217.102 207.664 211.775C235.856 226.702 274.556 239.393 282.233 247.321Z" fill="#010101"/>
<path d="M186.055 246.162C184.426 251.332 182.577 255.928 180.634 259.239C175.86 254.675 160.443 241.472 150.583 234.087C150.123 233.742 149.747 233.335 149.622 232.886C149.444 233.481 149.831 234.118 150.363 234.661C158.845 243.268 176.205 259.72 180.686 265.277C180.822 265.444 181.062 265.444 181.188 265.277C182.483 263.616 183.715 261.569 184.885 259.239L186.065 246.162H186.055Z" fill="#C9C9C9"/>
<path d="M166.44 246.82C161.374 242.568 155.932 238.14 151.451 234.755H150.438C154.25 238.62 159.817 244.031 165.207 249.337L166.44 246.82Z" fill="#4D2322"/>
<path d="M170.885 334.403C180.756 281.539 187.054 237.167 191.117 201.204C190.668 200.922 190.261 200.672 189.948 200.504C185.435 234.598 178.74 276.285 168.723 325.629L170.885 334.413V334.403Z" fill="#C9C9C9"/>
<path d="M180.631 259.239C175.857 254.675 160.44 241.472 150.58 234.087C149.546 233.314 148.836 232.207 150.778 231.11C161.004 225.334 180.579 214.366 184.423 208.705C186.961 204.966 190.47 197.873 179.837 189.016C179.837 189.016 189.269 193.027 191.922 202.668C194.575 212.309 188.434 245.984 180.641 259.239H180.631Z" fill="white"/>
<path d="M151.887 234.411C150.915 233.68 149.61 232.029 151.124 230.912C151.009 230.974 151.594 230.118 151.49 230.191C148.555 232.123 149.547 233.314 150.581 234.087C160.441 241.472 175.869 254.685 180.632 259.239L180.726 259.072C175.692 254.33 161.58 241.67 151.887 234.421V234.411Z" fill="#C9C9C9"/>
<path d="M184.545 194.008C187.324 196.056 190.447 199.231 192.035 203.869C192.129 204.151 192.223 204.464 192.306 204.788C192.202 203.994 192.077 203.273 191.909 202.668C189.256 193.027 179.824 189.016 179.824 189.016C181.903 190.75 183.438 192.421 184.556 194.008H184.545Z" fill="#E4D6B4"/>
<path d="M191.194 200.505C190.243 200.181 187.705 214.742 186.702 222.691C184.728 238.359 183.245 253.954 183.777 252.606C184.164 251.635 184.54 250.622 184.916 249.567C187.412 232.039 189.543 215.202 191.204 200.495L191.194 200.505Z" fill="#C9C9C9"/>
<path d="M162.559 234.4C159.927 232.907 159.488 231.977 162.392 231.131C185.559 224.404 187.889 201.205 186.395 204.872C185.862 206.376 185.089 207.66 184.4 208.694C181.246 213.353 167.782 222.911 156.96 228.227C149.805 231.737 150.745 233.481 154.464 236.197C163.144 242.537 172.91 251.061 177.496 255.771C177.767 256.053 178.216 255.73 178.049 255.385C175.804 250.622 169.484 238.338 162.559 234.4Z" fill="#C9C9C9"/>
<path d="M179.932 189.109C172.631 183.552 160.473 179.907 146.695 179.907V182.403C159.418 182.403 171.273 185.652 178.418 191.094C187.912 199.074 183.734 204.673 182.335 207.295C177.948 215.578 149.818 229.794 150.706 231.131C160.859 225.438 180.559 214.366 184.403 208.694C186.931 204.965 190.419 197.915 179.932 189.099V189.109Z" fill="#D6C09A"/>
<path d="M250.836 277.957C244.245 273.706 230.039 262.613 224.555 259.459C224.367 259.354 224.388 259.093 224.587 258.999C228.243 257.307 246.365 249.452 250.982 246.548C251.295 246.35 251.358 245.963 251.086 245.713C249.144 243.874 233.037 229.303 220.889 218.315C215.886 215.975 211.008 213.572 206.422 211.107C206.224 211.066 206.057 211.013 205.931 210.94C215.217 219.85 239.325 242.986 241.874 245.399C242.145 245.66 242.083 246.036 241.769 246.235C237.152 249.139 220.597 257.265 216.941 258.947C216.742 259.041 216.721 259.291 216.909 259.406C222.404 262.561 235.659 273.497 242.25 277.748C242.448 277.874 242.521 278.135 242.427 278.354C232.786 299.537 163.085 425.487 149.287 447.004C149.099 447.798 148.921 448.571 148.733 449.365C145.672 462.369 240.056 302.629 251.013 278.553C251.107 278.333 251.045 278.083 250.836 277.947V277.957Z" fill="#010101"/>
<path d="M244.588 277.957C237.997 273.706 223.791 262.613 218.307 259.458C218.119 259.354 218.14 259.093 218.339 258.999C221.994 257.307 240.117 249.452 244.734 246.548C245.047 246.35 245.11 245.963 244.838 245.712C242.446 243.446 218.527 221.824 207.026 211.431C205.752 210.752 204.499 210.063 203.277 209.373C212.562 218.283 236.67 241.419 239.219 243.832C239.49 244.093 239.428 244.469 239.114 244.668C234.498 247.572 216.385 257.296 212.719 258.988C212.521 259.082 212.5 259.333 212.688 259.448C218.182 262.603 232.377 271.199 238.968 275.45C239.167 275.576 239.24 275.837 239.146 276.056C229.505 297.239 160.691 427.659 146.893 449.176C146.705 449.97 148.481 449.417 148.658 449.375C152.774 448.55 234.268 301.616 244.765 278.552C244.859 278.333 244.797 278.082 244.588 277.947V277.957Z" fill="#010101"/>
<path d="M191.19 200.505C193.373 201.654 199.63 205.895 199.63 205.895C199.63 205.895 236.032 240.845 239.197 243.843C239.468 244.104 239.406 244.48 239.092 244.678C234.475 247.582 216.363 257.307 212.697 258.999C212.498 259.093 212.478 259.343 212.666 259.458C218.16 262.613 232.355 271.209 238.946 275.461C239.144 275.586 239.218 275.847 239.124 276.066C228.166 300.143 143.622 461.638 146.683 448.633C171.689 342.478 184.505 259.97 191.18 200.505H191.19Z" fill="#010101"/>
<path opacity="0.2" d="M212.709 258.998C216.364 257.306 234.487 247.582 239.104 244.678C239.417 244.479 239.48 244.093 239.208 243.842C236.043 240.845 199.642 205.895 199.642 205.895C199.642 205.895 198.127 204.871 196.32 203.68C196.32 203.68 228.512 236.437 232.565 243.644C233.484 245.273 232.523 246.266 232.168 246.485C226.235 250.318 211.487 258.518 208.259 260.001C208.071 260.085 208.04 260.367 208.238 260.45C211.393 261.756 216.855 264.984 222.12 268.19C222.12 268.19 227.332 271.136 229.985 273.35C231.573 274.666 232.325 275.941 232.325 275.941C232.325 275.941 232.001 277.184 231.333 278.437C226.768 287.138 218.976 306.18 208.572 327.478C186.397 372.852 156.21 431.785 147.279 446.115C147.081 446.962 146.893 447.787 146.694 448.633C143.634 461.637 228.178 300.132 239.135 276.066C239.229 275.847 239.167 275.596 238.958 275.46C232.367 271.209 218.161 262.613 212.677 259.458C212.489 259.354 212.51 259.092 212.709 258.998Z" fill="white"/>
<path d="M200.197 150.39C200.364 148.98 200.541 147.58 200.719 146.17C200.155 145.961 199.695 145.773 199.225 145.627C196.447 144.739 193.585 144.165 190.681 144.572C183.912 145.533 177.165 146.567 170.428 147.727C167.868 148.165 165.362 148.99 162.855 149.711C160.64 150.338 158.123 149.513 156.828 147.465C157.622 147.821 158.238 148.082 158.833 148.374C160.379 149.137 161.925 149.147 163.46 148.374C164.317 147.935 165.174 147.497 165.999 147.006C171.305 143.83 176.893 141.292 182.962 139.966C185.02 139.517 187.119 139.214 189.219 139.057C193.125 138.754 196.196 140.613 198.964 143.131C199.424 143.548 199.935 143.956 199.925 144.718C199.925 144.948 200.322 145.188 200.729 145.637C200.802 144.854 200.876 144.405 200.886 143.956C200.949 140.603 201.022 137.25 201.032 133.897C201.032 133.281 200.865 132.591 200.573 132.059C199.539 130.168 198.41 128.33 197.324 126.47C196.718 125.447 196.081 124.434 195.548 123.368C195.058 122.376 195.141 121.363 195.548 120.308C197.303 115.68 199.11 111.074 200.698 106.395C202.307 101.642 201.993 97.1295 198.139 93.4006C195.172 90.5385 191.736 89.0031 187.516 89.87C186.127 90.1521 184.738 90.4341 183.348 90.737C176.005 92.3351 169.289 95.5105 162.698 98.9679C158.384 101.235 153.987 103.313 149.443 105.047C148.492 105.413 147.563 105.517 146.623 105.204C145.275 104.755 143.949 104.243 142.622 103.731C142.371 103.637 142.173 103.428 141.943 103.271C141.504 102.968 141.097 102.582 140.617 102.384C139.645 101.966 138.653 101.6 137.65 101.287C134.308 100.253 130.965 99.2395 127.612 98.2263C127.309 98.1323 127.017 98.0487 126.724 97.9547C121.46 96.3461 116.143 94.936 110.733 93.8497C107.777 93.2543 105.218 93.7975 102.784 95.4792C99.2533 97.9129 96.5375 101.005 94.8976 104.995C93.7381 107.815 92.9547 110.74 92.7354 113.79C92.5056 116.965 92.6101 120.12 93.4561 123.222C93.8426 124.642 94.532 125.833 95.7019 126.752C96.7882 127.598 97.8536 128.476 98.9503 129.301C100.246 130.283 100.381 130.763 99.5457 132.184C98.8877 133.291 98.2087 134.377 97.4776 135.432C95.8168 137.824 94.4798 140.383 93.4666 143.099C92.8085 144.865 92.2862 146.682 92.422 148.604C92.5056 149.753 92.6518 150.891 92.7772 152.03C92.9965 154.035 93.2577 156.041 93.4352 158.057C93.4666 158.454 93.3412 159.06 93.0696 159.269C92.61 159.624 92.2758 159.06 91.952 158.757C91.3566 158.214 90.7717 157.67 89.9883 156.96C90.0927 158.611 90.1763 159.968 90.2703 161.326C90.2912 161.692 90.2912 162.078 90.3956 162.423C90.6254 163.165 90.9806 163.865 91.1895 164.606C92.4429 169.108 94.4589 173.265 96.7673 177.308C98.543 180.41 100.089 183.658 101.624 186.886C102.951 189.664 104.351 192.391 106.084 194.95C107.85 197.54 110.221 199.483 112.717 201.3C113.072 201.562 113.417 201.739 113.835 201.353C113.783 200.862 113.741 200.36 113.668 199.859C113.438 198.271 113.898 196.903 115.193 195.963C116.3 195.159 117.48 194.427 118.692 193.811C120.28 193.017 121.857 192.223 123.288 191.169C123.601 190.939 123.904 190.698 124.197 190.448C124.416 190.26 124.698 190.155 124.959 190.02C124.928 190.375 124.792 190.594 124.625 190.772C124.458 190.949 124.291 191.116 124.124 191.273C122.692 192.641 121.021 193.675 119.308 194.657C118.117 195.336 116.948 196.078 115.861 196.913C114.503 197.958 114.441 199.441 114.629 200.956C114.785 200.998 114.838 201.029 114.859 201.018C116.634 199.734 118.765 198.961 120.332 197.363C120.384 197.31 120.436 197.258 120.489 197.195C120.635 197.039 120.885 196.966 121.094 196.882C122.118 196.454 123.183 196.245 124.312 196.276C126.181 196.328 127.905 196.987 129.628 197.603C133.044 198.814 136.533 199.796 140.188 200.684C139.342 199.567 138.601 198.574 137.838 197.603C137.097 196.652 136.344 195.723 135.415 194.553C136.344 194.657 136.679 195.117 137.023 195.493C138.225 196.757 139.384 198.062 140.564 199.347C141.515 200.371 142.57 201.342 143.959 201.603C146.424 202.063 148.962 202.126 151.24 200.998C152.556 200.35 153.642 199.201 154.77 198.198C155.689 197.373 156.504 196.433 157.392 195.566C157.548 195.409 157.799 195.368 158.008 195.263C157.674 196.109 157.225 196.799 156.713 197.436C156.201 198.073 155.637 198.658 155.083 199.264C155.679 199.18 156.107 198.908 156.556 198.7C156.838 198.574 157.152 198.459 157.454 198.449C158.186 198.428 158.917 198.418 159.648 198.491C162.197 198.762 164.745 199.086 167.294 199.368C168.391 199.483 169.529 199.775 170.563 199.577C171.336 199.431 172.047 199.305 172.819 199.399C173.122 199.441 173.457 199.337 173.77 199.274C174.762 199.086 175.744 198.877 176.736 198.689C176.966 198.647 177.217 198.689 177.457 198.689C177.489 198.794 177.52 198.898 177.551 199.002C176.956 199.295 176.371 199.587 175.89 199.817C176.872 200.674 177.865 201.53 179.014 202.523C179.692 200.716 180.841 199.243 182.137 197.874C182.826 197.133 183.495 196.36 184.278 195.733C185.678 194.615 186.607 193.153 187.537 191.68C188.164 190.667 188.728 189.612 189.281 188.557C192.342 182.771 194.493 176.608 196.53 170.414C197.429 167.667 198.285 164.899 199.392 162.235C200.071 160.616 200.761 159.07 200.802 157.284C200.844 155.728 201.043 154.182 201.178 152.594C200.061 152.187 200.092 151.299 200.197 150.401V150.39ZM114.023 161.755C111.714 160.877 109.813 159.363 108.372 157.315C108.268 157.169 108.205 157.002 108.111 156.845C108.174 156.772 108.236 156.71 108.299 156.647C108.539 156.814 108.811 156.95 109.02 157.159C111.725 159.989 115.109 161.64 118.796 162.768C120.05 163.154 121.282 163.583 122.536 163.99C122.536 164.084 122.515 164.178 122.504 164.272C122.285 164.293 122.034 164.366 121.836 164.314C119.225 163.478 116.582 162.726 114.023 161.755ZM110.294 155.634C114.462 157.806 119.037 158.558 123.507 159.645C120.342 160.313 111.307 157.597 110.294 155.634ZM134.151 193.289C133.274 192.234 132.532 190.991 132.71 189.633C133.075 186.834 133.639 184.066 133.336 181.204C133.43 181.204 133.535 181.183 133.639 181.172C133.744 181.434 133.942 181.695 133.953 181.966C134.057 183.784 134.36 185.622 133.953 187.429C133.556 189.226 133.702 190.97 134.36 192.683C134.423 192.84 134.423 193.017 134.443 193.184C134.349 193.216 134.255 193.258 134.151 193.289ZM136.553 153.586C134.725 153.534 132.908 153.471 131.017 153.492C132.71 154.464 134.235 155.623 135.54 157.086C135.185 157.67 134.663 157.744 134.099 157.796C131.769 158.005 129.451 158.235 127.121 158.433C126.609 158.475 126.087 158.402 125.565 158.381C125.565 158.287 125.565 158.203 125.565 158.109C128.114 157.618 130.673 157.127 133.294 156.615C132.166 155.237 130.746 154.485 128.249 153.9C128.04 154.13 127.779 154.37 127.57 154.652C126.62 155.853 125.387 156.595 123.935 157.002C121.209 157.764 118.493 156.25 117.658 153.534C117.574 153.273 117.512 153.012 117.407 152.625C116.028 152.698 114.681 152.761 113.02 152.855C115.026 154.641 117.365 155.341 119.266 156.845C118.995 156.803 118.692 156.824 118.452 156.72C116.415 155.79 114.347 154.902 112.373 153.847C111.37 153.315 110.472 153.189 109.511 153.68C108.33 154.276 107.192 154.944 106.053 155.623C105.635 155.863 105.291 156.229 104.768 156.417C104.883 156.208 104.977 155.978 105.134 155.79C107.317 153.095 110.315 152.082 113.605 151.8C116.154 151.57 118.723 151.539 121.272 151.414C121.084 151.33 120.865 151.205 120.624 151.132C116.07 149.826 111.401 149.074 106.711 148.614C103.672 148.311 101.123 149.753 98.7623 151.529C98.1461 151.999 97.5193 152.469 96.7986 153.022C96.7359 153.075 96.6628 153.127 96.5897 153.179C96.3703 152.427 96.4017 151.8 96.5688 151.247C96.6628 150.933 96.7882 150.641 96.9344 150.359C98.0103 148.207 99.5979 146.484 101.718 145.376C103.139 144.635 104.653 144.092 106.158 143.528C106.544 143.381 107.025 143.496 107.463 143.507C107.693 143.507 107.923 143.59 108.142 143.559C111.412 143.089 114.535 143.862 117.647 144.656C122.421 145.867 126.965 147.747 131.519 149.575C132.626 150.014 133.733 150.463 134.861 150.839C135.509 151.048 136.198 151.194 136.877 151.215C138.663 151.267 140.126 150.714 140.763 148.834C140.867 148.51 141.076 148.228 141.316 147.789C141.41 148.082 141.504 148.207 141.484 148.322C141.034 150.777 139.583 152.437 137.379 153.482C137.138 153.597 136.846 153.618 136.574 153.618L136.553 153.586ZM139.405 156.26C139.509 156.062 139.541 155.863 139.656 155.811C140.679 155.237 141.076 154.359 141.181 153.221C141.275 152.187 141.546 151.163 141.734 150.139C141.87 150.139 142.006 150.15 142.152 150.16C142.152 150.724 142.173 151.299 142.152 151.863C142.121 152.5 142.037 153.137 141.995 153.774C141.881 155.446 141.306 156.031 139.415 156.271L139.405 156.26ZM144.502 186.583C144.502 186.708 144.419 186.823 144.262 187.262C144.126 185.841 144.001 184.713 143.907 183.596C143.74 181.496 143.667 179.376 143.395 177.297C143.155 175.438 142.747 173.589 142.34 171.761C141.787 169.307 141.588 166.873 142.069 164.387C142.267 163.353 142.34 162.298 142.497 161.253C142.57 160.773 142.695 160.292 142.789 159.812H143.124C143.186 160.021 143.291 160.219 143.291 160.418C143.238 162.204 143.27 164 143.071 165.766C142.831 167.949 143.071 170.079 143.51 172.189C144.492 176.942 144.534 181.768 144.502 186.593V186.583ZM154.352 152.521C154.216 152.27 154.154 151.884 154.237 151.612C154.446 150.891 154.749 150.192 155.01 149.481C155.115 149.481 155.23 149.502 155.334 149.513C155.344 149.931 155.459 150.369 155.355 150.756C155.094 151.696 155.418 152.437 155.94 153.169C156.222 153.565 156.452 154.004 156.713 154.422C156.64 154.495 156.556 154.568 156.483 154.641C155.595 154.129 154.864 153.419 154.342 152.51L154.352 152.521ZM162.249 189.163C161.685 190.73 160.745 192.067 159.638 193.299C161.1 190.479 162.029 187.607 161.664 184.337C161.81 184.515 162.019 184.672 162.103 184.88C162.729 186.28 162.771 187.722 162.238 189.163H162.249ZM180.058 161.681C178.763 162.548 173.363 162.998 170.845 162.601C167.137 162.026 164.421 159.791 161.841 157.336C164.714 158.757 167.263 160.794 170.511 161.389C173.634 161.963 176.778 161.807 180.058 161.681ZM172.621 158.579C173.634 158.005 175.347 157.879 177.489 158.297C175.89 158.339 174.334 158.924 172.621 158.579ZM167.221 188.108C169.581 188.86 178.011 196.276 180.1 199.514C178.69 198.877 168.401 189.696 167.221 188.108ZM186.754 152.197C185.636 154.077 183.996 155.383 182.262 156.615C182.346 155.916 182.92 155.571 183.317 155.101C183.735 154.62 184.205 154.171 184.602 153.67C185.02 153.137 185.385 152.563 185.887 151.842C185.176 151.539 184.623 151.299 183.871 150.975C183.808 152.51 183.119 153.607 182.053 154.474C181.071 155.278 180.058 156.051 178.658 156.177C178.846 155.978 179.024 155.769 179.233 155.592C180.079 154.892 180.956 154.234 181.771 153.492C182.628 152.73 182.972 151.779 182.45 150.442C181.447 150.286 180.34 150.119 179.17 149.951C179.003 150.401 178.899 150.735 178.763 151.069C177.927 153.169 176.454 154.558 174.198 155.049C171.733 155.581 169.341 154.38 168.359 152.051C168.234 151.758 168.13 151.456 167.952 150.996C166.824 151.299 165.706 151.602 164.505 151.926C164.871 153.921 166.437 154.704 167.712 155.759C165.623 155.581 164.223 154.453 163.346 152.49C162.416 152.646 161.716 153.148 161.079 153.712C159.836 154.808 158.614 155.916 157.381 157.012C157.214 157.159 157.037 157.294 156.87 157.43C156.786 157.357 156.692 157.274 156.608 157.2C156.911 156.824 157.193 156.427 157.528 156.072C158.311 155.226 159.136 154.432 159.888 153.565C161.027 152.228 162.479 151.403 164.108 150.829C167.106 149.763 170.198 149.084 173.373 148.896C176.622 148.698 179.881 148.583 183.139 148.51C185.417 148.458 187.61 148.907 189.689 149.868C190.127 150.066 190.535 150.348 190.9 150.745C188.895 150.568 187.004 149.701 184.946 149.889C187.328 151.32 189.887 152.312 192.603 152.96C190.566 153.44 188.707 152.604 186.764 152.218L186.754 152.197Z" fill="#FDD3B1"/>
<path d="M136.692 101.214C136.692 101.214 111.257 101.214 116.031 116.652C116.031 116.652 120.731 130.147 114.548 135.986C114.548 135.986 106.912 141.637 119.53 146.306C119.53 146.306 136.671 152.511 141.476 146.943C141.476 146.943 144.348 141.909 143.209 163.75C143.209 163.75 145.977 181.82 145.601 187.231L145.633 201.844C145.633 201.844 131.427 203.661 130.299 188.108C130.299 188.108 134.853 166.873 134.435 163.75C134.435 163.75 135.584 159.613 128.931 159.676C128.931 159.676 108.489 156.511 110.286 161.159C110.286 161.159 120.846 171.208 118.935 178.102C118.935 178.102 113.587 190.239 125.129 187.544C125.129 187.544 130.383 187.774 125.129 193.811L116.01 202.523L111.706 205.708L94.4508 177.517L89.9489 164.355L88.8417 145.397L91.5366 129.406L86.7422 110.52L91.0874 87.0185L102.034 83.9163L116.658 87.7392L136.66 101.235L136.692 101.214Z" fill="#E6A77C"/>
<path opacity="0.43" d="M201.117 207.63L197.064 209.636H195.445C195.445 209.636 180.268 222.536 162.929 242.779C154.364 252.785 143.511 284.831 132.679 295.183C119.737 307.571 107.694 319.781 93.5719 327.897C86.4378 332.002 -14.1504 385.806 -21.1592 387.822L-38.1328 267.45C-15.7172 261.141 65.7457 224.343 78.8336 221.167C93.269 217.668 97.6456 205.854 97.6456 205.854C97.6456 205.854 98.0843 197.979 100.267 202.575C102.346 206.941 125.409 234.475 140.085 237.149C140.826 237.169 141.558 237.232 142.278 237.357C156.714 237.357 184.289 199.284 195.445 202.575C195.445 202.575 197.9 204.705 201.117 207.62V207.63Z" fill="black"/>
<path d="M102.489 163.197C102.332 162.089 102.322 160.909 102.823 159.906C103.157 159.238 103.69 158.695 104.233 158.204C105.769 156.804 107.502 155.634 109.372 154.736C111.66 153.639 114.146 152.939 116.266 151.55C116.903 151.132 117.551 150.589 117.707 149.837C117.937 148.751 117.049 147.748 116.141 147.111C112.349 144.468 107.231 144.698 102.792 145.993C101.81 146.286 100.817 146.62 99.8042 146.589C98.791 146.557 97.7047 146.066 97.2974 145.126C97.1407 144.761 97.0362 144.28 96.6602 144.155C95.0621 145.513 94.7487 147.842 94.6129 149.931C94.2996 154.725 94.3518 159.791 96.702 163.98C97.6107 165.609 98.8433 167.03 100.076 168.43C100.692 169.129 106.437 174.164 106.071 170.832C105.967 169.892 104.181 168.21 103.711 167.249C103.095 165.965 102.677 164.586 102.478 163.186L102.489 163.197Z" fill="#E6A77C"/>
<path d="M150.436 146.599C149.527 148.155 148.984 149.973 149.193 151.769C149.402 153.566 150.457 155.3 152.076 156.073C154.081 157.034 156.515 156.386 158.416 155.227C160.317 154.067 161.874 152.427 163.722 151.184C171.776 145.732 183.788 148.385 191.006 141.857C191.789 141.146 192.426 139.715 191.497 139.193C191.214 139.026 190.859 139.036 190.536 139.047C185.428 139.235 180.226 139.454 175.411 141.178C171.274 142.661 167.107 146.442 162.605 146.473C158.918 146.494 152.838 142.483 150.446 146.599H150.436Z" fill="#E6A77C"/>
<path d="M173.396 195.022C174.513 196.077 175.631 197.132 176.884 198.01C178.932 199.43 181.324 200.339 183.799 200.632C184.175 199.806 183.956 198.804 183.465 198.041C182.974 197.279 182.243 196.704 181.533 196.14C179.172 194.281 176.811 192.422 174.451 190.562C172.926 189.361 169.646 185.611 167.682 185.601C163.243 185.559 172.163 193.884 173.406 195.033L173.396 195.022Z" fill="#E6A77C"/>
<path d="M170.979 206.482C172.076 207.255 173.152 207.819 173.455 209.229C173.622 210.012 173.559 210.628 173.194 211.318C171.418 214.587 169.705 217.888 167.888 221.136C165.736 224.991 163.522 228.793 161.318 232.616C161.182 232.846 161.015 233.065 160.9 233.222C159.208 232.49 157.589 231.791 155.959 231.101C155.5 230.913 155.061 230.683 154.58 231.174C154.403 231.352 153.975 231.31 153.661 231.331C150.642 231.529 147.613 231.717 144.595 231.926C142.965 232.041 141.367 232.167 139.863 233.054C138.045 234.12 136.238 233.869 134.504 232.49C131.841 230.38 129.752 227.769 127.799 225.032C124.456 220.353 121.73 215.287 119.025 210.221C117.541 207.443 117.312 204.727 118.105 201.781C119.286 202.753 120.393 203.703 121.343 204.8C123.046 206.785 124.655 208.853 126.326 210.858C128.028 212.905 129.689 214.995 131.475 216.958C132.948 218.567 134.776 219.726 136.823 220.51C137.314 220.698 137.878 220.75 137.983 221.492C138.014 221.721 138.536 221.93 138.86 222.066C139.915 222.505 140.981 222.943 142.067 223.319C144.24 224.072 145.597 225.607 146.245 227.748C146.537 228.741 147.154 229.44 147.885 230.057C148.731 230.767 149.525 230.579 149.995 229.587C150.204 229.127 150.36 228.647 150.507 228.166C150.966 226.61 151.791 225.294 153.118 224.374C154.925 223.121 156.722 221.847 158.633 220.76C161.62 219.058 164.044 216.833 165.725 213.825C166.572 212.31 167.324 210.733 168.17 209.218C168.807 208.069 169.851 207.307 170.979 206.471V206.482Z" fill="#FDD3B1"/>
<path d="M130.319 192.38C127.488 193.028 124.584 193.498 121.952 194.709C119.32 195.931 116.928 198.062 116.249 200.883C115.863 202.47 116.051 204.141 116.291 205.76C116.521 207.296 116.792 208.821 117.21 210.304C117.753 212.237 118.547 214.085 119.414 215.903C123.728 224.928 130.246 233.367 139.364 237.483C140.409 237.953 141.6 238.371 142.696 238.016C144.524 237.41 145.015 234.892 144.242 233.127C143.469 231.362 141.892 230.119 140.524 228.761C134.486 222.734 132.533 213.03 135.615 205.071C136.617 202.481 138.09 200.078 139.009 197.456C139.636 195.66 140.983 190.709 138.278 189.915C137.087 189.57 135.834 190.552 134.81 190.991C133.369 191.607 131.854 192.014 130.329 192.359L130.319 192.38Z" fill="#D6966B"/>
<path d="M122.116 150.401C125.082 151.341 128.091 152.291 131.203 152.396C134.316 152.5 137.585 151.664 139.789 149.471C140.145 149.116 140.583 148.688 141.074 148.813C141.628 148.949 141.774 149.669 141.816 150.244C141.952 152.479 142.087 154.715 142.223 156.96C143.069 170.915 143.905 184.881 144.375 198.856C144.396 199.546 144.396 200.287 143.978 200.83C143.184 201.833 141.565 201.395 140.468 200.726C136.907 198.564 134.316 194.95 133.094 190.97C131.872 186.98 131.955 182.656 133.01 178.624C133.794 175.605 135.099 172.733 135.831 169.704C136.447 167.134 136.645 164.481 136.541 161.838C136.51 161.086 136.457 160.324 136.217 159.603C135.904 158.673 135.287 157.879 134.609 157.18C131.83 154.286 127.965 152.625 124.017 151.884C120.079 151.142 116.026 151.257 112.026 151.456C109.226 151.591 105.832 151.476 104.422 149.043C104.275 148.782 104.15 148.447 104.307 148.197C104.411 148.03 104.61 147.946 104.798 147.873C107.44 146.849 110.814 145.909 113.572 146.964C116.329 148.019 119.118 149.461 122.126 150.422L122.116 150.401Z" fill="#D6966B"/>
<path d="M113.031 152.866L117.502 152.072L123.174 152.406L130.966 153.921L133.713 156.647C133.713 156.647 124.5 160.46 118.599 156.762C118.599 156.762 112.446 153.921 113.031 152.855V152.866Z" fill="white"/>
<path d="M163.586 151.8L166.458 150.943L172.203 149.502H181.437L183.213 150.15V151.434L181.803 154.202L178.93 156.156C178.93 156.156 171.263 157.775 166.981 155.654C166.981 155.654 164.662 154.85 163.586 151.81V151.8Z" fill="white"/>
<path d="M89.999 168.617C89.7274 168.91 89.6021 169.045 89.3305 169.348V165.912C88.0457 165.64 87.3668 164.784 86.6983 163.896C85.0062 161.671 84.1392 159.133 83.8258 156.396C83.5334 153.837 83.3349 151.278 83.0842 148.719C82.7709 145.585 81.9666 142.598 80.5878 139.746C79.021 136.508 77.7989 133.145 77.4438 129.52C77.3602 128.612 77.2871 127.682 77.3393 126.773C77.5273 123.734 78.4361 121.091 81.5696 119.67C80.076 114.74 78.6032 109.831 77.0886 104.932C75.5949 100.075 74.0699 95.2285 72.7852 90.2669C73.1612 91.0503 73.5268 91.8337 73.9028 92.6171C74.2997 89.7447 75.3965 87.2482 77.214 85.0547C74.5922 80.1977 74.7593 75.0795 75.6994 69.8882C76.9215 63.1718 79.9611 57.3016 84.181 52.0163C89.8632 44.903 96.5273 38.9283 104.685 34.7502C108.832 32.6298 113.177 31.0421 117.648 29.7678C121.45 28.6815 125.273 27.7519 129.221 27.3445C138.058 26.4357 145.693 29.1933 152.378 34.8547C156.013 37.9256 158.813 41.6441 160.714 46.0207C160.808 46.2296 160.912 46.428 161.037 46.6683C167.346 44.5061 173.478 45.6655 179.526 47.5875C182.095 48.4022 184.644 49.3841 187.088 50.5226C193.522 53.5413 197.899 58.6177 200.991 64.8953C203.602 70.2015 204.751 75.8106 204.344 81.7331C204.323 82.0883 204.344 82.4539 204.344 82.715C206.015 83.4357 207.561 84.1042 209.107 84.7727C211.488 85.7964 212.428 87.5825 212.167 90.1729C211.446 97.1608 210.82 104.159 210.109 111.147C209.775 114.469 209.357 117.79 208.96 121.216C210.872 120.997 211.687 122.209 212.052 123.713C212.595 125.938 213.034 128.194 213.379 130.46C213.63 132.153 213.358 133.866 212.888 135.506C211.739 139.537 211.05 143.653 210.381 147.779C209.796 151.361 209.117 154.923 208.501 158.496C207.801 162.548 205.712 165.536 201.868 167.165C201.304 167.405 201.043 167.729 200.97 168.387C200.468 172.952 199.873 177.506 199.403 182.081C199.121 184.87 199.006 187.669 198.86 190.469C198.609 195.253 197.345 199.786 195.59 204.215C193.178 210.336 189.71 215.84 185.908 221.167C181.312 227.591 176.57 233.921 172.475 240.69C172.141 241.243 171.765 241.755 171.378 242.277C171.19 242.528 170.981 242.81 170.72 242.967C169.258 243.813 167.775 244.628 166.291 245.442C162.844 247.333 159.084 248.127 155.23 248.544C150.55 249.056 145.881 248.921 141.223 248.283C137.995 247.845 135.05 246.811 132.302 244.93C127.947 241.943 124.061 238.465 120.614 234.496C115.862 229.012 111.109 223.518 106.523 217.898C101.75 212.049 98.0001 205.593 95.817 198.303C94.4696 193.801 93.6757 189.184 92.9341 184.557C92.297 180.608 91.712 176.66 91.0644 172.712C90.9182 171.782 90.8555 170.821 90.2392 169.996C90.0303 169.714 90.093 169.223 90.0094 168.628L89.999 168.617ZM179.024 202.523C179.703 200.715 180.852 199.243 182.147 197.874C182.837 197.143 183.505 196.36 184.289 195.733C185.688 194.615 186.618 193.153 187.548 191.68C188.185 190.667 188.738 189.612 189.292 188.557C192.352 182.77 194.504 176.618 196.541 170.414C197.439 167.667 198.296 164.899 199.403 162.235C200.082 160.616 200.771 159.07 200.813 157.284C200.844 155.728 201.053 154.182 201.189 152.594C200.072 152.187 200.103 151.299 200.207 150.411C200.374 149.001 200.552 147.601 200.73 146.191C200.166 145.982 199.706 145.794 199.236 145.648C196.457 144.75 193.595 144.186 190.692 144.593C183.923 145.554 177.175 146.588 170.438 147.747C167.879 148.186 165.372 149.011 162.865 149.732C160.651 150.359 158.134 149.534 156.838 147.486C157.632 147.841 158.249 148.103 158.844 148.395C160.39 149.158 161.936 149.168 163.471 148.395C164.328 147.956 165.184 147.518 166.009 147.027C171.326 143.851 176.904 141.313 182.973 139.987C185.03 139.537 187.13 139.234 189.229 139.078C193.136 138.775 196.207 140.634 198.975 143.151C199.434 143.569 199.946 143.977 199.936 144.739C199.936 144.969 200.333 145.209 200.74 145.658C200.813 144.875 200.886 144.426 200.897 143.977C200.959 140.624 201.032 137.271 201.043 133.918C201.043 133.302 200.876 132.612 200.583 132.079C199.549 130.189 198.421 128.35 197.335 126.491C196.729 125.468 196.092 124.454 195.559 123.389C195.068 122.397 195.152 121.373 195.559 120.328C197.314 115.701 199.121 111.095 200.709 106.415C202.328 101.663 202.004 97.1504 198.15 93.4214C195.183 90.5594 191.747 89.0239 187.527 89.8909C186.137 90.1834 184.738 90.4549 183.359 90.7579C176.016 92.356 169.3 95.5314 162.709 98.9888C158.395 101.245 153.997 103.324 149.454 105.068C148.503 105.434 147.573 105.538 146.633 105.225C145.286 104.775 143.959 104.264 142.633 103.752C142.382 103.658 142.184 103.449 141.954 103.292C141.515 102.989 141.108 102.603 140.627 102.394C139.656 101.976 138.664 101.611 137.661 101.297C134.026 100.169 130.381 99.0723 126.735 97.9651C121.471 96.3565 116.154 94.9464 110.743 93.8601C107.787 93.2647 105.228 93.8079 102.794 95.4896C99.264 97.9233 96.5482 101.015 94.9083 105.005C93.7489 107.825 92.9655 110.75 92.7461 113.8C92.5059 116.976 92.6208 120.13 93.4668 123.232C93.8533 124.663 94.5531 125.854 95.7126 126.763C96.7989 127.609 97.8643 128.486 98.9611 129.311C100.256 130.293 100.392 130.774 99.5565 132.194C98.8984 133.302 98.2194 134.388 97.4883 135.443C95.8275 137.835 94.4905 140.394 93.4773 143.11C92.8192 144.875 92.297 146.692 92.4328 148.614C92.5163 149.753 92.6625 150.902 92.7879 152.04C93.0072 154.046 93.2684 156.051 93.4459 158.067C93.4773 158.475 93.3624 159.07 93.0804 159.279C92.6208 159.634 92.2865 159.07 91.9627 158.767C91.3673 158.224 90.7824 157.681 89.999 156.971C90.1035 158.611 90.187 159.979 90.281 161.337C90.3019 161.702 90.3019 162.089 90.4064 162.423C90.6362 163.165 90.9913 163.864 91.2002 164.606C92.4536 169.108 94.4696 173.265 96.778 177.308C98.5537 180.41 100.1 183.658 101.635 186.886C102.962 189.675 104.361 192.401 106.106 194.95C107.871 197.54 110.242 199.483 112.728 201.3C113.083 201.562 113.428 201.739 113.846 201.353C113.793 200.862 113.752 200.36 113.678 199.859C113.449 198.271 113.908 196.903 115.204 195.963C116.311 195.159 117.491 194.427 118.713 193.822C120.646 192.85 122.567 191.879 124.218 190.448C124.437 190.26 124.719 190.155 124.98 190.02C124.949 190.375 124.813 190.594 124.646 190.772C123.111 192.391 121.251 193.55 119.329 194.647C118.139 195.326 116.969 196.078 115.882 196.903C114.525 197.947 114.462 199.431 114.65 200.945C114.807 200.987 114.859 201.018 114.88 201.008C116.718 199.681 118.932 198.908 120.51 197.195C120.656 197.039 120.907 196.966 121.116 196.882C122.15 196.454 123.215 196.245 124.333 196.276C126.202 196.328 127.926 196.987 129.649 197.603C133.065 198.814 136.554 199.807 140.21 200.674C139.363 199.556 138.622 198.564 137.859 197.592C137.118 196.642 136.355 195.712 135.436 194.542C136.366 194.647 136.7 195.106 137.045 195.482C138.246 196.746 139.405 198.052 140.586 199.337C141.536 200.36 142.602 201.332 143.98 201.593C146.445 202.052 148.984 202.115 151.261 200.987C152.577 200.339 153.663 199.19 154.791 198.188C155.71 197.363 156.525 196.422 157.413 195.556C157.57 195.409 157.82 195.357 158.029 195.253C157.695 196.099 157.246 196.788 156.734 197.415C156.222 198.052 155.658 198.637 155.105 199.243C155.7 199.159 156.128 198.888 156.577 198.679C156.859 198.553 157.173 198.438 157.476 198.428C158.207 198.407 158.938 198.386 159.669 198.47C162.218 198.741 164.766 199.065 167.315 199.347C168.412 199.462 169.55 199.755 170.584 199.556C171.357 199.41 172.068 199.284 172.841 199.378C173.144 199.42 173.478 199.316 173.791 199.253C174.783 199.065 175.765 198.856 176.758 198.679C176.987 198.637 177.238 198.679 177.478 198.679C177.51 198.783 177.541 198.888 177.572 198.992C176.977 199.284 176.392 199.577 175.912 199.807C176.893 200.663 177.886 201.52 179.035 202.512L179.024 202.523ZM170.981 206.481C169.853 207.317 168.809 208.079 168.172 209.228C167.326 210.743 166.573 212.32 165.727 213.835C164.046 216.843 161.622 219.068 158.635 220.77C156.734 221.857 154.927 223.121 153.12 224.385C151.793 225.304 150.968 226.62 150.509 228.176C150.362 228.657 150.206 229.148 149.997 229.597C149.537 230.589 148.733 230.787 147.887 230.067C147.156 229.45 146.539 228.751 146.247 227.758C145.61 225.607 144.241 224.082 142.069 223.33C140.982 222.954 139.928 222.515 138.862 222.076C138.538 221.94 138.016 221.731 137.985 221.502C137.88 220.76 137.316 220.708 136.825 220.52C134.778 219.736 132.94 218.587 131.477 216.968C129.681 215.005 128.02 212.916 126.328 210.868C124.656 208.852 123.048 206.795 121.345 204.81C120.405 203.713 119.288 202.763 118.107 201.791C117.313 204.737 117.554 207.453 119.026 210.231C121.732 215.297 124.448 220.353 127.801 225.043C129.754 227.779 131.832 230.38 134.506 232.501C136.24 233.879 138.047 234.12 139.865 233.065C141.379 232.177 142.967 232.062 144.597 231.936C147.615 231.717 150.644 231.54 153.663 231.341C153.976 231.32 154.405 231.372 154.582 231.184C155.063 230.693 155.501 230.913 155.961 231.111C157.591 231.801 159.22 232.511 160.902 233.232C161.017 233.075 161.184 232.856 161.319 232.626C163.513 228.803 165.738 224.99 167.89 221.146C169.697 217.898 171.41 214.597 173.196 211.328C173.572 210.649 173.634 210.022 173.457 209.239C173.154 207.829 172.078 207.265 170.981 206.492V206.481ZM119.528 201.133C119.476 201.217 119.413 201.29 119.361 201.374C121.063 203.212 122.829 204.998 124.458 206.899C126.464 209.228 128.375 211.631 130.318 214.023C132.971 217.292 136.334 219.507 140.324 220.77C141.233 221.063 142.194 221.376 143.124 221.387C146.101 221.428 149.088 221.418 152.065 221.282C155.721 221.115 158.917 219.757 161.57 217.167C162.792 215.976 163.858 214.67 164.725 213.198C165.226 212.352 165.748 211.537 166.396 210.503C163.805 211.265 161.497 211.934 159.053 212.028C155.846 212.153 152.639 212.352 149.506 213.156C148.44 213.427 147.354 213.344 146.268 212.968C143.636 212.059 140.888 211.777 138.131 211.965C135.384 212.153 132.94 211.432 130.757 209.845C129.127 208.654 127.581 207.348 126.025 206.074C124.573 204.883 123.173 203.619 121.7 202.449C121.042 201.927 120.269 201.572 119.549 201.144L119.528 201.133ZM201.189 166.016C201.68 165.839 202.035 165.766 202.349 165.598C205.012 164.157 206.683 161.943 207.247 158.976C207.937 155.331 208.543 151.664 209.201 148.009C209.765 144.854 210.308 141.689 210.935 138.545C211.3 136.707 211.916 134.9 212.188 133.051C212.669 129.844 211.739 126.773 210.945 123.713C210.882 123.452 210.747 123.191 210.611 122.961C210.35 122.522 210.047 122.073 209.431 122.198C208.887 122.303 208.564 122.679 208.428 123.222C208.386 123.399 208.355 123.577 208.313 123.765C207.529 127.024 206.715 130.272 205.315 133.333C205.054 133.907 204.908 134.555 204.824 135.182C204.532 137.219 204.208 139.266 204.03 141.324C203.769 144.478 203.633 147.643 203.445 150.797C203.351 152.364 203.32 152.406 202.035 153.106C201.858 157.336 201.2 161.587 201.2 166.027L201.189 166.016ZM81.695 120.705C81.5801 120.663 81.4547 120.611 81.3398 120.569C80.922 120.966 80.4624 121.331 80.1073 121.78C79.2926 122.804 78.8434 123.995 78.5927 125.28C78.2376 127.076 78.4465 128.841 78.7181 130.617C79.2299 133.876 80.4833 136.884 81.9248 139.809C83.0947 142.19 83.8049 144.687 84.1079 147.309C84.4317 150.139 84.6719 152.97 84.9853 155.801C85.33 158.934 86.4058 161.775 88.5471 164.136C88.7351 164.335 88.9963 164.47 89.3096 164.7C89.4141 163.854 89.6021 163.175 89.5499 162.507C89.3514 159.906 89.1007 157.294 88.8082 154.704C88.5471 152.385 88.098 150.077 87.8891 147.758C87.5861 144.384 86.7923 141.167 85.3717 138.086C84.0452 135.192 83.0529 132.194 82.6664 129.019C82.4471 127.149 82.259 125.28 82.0397 123.41C81.9352 122.512 81.8099 121.613 81.695 120.705ZM124.416 202.512C124.354 202.627 124.291 202.731 124.228 202.846C126.568 204.695 128.866 206.575 131.247 208.361C133.295 209.897 135.603 210.565 138.214 210.409C140.878 210.252 143.521 210.45 146.069 211.422C147.239 211.861 148.482 211.882 149.725 211.579C150.885 211.297 152.055 211.046 153.245 210.952C155.94 210.743 158.645 210.607 161.351 210.482C163.158 210.409 164.798 209.845 166.229 208.811C167.555 207.85 168.736 206.701 169.989 205.646C169.603 205.552 169.289 205.583 169.018 205.708C168.025 206.178 167.033 206.659 166.062 207.171C163.993 208.257 161.8 208.873 159.46 208.831C157.716 208.8 155.982 208.664 154.248 208.57C152.42 208.476 150.603 208.288 148.837 209.082C148.305 209.322 147.542 209.364 146.978 209.176C144.711 208.435 142.445 208.153 140.074 208.56C136.293 209.197 132.898 208.194 129.827 205.969C128.782 205.217 127.738 204.476 126.662 203.776C125.952 203.306 125.179 202.93 124.437 202.512H124.416ZM198.066 144.081C197.972 143.81 197.962 143.59 197.847 143.496C195.862 141.908 193.794 140.498 191.193 140.112C189.198 139.819 187.266 140.206 185.323 140.498C180.152 141.271 175.348 143.214 170.616 145.324C169.791 145.69 169.112 146.39 168.36 146.933C169.237 146.995 169.968 146.786 170.72 146.661C176.496 145.669 182.273 144.656 188.059 143.736C191.203 143.235 194.358 143.162 197.46 144.081C197.617 144.123 197.794 144.081 198.066 144.081Z" fill="black"/>
<path d="M119.528 201.144C120.249 201.572 121.032 201.938 121.68 202.449C123.152 203.619 124.552 204.873 126.004 206.074C127.56 207.359 129.106 208.664 130.736 209.845C132.919 211.432 135.363 212.164 138.11 211.965C140.868 211.777 143.615 212.059 146.247 212.968C147.344 213.344 148.42 213.438 149.485 213.156C152.619 212.352 155.825 212.143 159.032 212.028C161.476 211.934 163.785 211.265 166.375 210.503C165.738 211.537 165.205 212.352 164.704 213.198C163.837 214.67 162.771 215.976 161.549 217.167C158.896 219.757 155.71 221.115 152.044 221.282C149.067 221.418 146.09 221.429 143.103 221.387C142.163 221.376 141.212 221.063 140.304 220.77C136.313 219.507 132.95 217.292 130.297 214.023C128.365 211.631 126.443 209.228 124.437 206.899C122.797 205.009 121.042 203.212 119.34 201.374C119.392 201.29 119.455 201.217 119.507 201.133L119.528 201.144Z" fill="#D6966B"/>
<path d="M201.198 166.026C201.198 161.587 201.856 157.326 202.034 153.106C203.318 152.406 203.35 152.374 203.444 150.797C203.642 147.643 203.778 144.478 204.029 141.323C204.196 139.266 204.52 137.229 204.822 135.182C204.916 134.555 205.052 133.907 205.313 133.333C206.713 130.262 207.528 127.013 208.311 123.765C208.353 123.587 208.384 123.399 208.426 123.222C208.562 122.689 208.886 122.302 209.429 122.198C210.035 122.083 210.338 122.522 210.609 122.961C210.755 123.19 210.881 123.451 210.943 123.713C211.727 126.773 212.667 129.844 212.186 133.051C211.904 134.899 211.299 136.707 210.933 138.545C210.317 141.689 209.763 144.854 209.199 148.008C208.541 151.664 207.946 155.33 207.246 158.976C206.682 161.942 205.01 164.157 202.347 165.598C202.044 165.765 201.689 165.838 201.188 166.016L201.198 166.026Z" fill="#FDD3B1"/>
<path d="M81.7083 120.714C81.8232 121.613 81.9485 122.511 82.0529 123.42C82.2618 125.289 82.4499 127.159 82.6797 129.029C83.0557 132.204 84.0584 135.212 85.385 138.095C86.8056 141.177 87.5994 144.394 87.9023 147.768C88.1112 150.097 88.5499 152.395 88.8215 154.714C89.114 157.315 89.3647 159.916 89.5631 162.516C89.6153 163.185 89.4169 163.874 89.3229 164.71C89.0095 164.48 88.7484 164.344 88.5604 164.146C86.4191 161.775 85.3432 158.944 84.9985 155.811C84.6852 152.98 84.4554 150.149 84.1211 147.319C83.8182 144.707 83.1079 142.2 81.938 139.819C80.4966 136.884 79.2432 133.886 78.7313 130.627C78.4598 128.851 78.2509 127.086 78.606 125.289C78.8567 124.005 79.3163 122.814 80.1206 121.79C80.4757 121.341 80.9457 120.976 81.3531 120.579C81.468 120.62 81.5934 120.673 81.7083 120.714Z" fill="#E6A77C"/>
<path d="M124.428 202.522C125.169 202.94 125.942 203.326 126.653 203.786C127.728 204.486 128.783 205.228 129.817 205.98C132.888 208.204 136.283 209.207 140.064 208.57C142.425 208.173 144.702 208.445 146.969 209.186C147.522 209.364 148.295 209.333 148.828 209.092C150.593 208.298 152.411 208.486 154.239 208.58C155.972 208.664 157.717 208.81 159.451 208.842C161.79 208.883 163.984 208.267 166.052 207.181C167.024 206.669 168.016 206.189 169.008 205.718C169.28 205.593 169.593 205.562 169.98 205.656C168.737 206.721 167.546 207.87 166.219 208.821C164.788 209.855 163.148 210.419 161.341 210.492C158.636 210.607 155.931 210.743 153.236 210.962C152.055 211.056 150.875 211.307 149.716 211.589C148.462 211.892 147.219 211.871 146.06 211.432C143.511 210.461 140.858 210.262 138.205 210.419C135.594 210.576 133.285 209.907 131.238 208.372C128.856 206.585 126.558 204.695 124.219 202.856C124.281 202.742 124.344 202.637 124.407 202.522H124.428Z" fill="#D6966B"/>
<path d="M198.066 144.081C197.784 144.081 197.606 144.123 197.46 144.081C194.358 143.162 191.203 143.235 188.059 143.736C182.273 144.655 176.496 145.679 170.72 146.661C169.968 146.786 169.226 146.995 168.359 146.932C169.111 146.389 169.79 145.689 170.616 145.324C175.347 143.214 180.152 141.271 185.323 140.498C187.265 140.206 189.208 139.819 191.193 140.112C193.794 140.498 195.862 141.908 197.846 143.496C197.961 143.59 197.961 143.809 198.066 144.081Z" fill="black"/>
<path d="M141.306 147.769C141.4 148.061 141.494 148.186 141.473 148.301C141.024 150.756 139.572 152.417 137.358 153.461C137.117 153.576 136.825 153.607 136.553 153.597C134.725 153.545 132.908 153.482 131.017 153.503C132.71 154.474 134.235 155.634 135.54 157.107C135.185 157.681 134.663 157.765 134.099 157.817C131.769 158.026 129.451 158.266 127.132 158.454C126.62 158.496 126.098 158.423 125.575 158.402C125.575 158.308 125.575 158.224 125.575 158.13C128.124 157.639 130.683 157.148 133.315 156.637C132.187 155.258 130.767 154.506 128.27 153.921C128.061 154.151 127.8 154.391 127.581 154.673C126.63 155.874 125.398 156.616 123.946 157.023C121.22 157.786 118.504 156.271 117.668 153.555C117.585 153.294 117.522 153.033 117.418 152.647C116.039 152.72 114.691 152.793 113.031 152.876C115.026 154.662 117.376 155.362 119.277 156.866C119.005 156.825 118.702 156.846 118.462 156.741C116.425 155.801 114.357 154.924 112.383 153.869C111.391 153.336 110.482 153.211 109.521 153.702C108.341 154.297 107.202 154.976 106.064 155.644C105.646 155.895 105.301 156.25 104.779 156.438C104.894 156.229 104.988 155.999 105.144 155.811C107.327 153.117 110.336 152.114 113.616 151.821C116.164 151.592 118.734 151.56 121.282 151.435C121.094 151.351 120.875 151.226 120.635 151.153C116.081 149.847 111.412 149.095 106.722 148.636C103.682 148.333 101.133 149.774 98.7728 151.56C98.0938 152.072 97.4149 152.584 96.6002 153.2C96.2555 152.03 96.5375 151.174 96.9449 150.38C98.0207 148.228 99.6084 146.505 101.739 145.397C103.149 144.656 104.674 144.113 106.168 143.549C106.555 143.402 107.035 143.517 107.484 143.528C107.714 143.528 107.944 143.611 108.163 143.58C111.432 143.11 114.556 143.883 117.668 144.677C122.442 145.888 126.975 147.769 131.54 149.597C132.647 150.035 133.754 150.484 134.882 150.86C135.53 151.069 136.219 151.216 136.898 151.236C138.684 151.289 140.147 150.735 140.784 148.855C140.888 148.531 141.097 148.249 141.337 147.81L141.306 147.769ZM135.081 152.145C133.127 151.372 131.174 150.578 129.21 149.847C125.993 148.646 122.787 147.393 119.528 146.317C116.53 145.314 113.469 144.478 110.283 144.29C107.014 144.102 103.912 144.677 101.29 146.818C100.099 147.789 98.919 148.803 98.2923 150.349C99.974 149.586 101.562 148.834 103.181 148.145C103.755 147.904 104.413 147.654 105.009 147.695C109.531 148.03 114.023 148.625 118.462 149.607C122.442 150.495 126.421 151.362 130.432 152.103C131.937 152.385 133.493 152.615 135.091 152.145H135.081ZM118.326 152.72C119.131 154.913 120.875 156.417 122.484 156.407C124.426 156.396 126.401 155.185 127.006 153.524C126.662 153.555 126.348 153.524 126.098 153.618C125.91 153.691 125.795 153.952 125.628 154.109C123.894 155.728 122.16 155.31 121.282 153.075C121.251 152.991 121.188 152.929 121.084 152.793C120.415 152.741 119.684 152.667 118.953 152.626C118.786 152.615 118.608 152.678 118.316 152.73L118.326 152.72ZM125.137 153.158C123.988 153.023 123.069 152.918 122.066 152.803C122.787 154.474 123.768 154.621 125.137 153.158Z" fill="black"/>
<path d="M156.621 157.19C156.924 156.814 157.206 156.417 157.54 156.062C158.313 155.216 159.149 154.422 159.901 153.555C161.039 152.218 162.491 151.393 164.121 150.818C167.119 149.753 170.21 149.074 173.386 148.886C176.634 148.687 179.893 148.573 183.152 148.499C185.429 148.447 187.623 148.896 189.701 149.857C190.14 150.056 190.547 150.338 190.913 150.735C188.897 150.557 187.017 149.69 184.959 149.878C187.351 151.309 189.9 152.302 192.616 152.949C190.579 153.43 188.72 152.594 186.777 152.208C185.659 154.088 184.019 155.393 182.285 156.626C182.369 155.926 182.943 155.581 183.34 155.111C183.758 154.631 184.228 154.182 184.625 153.67C185.043 153.137 185.408 152.563 185.91 151.842C185.199 151.539 184.635 151.288 183.894 150.975C183.831 152.51 183.142 153.607 182.076 154.474C181.094 155.278 180.081 156.051 178.682 156.177C178.87 155.978 179.047 155.769 179.256 155.592C180.102 154.892 180.98 154.223 181.794 153.492C182.64 152.73 182.995 151.779 182.473 150.442C181.47 150.296 180.363 150.129 179.183 149.951C179.026 150.4 178.911 150.735 178.776 151.069C177.93 153.179 176.467 154.558 174.211 155.049C171.746 155.592 169.354 154.38 168.372 152.051C168.247 151.758 168.142 151.455 167.965 150.996C166.837 151.299 165.719 151.602 164.518 151.925C164.883 153.921 166.45 154.704 167.724 155.748C165.635 155.571 164.236 154.443 163.358 152.479C162.429 152.636 161.729 153.137 161.092 153.701C159.849 154.798 158.627 155.905 157.394 157.002C157.227 157.148 157.049 157.273 156.882 157.42C156.799 157.347 156.705 157.263 156.621 157.19ZM168.675 150.85C169.417 153.471 171.579 154.829 174.065 154.349C176.321 153.921 178.159 151.842 177.888 149.826C176.989 151.341 176.185 152.845 174.295 153.022C172.331 153.21 171.213 151.905 170.158 150.515C169.657 150.63 169.229 150.724 168.675 150.85ZM171.098 150.317C171.077 150.442 171.056 150.557 171.036 150.683C171.976 151.727 173.041 152.521 174.566 152.134C175.684 151.852 176.384 151.1 176.833 149.774C174.754 149.972 172.926 150.139 171.098 150.306V150.317Z" fill="black"/>
<path d="M143.126 159.801C143.189 160.01 143.293 160.208 143.293 160.417C143.241 162.203 143.272 164 143.074 165.765C142.834 167.948 143.074 170.079 143.513 172.189C144.494 176.942 144.536 181.767 144.505 186.593C144.505 186.718 144.421 186.833 144.254 187.272C144.118 185.851 143.993 184.723 143.899 183.606C143.732 181.506 143.659 179.386 143.387 177.307C143.147 175.448 142.74 173.599 142.332 171.771C141.779 169.327 141.58 166.883 142.061 164.397C142.259 163.363 142.332 162.308 142.489 161.263C142.562 160.772 142.687 160.302 142.781 159.822C142.896 159.822 143.001 159.822 143.116 159.822L143.126 159.801Z" fill="black"/>
<path d="M161.844 157.347C164.716 158.768 167.265 160.805 170.513 161.4C173.636 161.974 176.781 161.818 180.06 161.692C178.765 162.559 173.354 163.009 170.848 162.612C167.14 162.037 164.424 159.802 161.844 157.347Z" fill="black"/>
<path d="M180.113 199.525C178.703 198.888 168.415 189.707 167.234 188.119C169.595 188.871 178.024 196.287 180.113 199.525Z" fill="black"/>
<path d="M108.308 156.657C108.548 156.825 108.82 156.96 109.018 157.169C111.723 160 115.108 161.65 118.795 162.778C120.048 163.165 121.281 163.593 122.534 164C122.534 164.094 122.513 164.188 122.503 164.282C122.284 164.293 122.033 164.376 121.834 164.314C119.223 163.478 116.581 162.726 114.021 161.755C111.713 160.877 109.812 159.352 108.371 157.326C108.266 157.18 108.203 157.013 108.109 156.856C108.172 156.783 108.235 156.72 108.297 156.647L108.308 156.657Z" fill="black"/>
<path d="M110.305 155.645C114.472 157.807 119.047 158.569 123.518 159.656C120.353 160.324 111.318 157.608 110.305 155.645Z" fill="black"/>
<path d="M134.152 193.299C133.274 192.244 132.533 191.001 132.71 189.643C133.076 186.844 133.64 184.076 133.337 181.214C133.431 181.204 133.535 181.193 133.629 181.183C133.734 181.444 133.932 181.705 133.943 181.976C134.047 183.794 134.35 185.632 133.943 187.439C133.546 189.246 133.692 190.98 134.35 192.693C134.413 192.85 134.413 193.028 134.434 193.195C134.34 193.226 134.246 193.268 134.141 193.299H134.152Z" fill="black"/>
<path d="M159.637 193.309C161.099 190.489 162.029 187.617 161.663 184.347C161.809 184.525 162.018 184.681 162.112 184.89C162.739 186.3 162.781 187.731 162.258 189.173C161.694 190.74 160.754 192.077 159.637 193.309Z" fill="black"/>
<path d="M142.155 150.161C142.155 150.725 142.176 151.299 142.155 151.863C142.123 152.501 142.04 153.138 141.998 153.775C141.883 155.436 141.309 156.021 139.418 156.261C139.522 156.062 139.554 155.864 139.669 155.812C140.692 155.237 141.089 154.36 141.194 153.221C141.288 152.187 141.559 151.164 141.747 150.14L142.165 150.161H142.155Z" fill="black"/>
<path d="M156.495 154.652C155.607 154.13 154.876 153.43 154.354 152.522C154.208 152.271 154.156 151.884 154.239 151.613C154.448 150.892 154.751 150.192 155.012 149.482C155.127 149.492 155.231 149.503 155.346 149.513C155.357 149.931 155.472 150.37 155.367 150.756C155.106 151.696 155.43 152.438 155.952 153.169C156.234 153.566 156.474 154.005 156.725 154.423C156.652 154.496 156.568 154.569 156.495 154.642V154.652Z" fill="black"/>
<path d="M177.5 158.308C175.902 158.349 174.356 158.934 172.633 158.59C173.646 158.026 175.369 157.89 177.5 158.308Z" fill="black"/>
<path d="M135.084 152.145C133.486 152.604 131.929 152.385 130.425 152.103C126.425 151.351 122.435 150.494 118.455 149.607C114.016 148.614 109.535 148.019 105.001 147.695C104.406 147.653 103.748 147.894 103.174 148.144C101.555 148.834 99.9564 149.586 98.2852 150.348C98.9223 148.802 100.103 147.789 101.283 146.818C103.905 144.676 107.007 144.102 110.276 144.29C113.452 144.478 116.523 145.314 119.52 146.316C122.779 147.403 125.986 148.646 129.203 149.847C131.167 150.588 133.12 151.382 135.073 152.145H135.084Z" fill="black"/>
<path d="M118.34 152.719C118.632 152.667 118.799 152.604 118.977 152.614C119.708 152.656 120.429 152.729 121.108 152.782C121.202 152.928 121.275 152.99 121.306 153.064C122.184 155.309 123.918 155.717 125.652 154.098C125.819 153.941 125.934 153.68 126.122 153.607C126.383 153.513 126.686 153.544 127.03 153.513C126.424 155.174 124.45 156.375 122.508 156.396C120.899 156.396 119.155 154.902 118.35 152.708L118.34 152.719Z" fill="#4B95D1"/>
<path d="M125.149 153.158C123.781 154.62 122.809 154.485 122.078 152.803C123.081 152.918 124 153.022 125.149 153.158Z" fill="black"/>
<path d="M168.676 150.85C169.229 150.724 169.658 150.63 170.159 150.516C171.214 151.905 172.342 153.21 174.295 153.022C176.186 152.845 176.99 151.341 177.889 149.826C178.15 151.842 176.322 153.921 174.066 154.349C171.58 154.819 169.417 153.472 168.676 150.85Z" fill="#4B95D1"/>
<path d="M171.098 150.317C172.926 150.15 174.754 149.972 176.832 149.784C176.394 151.101 175.694 151.863 174.566 152.145C173.041 152.521 171.965 151.727 171.035 150.693C171.056 150.568 171.077 150.453 171.098 150.328V150.317Z" fill="black"/>
<path d="M124.875 154.798C125.371 154.798 125.773 154.602 125.773 154.36C125.773 154.117 125.371 153.921 124.875 153.921C124.379 153.921 123.977 154.117 123.977 154.36C123.977 154.602 124.379 154.798 124.875 154.798Z" fill="white"/>
<path d="M175.964 152.417C176.657 152.417 177.218 152.141 177.218 151.8C177.218 151.46 176.657 151.184 175.964 151.184C175.272 151.184 174.711 151.46 174.711 151.8C174.711 152.141 175.272 152.417 175.964 152.417Z" fill="white"/>
<path d="M113.668 199.88C113.741 200.371 113.783 200.873 113.835 201.374C113.417 201.76 113.062 201.583 112.717 201.322C110.221 199.504 107.85 197.561 106.084 194.971C104.351 192.412 102.94 189.686 101.624 186.907C100.089 183.669 98.543 180.431 96.7673 177.329C94.4589 173.276 92.4429 169.129 91.1895 164.627C90.9806 163.886 90.6254 163.175 90.3956 162.444C90.2912 162.1 90.2912 161.724 90.2703 161.348C90.1763 159.99 90.0927 158.621 89.9883 156.981C90.7612 157.692 91.3566 158.235 91.952 158.778C92.2758 159.081 92.61 159.634 93.0696 159.29C93.3517 159.081 93.4666 158.475 93.4352 158.078C93.2577 156.062 92.9965 154.067 92.7772 152.051C92.6518 150.913 92.5056 149.774 92.422 148.625C92.2862 146.703 92.7981 144.886 93.4666 143.12C94.4798 140.394 95.8272 137.846 97.4776 135.454C98.2087 134.399 98.8877 133.312 99.5457 132.205C100.381 130.785 100.256 130.304 98.9503 129.322C97.8536 128.487 96.7777 127.62 95.7019 126.774C94.5424 125.854 93.853 124.664 93.4561 123.243C92.6101 120.141 92.4951 116.986 92.7354 113.811C92.9652 110.761 93.7381 107.836 94.8976 105.016C96.5375 101.026 99.2533 97.9341 102.784 95.5004C105.218 93.8187 107.787 93.286 110.733 93.8709C116.143 94.9572 121.46 96.3673 126.724 97.9759C127.027 98.0699 127.32 98.1535 127.612 98.2475C125.91 98.0072 124.332 97.7148 123.476 97.6834C119.152 97.5267 114.66 97.6834 110.774 99.574C102.867 103.428 99.8069 114.051 102.836 122.313C103.693 124.643 104.946 126.878 105.144 129.343C105.667 135.986 98.6579 140.781 96.9449 147.215C96.5897 148.542 96.4853 149.91 96.5688 151.278C96.6106 151.874 96.6837 152.469 96.7986 153.054C97.1537 154.903 97.8431 156.699 98.7623 158.329C100.663 161.682 103.473 164.418 106.45 166.873C109.709 169.568 113.469 172.378 114.211 176.535C114.765 179.648 113.469 182.739 112.613 185.779C111.756 188.819 111.474 192.464 113.616 194.793C116.833 193.603 120.06 192.412 123.288 191.221C121.867 192.276 120.28 193.07 118.692 193.864C117.47 194.47 116.29 195.201 115.193 196.015C113.898 196.956 113.438 198.313 113.668 199.912V199.88Z" fill="#D6966B"/>
<path opacity="0.43" d="M114.2 153.774C114.2 153.774 127.549 153.032 131.852 156.907L133.304 156.625C133.304 156.625 132.072 153.105 117.407 152.625C117.407 152.625 114.639 152.583 113.02 152.855L114.189 153.763L114.2 153.774Z" fill="black"/>
<path opacity="0.43" d="M167.222 155.351C167.222 155.351 166.815 149.846 180.979 151.204C180.979 151.204 183.13 152.029 181.793 153.492C181.793 153.492 183.298 152.98 182.472 150.442C182.472 150.442 171.933 147.956 164.527 151.925C164.527 151.925 164.935 154.777 167.222 155.351Z" fill="black"/>
<path d="M158.052 213.188C158.052 213.188 154.605 212.874 152.203 214.002C152.203 214.002 149.309 215.945 145.789 214.002C145.789 214.002 142.269 213.104 141.799 215.956C141.799 215.956 140.953 219.998 145.789 220.301C145.789 220.301 157.018 221.199 161.844 216.029L164.789 211.778C164.789 211.778 161.039 213.626 158.041 213.177L158.052 213.188Z" fill="#FDD3B1"/>
<path d="M148.773 210.472C148.773 210.472 151.813 209.458 159.281 209.688C159.563 209.573 164.337 210.19 167.711 207.16" stroke="#FDD3B1" stroke-width="1.18133" stroke-linecap="round" stroke-linejoin="round"/>
<g opacity="0.25">
<path d="M156.621 105.182C156.621 105.182 180.311 90.8096 191.101 93.6089C191.101 93.6089 201.442 97.0872 195.143 113.946C195.143 113.946 190.422 125.185 194.694 129.008C194.694 129.008 198.736 135.307 195.143 136.424C195.143 136.424 175.422 135.526 163.588 141.595C163.588 141.595 159.284 139.119 171.035 133.05C171.035 133.05 183.622 128.548 175.224 109.214C175.224 109.214 172.54 104.044 161.133 109.214C161.133 109.214 157.603 112.358 155.472 109.444C155.472 109.444 152.359 107.585 156.621 105.172V105.182Z" fill="white"/>
</g>
<path d="M164.53 156.918C167.632 159.018 171.34 160.208 175.08 160.187C179.958 160.135 184.397 157.785 188.168 154.808C186.674 156.396 184.94 157.764 183.018 158.83C177.179 162.214 169.512 161.504 164.52 156.918H164.53Z" fill="white"/>
<path d="M110.6 157.075C115.363 160.564 121.328 162.287 127.198 161.87C129.506 161.734 131.773 161.264 134.019 160.637C132.128 161.504 130.112 162.11 128.033 162.423C121.85 163.374 115.081 161.514 110.59 157.075H110.6Z" fill="white"/>
<path d="M167.219 143.486C175.303 138.159 187.138 134.451 196.288 139.12C197.583 139.799 198.774 140.655 199.86 141.616C198.659 140.791 197.437 140.039 196.121 139.465C186.825 135.464 175.763 139.12 167.219 143.486Z" fill="white"/>
<g opacity="0.25">
<path d="M188.176 146.494C188.176 146.494 196.783 149.951 192.594 154.37C192.594 154.37 181.564 162.663 180.112 173.537C180.112 173.537 180.499 183.773 174.712 185.591C174.712 185.591 171.547 186.855 177.919 191.294C177.919 191.294 182.964 194.532 185.262 193.111C185.262 193.111 192.908 181.862 195.759 168.074C195.759 168.074 200.303 151.393 196.459 148.489C196.459 148.489 186.693 143.141 188.186 146.494H188.176Z" fill="white"/>
</g>
<path d="M104.234 141.616C109.29 139.893 116.675 141.616 121.73 143.016C123.851 143.674 125.961 144.363 128.029 145.178C130.055 146.003 132.134 146.745 134.265 147.246C135.685 147.58 137.148 147.831 138.61 147.601C137.179 148.009 135.643 147.862 134.191 147.633C132.729 147.382 131.288 147.006 129.878 146.557C124.362 144.614 118.753 142.713 112.967 141.773C110.094 141.355 107.107 140.948 104.245 141.616H104.234Z" fill="white"/>
<path d="M143.156 155.645C144.483 158.329 145.099 161.379 144.942 164.377L144.922 164.231C145.026 164.649 144.995 165.087 145.016 165.505C145.036 168.189 145.172 170.905 145.768 173.527C145.851 173.851 145.976 174.352 146.029 174.676C146.478 177.381 146.426 180.202 145.788 182.865C145.851 182.092 145.903 181.319 145.914 180.536C145.914 178.227 145.715 175.909 145.068 173.694C144.66 172.169 144.451 170.592 144.347 169.025C144.243 167.573 144.284 166.111 144.274 164.649C144.274 164.544 144.253 164.408 144.243 164.304C144.295 163.583 144.337 162.852 144.316 162.121C144.253 159.917 143.856 157.723 143.167 155.624L143.156 155.645Z" fill="white"/>
<path d="M148.773 209.793C149.609 208.435 154.581 208.257 156.137 208.257C157.6 208.236 159.25 208.32 160.712 208.424C162.551 208.424 165.079 207.609 166.99 206.68C167.575 206.408 168.442 205.99 169.016 205.698C168.714 205.917 168.411 206.147 168.108 206.366C165.904 207.86 163.376 209.114 160.671 209.197C158.947 209.103 157.109 209.009 155.385 208.978C154.007 208.988 149.63 208.821 148.784 209.803L148.773 209.793Z" fill="white"/>
<path d="M147.113 196.161C148.064 198.992 149.453 199.493 151.866 197.686C153.025 196.882 154.195 196.109 155.47 195.461C154.822 196.161 154.122 196.788 153.401 197.394C152.273 198.323 151.145 199.451 149.578 199.504C147.865 199.535 147.051 197.623 147.124 196.161H147.113Z" fill="white"/>
<path d="M160.225 183.428C161.384 186.092 160.831 189.497 158.898 191.67C159.807 188.985 160.267 186.27 160.225 183.428Z" fill="white"/>
<path d="M208.755 124.862C209.642 124.935 210.415 125.583 210.823 126.366C211.669 127.975 211.46 129.855 211.22 131.589C210.865 134.106 210.457 136.843 210.081 139.339C209.183 145.084 208.097 151.664 207.031 157.357C206.498 159.906 205.235 162.58 202.801 163.771C204.305 162.883 205.287 161.358 205.872 159.749C206.446 158.37 206.666 156.177 206.885 154.694C207.574 149.92 208.525 143.998 209.34 139.224C209.768 136.738 210.248 134.001 210.708 131.515C211.167 129.27 211.596 125.635 208.755 124.883V124.862Z" fill="white"/>
<path d="M170.949 207.755C169.507 209.103 168.526 210.826 167.982 212.664C165.799 218.326 160.483 222.222 154.895 224.133C159.177 221.867 163.272 219.026 166.008 214.962C166.541 214.169 167.042 213.322 167.398 212.466C168.076 210.586 169.288 208.841 170.949 207.755Z" fill="white"/>
<path opacity="0.2" d="M154.363 101.36C154.363 101.36 186.305 84.5014 175.765 54.3667C175.765 54.3667 177.301 72.8027 167.221 76.6257C167.221 76.6257 174.011 58.8582 159.387 49.4157C159.387 49.4157 127.007 33.6746 111.715 41.9995C111.715 41.9995 144.962 40.4223 149.13 55.7142C149.13 55.7142 139.98 39.9731 118.316 46.7208C118.316 46.7208 140.857 46.9506 140.899 63.8093C140.899 63.8093 129.085 59.0776 127.581 52.121C127.581 52.121 126.996 58.4195 128.793 62.0127C130.589 65.6059 133.514 72.3535 136.888 77.3046C136.888 77.3046 126.537 72.8027 123.957 62.4619C123.957 62.4619 119.967 75.9572 135.06 84.2716C135.06 84.2716 127.028 81.5767 121.387 72.8027C121.387 72.8027 124.677 85.3162 135.06 89.6301C135.06 89.6301 124.563 89.6718 121.387 84.7208C121.387 84.7208 119.121 91.928 136.658 93.6097L131.039 95.9599C131.039 95.9599 139.938 95.0616 141.453 98.6548C141.453 98.6548 144.816 106.52 154.342 101.35L154.363 101.36Z" fill="white"/>
<path opacity="0.2" d="M196.414 87.008C196.414 87.008 200.394 83.8953 203.757 83.9058C203.757 83.9058 207.956 85.3264 209.001 86.3082C209.001 86.3082 211.623 88.1048 210.505 94.6227L207.956 119.242C207.956 119.242 205.993 128.121 203.601 130.262C203.601 130.262 212.061 111.252 206.755 92.3769C206.755 92.3769 204.196 86.6633 199.872 89.0031C199.872 89.0031 198.075 89.2329 201.616 95.7508C201.616 95.7508 196.613 88.6688 193.469 88.6688L196.425 87.008H196.414Z" fill="white"/>
<g opacity="0.25">
<path d="M159.684 196.809C159.684 196.809 161.856 194.114 162.932 190.74C162.932 190.74 165.021 186.583 167.716 190.74C167.716 190.74 172.469 197.404 174.61 198.052C174.61 198.052 167.162 199.733 159.684 196.819V196.809Z" fill="white"/>
</g>
<g opacity="0.25">
<path d="M145.118 155.351C145.118 155.351 146.862 161.848 146.778 166.684C146.778 166.684 146.465 170.883 147.823 173.954C147.823 173.954 149.954 183 148.387 188.891C148.387 188.891 146.841 199.754 154.205 193.821C154.205 193.821 159.292 188.275 158.895 181.861C158.895 181.861 156.482 174.529 155.469 169.254C155.469 169.254 152.398 165.003 152.022 162.297C152.022 162.297 150.8 156.814 147.113 153.199C147.113 153.199 143.791 148.645 145.118 155.341V155.351Z" fill="white"/>
</g>
<g opacity="0.25">
<path d="M165.401 165.401C167.95 166.685 172.88 168.524 178.333 167.124C179.722 166.769 180.881 168.2 180.286 169.495C179.053 172.201 176.421 175.397 170.958 174.666C170.217 174.29 163.187 171.407 162.936 166.978C162.863 165.683 164.252 164.805 165.401 165.39V165.401Z" fill="white"/>
</g>
<g opacity="0.25">
<path d="M131.122 164.24C128.605 165.515 123.717 167.332 118.327 165.943C116.959 165.588 115.81 167.008 116.394 168.293C117.617 170.978 120.217 174.132 125.628 173.411C126.359 173.035 133.326 170.194 133.567 165.807C133.64 164.522 132.271 163.656 131.122 164.24Z" fill="white"/>
</g>
<g opacity="0.33">
<path d="M122.141 39.5962C138.205 41.4659 169.416 48.8507 167.317 69.9293C167.003 72.8018 166.094 75.5593 164.893 78.1602L164.643 77.6171C167.546 78.2125 170.408 76.5412 172.111 74.2432C174.273 71.4126 175.234 67.8403 176.017 64.4142C177.01 68.8535 176.404 73.4912 174.848 77.7111C170.722 88.8458 160.861 96.6589 150.625 101.986L153.142 100.524C155.983 98.7793 158.919 96.8155 161.457 94.6742C168.11 89.2218 173.751 81.931 175.38 73.3241C175.809 71.0052 175.997 68.5506 175.61 66.2213H176.299C175.589 69.2086 174.566 72.196 172.696 74.6819C170.847 77.2097 167.63 79.0585 164.423 78.3691L163.974 78.2647C165.227 75.5907 166.241 72.7705 166.554 69.8458C168.727 49.4566 137.662 41.8942 122.141 39.5962Z" fill="white"/>
</g>
<path opacity="0.2" d="M200.394 163.76C200.394 163.76 200.154 170.998 199.527 174.769C199.527 174.769 198.211 185.287 198.232 190.291C198.232 190.291 197.386 204.339 186.898 218.43C186.898 218.43 174.98 234.526 171.68 240.877C171.68 240.877 176.14 229.742 182.094 221.992C182.094 221.992 193.124 207.682 196.435 190.405C196.435 190.405 197.145 177.641 198.587 173.954C198.587 173.954 200.342 168 200.383 163.76H200.394Z" fill="white"/>
<path opacity="0.2" d="M152.797 201.415C152.797 201.415 156.171 199.399 157.518 199.138C157.518 199.138 167.243 199.43 169.008 200.276C169.008 200.276 171.745 200.151 174.596 199.921C174.596 199.921 177.302 200.6 178.649 203.065C178.649 203.065 174.648 200.37 169.008 201.791C169.008 201.791 163.159 202.752 158.239 200.621C158.239 200.621 156.014 200.057 152.797 201.415Z" fill="white"/>
<path opacity="0.2" d="M148.565 233.722C148.565 233.722 153.214 233.576 155.459 232.563C155.459 232.563 164.63 237.284 161.841 244.596C161.841 244.596 160.515 246.622 157.371 246.842C157.371 246.842 160.066 238.256 149.391 237.148C149.391 237.148 146.32 237.619 145.609 233.231C145.609 233.231 146.299 233.879 148.576 233.712L148.565 233.722Z" fill="white"/>
</g>
</svg>
