<svg width="37" height="38" viewBox="0 0 37 38" fill="none" xmlns="http://www.w3.org/2000/svg">
<path d="M21.7592 7.36159C21.761 5.48988 17.9444 3.97388 13.2418 3.97388C8.53923 3.97388 4.72606 5.49157 4.72266 7.36159M4.72266 7.36159C4.72266 9.23331 8.53583 10.7493 13.2418 10.7493C17.9478 10.7493 21.761 9.23331 21.761 7.36159L21.761 20.5058M4.72266 7.36159V27.6878C4.72436 29.5595 8.53753 31.0755 13.2418 31.0755C15.5232 31.0755 17.5832 30.7147 19.1115 30.1337M4.72436 14.137C4.72436 16.0087 8.53753 17.5247 13.2435 17.5247C17.9495 17.5247 21.7627 16.0087 21.7627 14.137M19.2137 23.3263C17.6769 23.9276 15.5692 24.3003 13.2418 24.3003C8.53753 24.3003 4.72436 22.7842 4.72436 20.9125M31.4421 21.4512C34.4357 24.4273 34.4357 29.2548 31.4421 32.2309C28.4485 35.207 23.5926 35.207 20.5989 32.2309C17.6053 29.2548 17.6053 24.4273 20.5989 21.4512C23.5926 18.4751 28.4485 18.4751 31.4421 21.4512Z" stroke="white" stroke-width="2.13424" stroke-linecap="round" stroke-linejoin="round"/>
</svg>
