<svg width="38" height="38" viewBox="0 0 38 38" fill="none" xmlns="http://www.w3.org/2000/svg">
<path d="M32.9246 8.54725C32.9246 11.0731 26.7819 13.1206 19.2045 13.1206C11.6271 13.1206 5.48438 11.0731 5.48438 8.54725M32.9246 8.54725C32.9246 6.02144 26.7819 3.97388 19.2045 3.97388C11.6271 3.97388 5.48438 6.02144 5.48438 8.54725M32.9246 8.54725V29.8896C32.9246 32.4202 26.8268 34.463 19.2045 34.463C11.5822 34.463 5.48438 32.4202 5.48438 29.8896V8.54725M32.9246 19.2184C32.9246 21.749 26.8268 23.7918 19.2045 23.7918C11.5822 23.7918 5.48438 21.749 5.48438 19.2184" stroke="white" stroke-width="2.13424" stroke-linecap="round" stroke-linejoin="round"/>
</svg>
