<svg width="38" height="37" viewBox="0 0 38 37" fill="none" xmlns="http://www.w3.org/2000/svg">
<g clip-path="url(#clip0_924_667)">
<path d="M25.3024 32.1697V29.1208C25.3024 27.5036 24.66 25.9526 23.5164 24.809C22.3728 23.6654 20.8218 23.023 19.2046 23.023H8.53338C6.91613 23.023 5.36512 23.6654 4.22156 24.809C3.07799 25.9526 2.43555 27.5036 2.43555 29.1208V32.1697M31.4002 12.3518V21.4985M35.9736 16.9251H26.8269M19.9668 10.8273C19.9668 14.1951 17.2367 16.9251 13.869 16.9251C10.5012 16.9251 7.77115 14.1951 7.77115 10.8273C7.77115 7.45958 10.5012 4.72949 13.869 4.72949C17.2367 4.72949 19.9668 7.45958 19.9668 10.8273Z" stroke="white" stroke-width="2.13424" stroke-linecap="round" stroke-linejoin="round"/>
</g>
<defs>
<clipPath id="clip0_924_667">
<rect width="36.587" height="36.587" fill="white" transform="translate(0.910156 0.156006)"/>
</clipPath>
</defs>
</svg>
